<svg xmlns="http://www.w3.org/2000/svg" xmlns:xlink="http://www.w3.org/1999/xlink" viewBox="0 0 1138.88 846.73"><defs><style>.cls-1,.cls-61,.cls-64,.cls-65{fill:#fff;}.cls-1,.cls-10,.cls-11,.cls-12,.cls-13,.cls-14,.cls-15,.cls-16,.cls-17,.cls-18,.cls-19,.cls-20,.cls-21,.cls-22,.cls-24,.cls-25,.cls-28,.cls-29,.cls-3,.cls-31,.cls-32,.cls-33,.cls-34,.cls-36,.cls-37,.cls-38,.cls-39,.cls-4,.cls-41,.cls-43,.cls-45,.cls-46,.cls-47,.cls-48,.cls-49,.cls-5,.cls-50,.cls-51,.cls-52,.cls-53,.cls-54,.cls-55,.cls-56,.cls-57,.cls-58,.cls-59,.cls-6,.cls-66,.cls-67,.cls-68,.cls-69,.cls-7,.cls-70,.cls-71,.cls-72,.cls-73,.cls-74,.cls-75,.cls-76,.cls-77,.cls-78,.cls-79,.cls-8,.cls-80,.cls-81,.cls-82,.cls-83,.cls-84,.cls-85,.cls-86,.cls-87,.cls-88,.cls-89,.cls-9,.cls-90,.cls-91,.cls-92,.cls-93,.cls-94{fill-rule:evenodd;}.cls-11,.cls-12,.cls-17,.cls-19,.cls-2,.cls-21,.cls-32,.cls-34,.cls-53,.cls-69,.cls-72,.cls-76{isolation:isolate;}.cls-21,.cls-3{fill:#6d6afd;}.cls-3,.cls-62,.cls-76{opacity:0.15;}.cls-4{fill:url(#linear-gradient);}.cls-5{fill:url(#linear-gradient-2);}.cls-6{fill:#050505;opacity:0.14;}.cls-7{fill:#ebeefb;}.cls-8{opacity:0.08;}.cls-9{fill:#d0e7ff;}.cls-10{fill:url(#linear-gradient-3);}.cls-11{fill:#1c8df3;}.cls-11,.cls-12,.cls-26,.cls-34,.cls-91,.cls-93,.cls-94{opacity:0.5;}.cls-12{fill:#86e4fd;}.cls-13{fill:url(#linear-gradient-4);}.cls-14,.cls-23{opacity:0.06;}.cls-15{fill:url(#linear-gradient-5);}.cls-16{fill:#ffdb59;}.cls-17,.cls-19,.cls-21{opacity:0.2;}.cls-17{fill:url(#linear-gradient-6);}.cls-18{fill:url(#linear-gradient-7);}.cls-19{fill:url(#linear-gradient-8);}.cls-20{fill:url(#linear-gradient-9);}.cls-22{fill:url(#linear-gradient-10);}.cls-25{fill:url(#linear-gradient-11);}.cls-27{mask:url(#mask);}.cls-28{fill:url(#linear-gradient-12);}.cls-29{fill:#9ed7fa;}.cls-30{mask:url(#mask-2);}.cls-31{fill:url(#linear-gradient-13);}.cls-32{opacity:0.18;fill:url(#linear-gradient-14);}.cls-33{fill:#17adc9;}.cls-34{fill:url(#linear-gradient-15);}.cls-35{mask:url(#mask-3);}.cls-36{fill:url(#linear-gradient-16);}.cls-37{fill:#e23b93;}.cls-38{fill:#f2f4ff;}.cls-39{fill:#c5dbf1;}.cls-40{mask:url(#mask-4);}.cls-41{fill:#dce8f8;}.cls-42{mask:url(#mask-5);}.cls-43{fill:url(#linear-gradient-17);}.cls-44{mask:url(#mask-6);}.cls-45{fill:#fb84b6;}.cls-46{fill:url(#linear-gradient-18);}.cls-47{fill:#1f202b;}.cls-48{fill:#161a40;}.cls-49{fill:#161f69;}.cls-50{fill:url(#linear-gradient-19);}.cls-51{fill:url(#linear-gradient-20);}.cls-52{fill:#107cce;}.cls-53,.cls-69{fill:#0960ac;}.cls-53,.cls-72{opacity:0.3;}.cls-54{fill:url(#linear-gradient-21);}.cls-55{fill:#ffa698;}.cls-56{fill:#00cedc;}.cls-57{fill:url(#linear-gradient-22);}.cls-58{fill:url(#linear-gradient-23);}.cls-59{fill:#122744;}.cls-60{fill:#1e1e1e;}.cls-61{opacity:0.16;}.cls-63{fill:#00dfbf;}.cls-64,.cls-85{opacity:0.25;}.cls-65{opacity:0.4;}.cls-66{fill:#ffa495;}.cls-67{fill:#193161;}.cls-68{fill:#4a50b5;}.cls-69{opacity:0.35;}.cls-70{fill:url(#linear-gradient-24);}.cls-71{fill:url(#linear-gradient-25);}.cls-72{fill:#1e2353;}.cls-73{fill:url(#linear-gradient-26);}.cls-74{fill:url(#linear-gradient-27);}.cls-75{fill:#5e65d6;}.cls-77{fill:#e7a376;}.cls-78{fill:url(#linear-gradient-28);}.cls-79{fill:url(#linear-gradient-29);}.cls-80{fill:#ffb49c;}.cls-81{fill:#562e65;}.cls-82{fill:url(#linear-gradient-30);}.cls-83{fill:url(#linear-gradient-31);}.cls-84{fill:#fa9;}.cls-85{fill:#955cf1;}.cls-85,.cls-91,.cls-93,.cls-94{mix-blend-mode:multiply;}.cls-86{fill:url(#linear-gradient-32);}.cls-87{fill:#0e2e63;}.cls-88{fill:#071a3b;}.cls-89{fill:#e67fe0;}.cls-90{fill:url(#linear-gradient-33);}.cls-91{fill:url(#linear-gradient-34);}.cls-92{fill:url(#linear-gradient-35);}.cls-93{fill:url(#linear-gradient-36);}.cls-94{fill:url(#linear-gradient-37);}</style><linearGradient id="linear-gradient" x1="-292.35" y1="1080.23" x2="-292.63" y2="1079.29" gradientTransform="matrix(302.47, 0, 0, -438.7, 89345.93, 474241.01)" gradientUnits="userSpaceOnUse"><stop offset="0" stop-color="#d1e8ff"/><stop offset="1" stop-color="#eaefff"/></linearGradient><linearGradient id="linear-gradient-2" x1="602.68" y1="487.71" x2="1159.69" y2="487.71" gradientUnits="userSpaceOnUse"><stop offset="0" stop-color="#6d6afe"/><stop offset="1" stop-color="#3fb0f7"/></linearGradient><linearGradient id="linear-gradient-3" x1="-288.66" y1="1076.94" x2="-287.45" y2="1076.73" gradientTransform="matrix(104.79, 0, 0, -65.96, 30820.76, 71459.38)" gradientUnits="userSpaceOnUse"><stop offset="0" stop-color="#965cf2"/><stop offset="1" stop-color="#ff8adc"/></linearGradient><linearGradient id="linear-gradient-4" x1="-288.58" y1="1076.53" x2="-287.29" y2="1076.3" gradientTransform="matrix(104.78, 0, 0, -65.96, 30812.32, 71498.87)" gradientUnits="userSpaceOnUse"><stop offset="0" stop-color="#1c8ef4"/><stop offset="1" stop-color="#00cfdd"/></linearGradient><linearGradient id="linear-gradient-5" x1="-281.19" y1="1077.93" x2="-281.54" y2="1077.28" gradientTransform="matrix(57.11, 0, 0, -67.39, 16649.79, 72796.79)" gradientUnits="userSpaceOnUse"><stop offset="0" stop-color="#ff66bc"/><stop offset="0.56" stop-color="#ff8adc"/><stop offset="1" stop-color="#ffbba8"/></linearGradient><linearGradient id="linear-gradient-6" x1="-319.3" y1="1084.93" x2="-318.66" y2="1084.81" gradientTransform="matrix(98.82, 0, 0, -116.53, 29075.9, 126018.27)" xlink:href="#linear-gradient-5"/><linearGradient id="linear-gradient-7" x1="-280.03" y1="1077.38" x2="-280.39" y2="1076.73" gradientTransform="matrix(57.11, 0, 0, -67.39, 16752.58, 72855.04)" xlink:href="#linear-gradient-5"/><linearGradient id="linear-gradient-8" x1="-318.63" y1="1084.61" x2="-318" y2="1084.49" gradientTransform="matrix(98.82, 0, 0, -116.53, 29178.69, 126076.52)" xlink:href="#linear-gradient-5"/><linearGradient id="linear-gradient-9" x1="-288.95" y1="1077.3" x2="-288.9" y2="1077.61" gradientTransform="matrix(136.94, 0, 0, -96.65, 40538.47, 104743.25)" xlink:href="#linear-gradient-2"/><linearGradient id="linear-gradient-10" x1="-255.89" y1="1068.18" x2="-255.63" y2="1069.58" gradientTransform="matrix(20.98, 0, 0, -26.42, 6252.8, 28875.99)" xlink:href="#linear-gradient-2"/><linearGradient id="linear-gradient-11" x1="-285.63" y1="1079.2" x2="-285.78" y2="1078.36" gradientTransform="matrix(99.51, 0, 0, -136.68, 29541.42, 147844.77)" xlink:href="#linear-gradient-2"/><mask id="mask" x="1038.32" y="329.91" width="16.56" height="18.79" maskUnits="userSpaceOnUse"><g transform="translate(-108.25 -125.88)"><g id="mask-11"><path id="path-10" class="cls-1" d="M1146.6,460.84c.35,4.59,4.32,10.27,8.88,12.67h0c4.56,2.41,8,.63,7.63-4h0c-.35-4.59-4.33-10.27-8.89-12.67h0a8.16,8.16,0,0,0-3.75-1.07h0c-2.53,0-4.12,1.83-3.87,5"/></g></g></mask><linearGradient id="linear-gradient-12" x1="-199.19" y1="1057.86" x2="-200.59" y2="1058.44" gradientTransform="matrix(10.1, 0, 0, -11.46, 3170.75, 12587.46)" gradientUnits="userSpaceOnUse"><stop offset="0" stop-color="#6d69fd"/><stop offset="1" stop-color="#3faff6"/></linearGradient><mask id="mask-2" x="1042.07" y="296.19" width="16.56" height="18.79" maskUnits="userSpaceOnUse"><g transform="translate(-108.25 -125.88)"><g id="mask-14"><path id="path-13" class="cls-1" d="M1150.34,427.12c.35,4.6,4.33,10.27,8.89,12.68h0c4.56,2.4,8,.63,7.62-4h0c-.35-4.6-4.33-10.28-8.88-12.68h0a8.19,8.19,0,0,0-3.75-1.07h0c-2.53,0-4.12,1.83-3.88,5"/></g></g></mask><linearGradient id="linear-gradient-13" x1="-199.04" y1="1059.01" x2="-200.45" y2="1059.58" gradientTransform="matrix(10.1, 0, 0, -11.46, 3173.03, 12566.9)" xlink:href="#linear-gradient-12"/><linearGradient id="linear-gradient-14" x1="-278.02" y1="1077.66" x2="-277.64" y2="1078.45" gradientTransform="matrix(43.4, 0, 0, -61.68, 12671.16, 66695.77)" xlink:href="#linear-gradient-3"/><linearGradient id="linear-gradient-15" x1="-282.05" y1="1077.15" x2="-282.18" y2="1078.41" gradientTransform="matrix(70.25, 0, 0, -99.37, 20863.1, 107614.93)" gradientUnits="userSpaceOnUse"><stop offset="0" stop-color="#965cf2" stop-opacity="0.39"/><stop offset="1" stop-color="#ff8adc"/></linearGradient><mask id="mask-3" x="875.34" y="318.51" width="117.08" height="158.44" maskUnits="userSpaceOnUse"><g transform="translate(-108.25 -125.88)"><g id="mask-18"><path id="path-17" class="cls-1" d="M1006.51,444.59h0l0,0h0l0,0,0,0h0l0,0h0l0,0h0l0,0,0,0h0l0,0h0l0,0,0,0h0l0,0,0,0v0l0,0,0,0h0l0,0,0,0,0,0h0l0,0h0l0,0v0l0,0,0,0h0l0,0v0l0,0,0,0h0l0,0h0l0,0,0,0v0l0,0,0,0v0l0,0,0,0h0l0,.05h0l0,0v0h0l0,.05h0l0,0v.08h0l0,.05h0v.06h0l0,0h0v.16h0v.06h0v0h0v.06h0v0h0v.1h0v0h0v0h0v0h0v0h0v0L983.59,549l92.78,53.82c8.92-30.09,21.26-106.14,24.3-104.48h0l-92.77-53.83a1.88,1.88,0,0,0-.66-.13h0a1.4,1.4,0,0,0-.73.2"/></g></g></mask><linearGradient id="linear-gradient-16" x1="-282.22" y1="1077.42" x2="-282.62" y2="1078.07" gradientTransform="matrix(71.39, 0, 0, -96.61, 21197.13, 104629.08)" gradientUnits="userSpaceOnUse"><stop offset="0" stop-color="#f95db1"/><stop offset="1" stop-color="#fdbfbf"/></linearGradient><mask id="mask-4" x="868.1" y="305.74" width="100.07" height="57.59" maskUnits="userSpaceOnUse"><g transform="translate(-108.25 -125.88)"><g id="mask-21"><polygon id="path-20" class="cls-1" points="976.35 431.63 1076.41 431.63 1076.41 489.22 976.35 489.22 976.35 431.63"/></g></g></mask><mask id="mask-5" x="846.59" y="331.32" width="121.3" height="151.48" maskUnits="userSpaceOnUse"><g transform="translate(-108.25 -125.88)"><g id="mask-23"><path id="path-22" class="cls-1" d="M954.87,459.85l4.18,14.59h0l22.28,77.83a3.68,3.68,0,0,0,1.38,2.48h0l93.45,54a9.67,9.67,0,0,1-1.37-2.48h0l-22.28-77.83-47.28-27.67a16.63,16.63,0,0,1-4.79-3.81h0c-9.7-10.21-9.92-16.37-16.32-21.35h0c-3.82-2.23-24.54-14.83-28.42-18.34h0a3.79,3.79,0,0,0-.81,2.64"/></g></g></mask><linearGradient id="linear-gradient-17" x1="-282.49" y1="1076.96" x2="-283.4" y2="1077.81" gradientTransform="matrix(73.96, 0, 0, -92.36, 21941.23, 100046.64)" xlink:href="#linear-gradient-16"/><mask id="mask-6" x="943.64" y="371.84" width="50.03" height="111.73" maskUnits="userSpaceOnUse"><g transform="translate(-108.25 -125.88)"><g id="mask-26"><polygon id="path-25" class="cls-1" points="1051.89 497.72 1101.91 497.72 1101.91 609.45 1051.89 609.45 1051.89 497.72"/></g></g></mask><linearGradient id="linear-gradient-18" x1="-279.55" y1="1078.36" x2="-279.63" y2="1078.23" gradientTransform="matrix(50.33, 0, 0, -164.63, 14869.16, 178290.57)" gradientUnits="userSpaceOnUse"><stop offset="0" stop-color="#ff8a78"/><stop offset="1" stop-color="#ffa799"/></linearGradient><linearGradient id="linear-gradient-19" x1="-271.34" y1="1077.79" x2="-271.29" y2="1078.18" gradientTransform="matrix(33.68, 0, 0, -156.99, 9975.85, 170036.89)" gradientUnits="userSpaceOnUse"><stop offset="0" stop-color="#ffb89e"/><stop offset="1" stop-color="#ffa799"/></linearGradient><linearGradient id="linear-gradient-20" x1="-280.61" y1="1077.45" x2="-280.57" y2="1078.65" gradientTransform="matrix(54.81, 0, 0, -143.91, 16203.86, 155839.56)" xlink:href="#linear-gradient-4"/><linearGradient id="linear-gradient-21" x1="-268.65" y1="1070.85" x2="-268.47" y2="1070.37" gradientTransform="matrix(30.23, 0, 0, -28.34, 8951.13, 30888.65)" xlink:href="#linear-gradient-18"/><linearGradient id="linear-gradient-22" x1="-259.95" y1="1066.19" x2="-259.85" y2="1065.98" gradientTransform="matrix(23.97, 0, 0, -20.11, 7167.59, 22014.35)" xlink:href="#linear-gradient-19"/><linearGradient id="linear-gradient-23" x1="-279.36" y1="1072.72" x2="-280.03" y2="1073.27" gradientTransform="matrix(53.09, 0, 0, -39.4, 15731.21, 42876.97)" xlink:href="#linear-gradient-4"/><linearGradient id="linear-gradient-24" x1="-279.45" y1="1078.49" x2="-279.5" y2="1077.65" gradientTransform="matrix(40.67, 0, 0, -157.28, 11784.71, 170314.25)" gradientUnits="userSpaceOnUse"><stop offset="0" stop-color="#3874c2"/><stop offset="1" stop-color="#214075"/></linearGradient><linearGradient id="linear-gradient-25" x1="-254.79" y1="1052.45" x2="-255.49" y2="1051.51" gradientTransform="matrix(16.13, 0, 0, -14.96, 4547.81, 16605.9)" xlink:href="#linear-gradient-24"/><linearGradient id="linear-gradient-26" x1="-285.78" y1="1078.53" x2="-286.04" y2="1077.74" gradientTransform="matrix(69.04, 0, 0, -163.61, 20158.61, 177170.55)" xlink:href="#linear-gradient-24"/><linearGradient id="linear-gradient-27" x1="-262.93" y1="1024.52" x2="-263.81" y2="1024.43" gradientTransform="matrix(19.47, 0, 0, -7.78, 5500.25, 8864.5)" xlink:href="#linear-gradient-24"/><linearGradient id="linear-gradient-28" x1="-278.42" y1="1075.95" x2="-278.69" y2="1075.36" gradientTransform="matrix(38.96, 0, 0, -53.44, 11288.6, 57934.38)" xlink:href="#linear-gradient-18"/><linearGradient id="linear-gradient-29" x1="-278.42" y1="1074.68" x2="-278.66" y2="1073.91" gradientTransform="matrix(38.94, 0, 0, -42.28, 11282.93, 45870.17)" xlink:href="#linear-gradient-19"/><linearGradient id="linear-gradient-30" x1="-265.15" y1="1063.18" x2="-266.23" y2="1062.76" gradientTransform="matrix(22.31, 0, 0, -14.13, 6379.61, 15431.81)" gradientUnits="userSpaceOnUse"><stop offset="0" stop-color="#8a4791"/><stop offset="1" stop-color="#562e65"/></linearGradient><linearGradient id="linear-gradient-31" x1="-291.82" y1="1078.31" x2="-292.11" y2="1079.05" gradientTransform="matrix(198.36, 0, 0, -169.76, 58368.53, 183732.65)" xlink:href="#linear-gradient-4"/><linearGradient id="linear-gradient-32" x1="1174.25" y1="911.23" x2="1222.69" y2="893.77" gradientTransform="matrix(1, 0, 0, 1, 0, 0)" xlink:href="#linear-gradient-3"/><linearGradient id="linear-gradient-33" x1="1163.52" y1="872.55" x2="1222.39" y2="662.31" gradientTransform="matrix(1, 0, 0, 1, 0, 0)" xlink:href="#linear-gradient-4"/><linearGradient id="linear-gradient-34" x1="1173.68" y1="836.1" x2="1192.48" y2="749.35" gradientTransform="matrix(1, 0, 0, 1, 0, 0)" xlink:href="#linear-gradient-4"/><linearGradient id="linear-gradient-35" x1="1159.41" y1="888.83" x2="1142.99" y2="728.22" gradientTransform="matrix(1, 0, 0, 1, 0, 0)" xlink:href="#linear-gradient-4"/><linearGradient id="linear-gradient-36" x1="1169.65" y1="887.78" x2="1153.52" y2="729.94" gradientTransform="matrix(1, 0, 0, 1, 0, 0)" xlink:href="#linear-gradient-4"/><linearGradient id="linear-gradient-37" x1="1156.42" y1="858.69" x2="1146.06" y2="795.1" gradientTransform="matrix(1, 0, 0, 1, 0, 0)" xlink:href="#linear-gradient-4"/></defs><g class="cls-2"><g id="main_card" data-name="main card"><g id="main-card"><path id="shadow" class="cls-3" d="M651.57,566.81c-10-3.73-24.63-7.25-34.41-2.37l-25,12.49c-5,2.51-21.58,10.85-10.51,15.79,32.57,14.5,445.51,253.08,478.58,267.83,6.26,2.79,15.42,3.79,25,3.14s19.49-2.77,27.09-6.61l5.55-4.23A13.1,13.1,0,0,0,1116.4,831L651.57,566.81Z" transform="translate(-108.25 -125.88)"/><path id="Path" class="cls-4" d="M690.43,127.81a12.53,12.53,0,0,0-10.75-1.21l-8.07,3.16c-2.93,15.17,416.05,711.76,419.8,715.62l7.21-2.72c4.74-1.9,7.22-6.79,7.92-11.58l60.88-415.61v0c1-7-1.11-14.27-5-20.11a23.3,23.3,0,0,0-8.13-7.84Z" transform="translate(-108.25 -125.88)"/><path id="Path-2" data-name="Path" class="cls-5" d="M1146.37,390.56,682.51,130.88c-8.78-4.86-17.13-.2-18.68,10.39l-60.9,415.6c-1.55,10.59,4.27,23.12,13.05,28l463.87,259.68c8.77,4.86,17.14.2,18.69-10.38l60.89-415.6C1161,408,1155.15,395.42,1146.37,390.56Z" transform="translate(-108.25 -125.88)"/><path class="cls-6" d="M678.23,445.52l379.19,197.81a7.5,7.5,0,0,1,3.95,7.78l-14,92.66a14.23,14.23,0,0,1-21,10.33l-370-204.44a7.51,7.51,0,0,1-3.79-7.77L667.34,451a7.52,7.52,0,0,1,10.24-5.77h0C677.8,445.31,678,445.41,678.23,445.52Z" transform="translate(-108.25 -125.88)"/><path class="cls-6" d="M720.6,236.34l379.19,197.8a7.52,7.52,0,0,1,4,7.78l-25.16,154.46a14.23,14.23,0,0,1-21,10.33L687.67,402.27a7.51,7.51,0,0,1-3.79-7.77l25.83-152.69A7.51,7.51,0,0,1,720,236h0A6.44,6.44,0,0,1,720.6,236.34Z" transform="translate(-108.25 -125.88)"/><path id="Path-3" data-name="Path" class="cls-7" d="M686,175.77a16.59,16.59,0,0,1-5.1-14.61c1-4.92,4.91-6.38,8.73-3.22s6.11,9.69,5.11,14.62S689.83,178.92,686,175.77Z" transform="translate(-108.25 -125.88)"/><path id="Path-4" data-name="Path" class="cls-7" d="M710.27,190.51a16.6,16.6,0,0,1-5.1-14.61c1-4.92,4.91-6.36,8.73-3.22s6.1,9.7,5.1,14.62S714.09,193.66,710.27,190.51Z" transform="translate(-108.25 -125.88)"/><path id="Path-5" data-name="Path" class="cls-7" d="M734.53,205.26c-3.79-3.16-6.1-9.7-5.1-14.62s4.91-6.37,8.73-3.21,6.1,9.69,5.1,14.61S738.35,208.4,734.53,205.26Z" transform="translate(-108.25 -125.88)"/></g></g><g id="card4"><g id="play-card"><path id="Path-6" data-name="Path" class="cls-8" d="M519.46,370.64c2.3-17.55,15.58-25.22,29.64-17.06L750.8,472c14.05,8.14,23.6,29,21.3,46.57l-12,88.14c-2.3,17.56-15.59,25.21-29.65,17.06L528.79,505.37c-14.07-8.14-23.6-29-21.3-46.56Z" transform="translate(-108.25 -125.88)"/><path id="Path-7" data-name="Path" class="cls-9" d="M514.54,346.42c.81-6.13-.86-9.82,2.18-13.27,1.9-2.21,8-5.06,10.6-6,4.94-1.86,10.83-1.27,16.88,2.21L745.89,447.73c14.05,8.14,23.6,29,21.3,46.57l-12,88.16c-.71,5.45-2.74,12.47-7.38,16.47-3.3,2.86-8.85,5.82-12.73,6.32s-5.06-3.1-9.54-5.68L523.88,481.15c-14.07-8.15-23.61-29-21.3-46.57Z" transform="translate(-108.25 -125.88)"/><path id="Path-8" data-name="Path" class="cls-1" d="M509.82,349.22c2.3-17.56,15.58-25.22,29.64-17.07l201.7,118.38c14.05,8.14,23.6,29,21.3,46.57l-12,88.13c-2.3,17.57-15.59,25.22-29.65,17.07L519.15,484c-14.07-8.15-23.6-29-21.3-46.57Z" transform="translate(-108.25 -125.88)"/><path id="Path-9" data-name="Path" class="cls-10" d="M565.62,378.69c.3-2.27,2-3.24,3.83-2.15l164.6,94.55a6.58,6.58,0,0,1,2.75,6.09l-.58,4.49c-.3,2.28-2,3.24-3.83,2.16L567.77,389.27a6.54,6.54,0,0,1-2.74-6.08Z" transform="translate(-108.25 -125.88)"/><polygon id="Path-10-2" data-name="Path" class="cls-11" points="424.61 236.87 421.02 262.74 442.94 263.34 424.61 236.87"/><path id="Shape" class="cls-11" d="M536,399c-8.58-5.26-14.68-18-13.62-28.44s8.85-14.67,17.45-9.42,14.68,18,13.62,28.44S544.63,404.22,536,399Zm-.44,4.42c10.59,6.48,20.22,1.26,21.53-11.62s-6.23-28.61-16.81-35.09-20.23-1.26-21.53,11.62,6.22,28.61,16.81,35.1Z" transform="translate(-108.25 -125.88)"/><polygon id="Path-11" data-name="Path" class="cls-11" points="415.22 298.78 411.63 324.66 433.55 325.25 415.22 298.78"/><path id="Shape-2" data-name="Shape" class="cls-11" d="M526.63,460.87c-8.57-5.25-14.68-18-13.62-28.43s8.85-14.67,17.45-9.42,14.68,18,13.62,28.44S535.23,466.13,526.63,460.87Zm-.44,4.43c10.59,6.48,20.22,1.26,21.53-11.62s-6.23-28.61-16.81-35.09-20.23-1.27-21.54,11.62,6.23,28.63,16.82,35.09Z" transform="translate(-108.25 -125.88)"/><path id="Path-12" data-name="Path" class="cls-12" d="M562.88,399.89c.24-1.79,1.59-2.53,3-1.7L695.6,472.7a5.16,5.16,0,0,1,2.16,4.79l-.45,3.55c-.23,1.79-1.59,2.53-3,1.69l-129.68-74.5a5.2,5.2,0,0,1-2.17-4.8Z" transform="translate(-108.25 -125.88)"/><path id="Path-13-2" data-name="Path" class="cls-13" d="M557.82,444.87c.29-2.27,2-3.23,3.82-2.15l164.6,94.56a6.56,6.56,0,0,1,2.75,6.08l-.57,4.5c-.31,2.27-2,3.24-3.83,2.15L560,455.46a6.6,6.6,0,0,1-2.75-6.09Z" transform="translate(-108.25 -125.88)"/><path id="Path-14" data-name="Path" class="cls-12" d="M555.08,466.07c.23-1.79,1.58-2.52,3-1.69l129.7,74.5a5.21,5.21,0,0,1,2.17,4.8l-.46,3.55c-.23,1.78-1.58,2.52-3,1.69l-129.69-74.5a5.22,5.22,0,0,1-2.17-4.81Z" transform="translate(-108.25 -125.88)"/></g></g><g id="card3"><g id="picture-card"><path id="Path-15" data-name="Path" class="cls-14" d="M607.79,214.9c1.71-13.63,12-18.92,23-11.76l317,178.67c11,7.14,18.53,24,16.82,37.65L950.14,518.2c-1.71,13.63-12,18.9-23,11.76L612.2,354.71c-11-7.16-18.52-24-16.82-37.65Z" transform="translate(-108.25 -125.88)"/><path id="Path-16" data-name="Path" class="cls-9" d="M861.38,362.7l63.21,149.37h7.77c6-2.43,11.56-9.25,12.44-15.3l9.19-54s7.3-47.61,7.3-47.63c1.26-8.84-1.4-18-6.25-25.27a28.81,28.81,0,0,0-10.24-9.75l-318.52-181c-4.15-2.3-12.56-3.71-17.11-1.93l-4.8,1.93c-2.41.94-3.16,1.68-3.16,1.83C603.49,202,864.56,341,861.38,362.7Z" transform="translate(-108.25 -125.88)"/><path id="Path-17-2" data-name="Path" class="cls-1" d="M596,193.48c1.71-13.64,12-18.92,23-11.77L936,360.38c11,7.14,18.53,24,16.83,37.65l-14.46,98.74c-1.71,13.63-12,18.91-23,11.77L600.42,333.28c-11-7.15-18.53-24-16.82-37.65Z" transform="translate(-108.25 -125.88)"/><g id="Group-16"><g id="Group-4"><polygon id="Path-18" data-name="Path" class="cls-15" points="521.62 184.57 556.86 127.09 574.66 190.91 592.75 169.17 615.28 237.6 521.62 184.57"/><path id="Path-19" data-name="Path" class="cls-16" d="M695.5,256.93c4.62,1.16,8.75,6.62,9.25,12.18s-2.89,9.15-7.51,8-8.76-6.62-9.25-12.18S690.87,255.78,695.5,256.93Z" transform="translate(-108.25 -125.88)"/><path id="Path-20-2" data-name="Path" class="cls-17" d="M611.47,212.08c0-8.66,6.2-12.17,13.78-7.81q88.54,49.95,132.51,75.67c5.52,3.23,5.13,9.33,5.1,18l-12.25,85.9c0,8.66-6.21,12.17-13.79,7.81L614.51,321.51c-7.59-4.36-13.72-14.92-13.7-23.58Z" transform="translate(-108.25 -125.88)"/></g><g id="Group-4-Copy"><polygon id="Path-21" data-name="Path" class="cls-18" points="690.2 280.1 725.45 222.62 743.24 286.44 761.33 264.7 783.86 333.13 690.2 280.1"/><path id="Path-22-2" data-name="Path" class="cls-16" d="M864.08,352.47c4.63,1.15,8.75,6.61,9.25,12.17s-2.88,9.15-7.51,8-8.75-6.62-9.25-12.18S859.45,351.31,864.08,352.47Z" transform="translate(-108.25 -125.88)"/><path id="Path-23" data-name="Path" class="cls-19" d="M780.05,307.61c0-8.66,6.2-12.17,13.79-7.81q88.54,49.95,132.51,75.67c5.52,3.23,5.13,9.33,5.1,18L919.2,479.37c0,8.66-6.21,12.16-13.79,7.8L783.09,417c-7.59-4.36-13.72-14.92-13.69-23.58Z" transform="translate(-108.25 -125.88)"/></g></g></g></g><g id="card2"><path id="Path-24" data-name="Path" class="cls-8" d="M868.62,570.62c2.28-17.38,15.41-25,29.35-16.9l172.78,101c13.92,8.06,23.37,28.7,21.09,46.11L1080,788.08c-2.28,17.38-15.44,25-29.36,16.9L877.85,704c-13.93-8.06-23.36-28.7-21.08-46.1Z" transform="translate(-108.25 -125.88)"/><g id="Card"><path id="Path-25-2" data-name="Path" class="cls-9" d="M862.36,550.51c.8-6.06-.85-9.72,2.16-13.15,1.91-2.18,8-5,10.48-6,4.9-1.84,10.73-1.26,16.74,2.2l172.76,101c13.92,8.06,23.37,28.7,21.09,46.11L1073.75,768c-.71,5.39-2.72,12.34-7.31,16.31-3.28,2.82-8.77,5.76-12.61,6.24s-5-3.07-9.44-5.64l-172.78-101c-13.94-8.07-23.37-28.7-21.09-46.11Z" transform="translate(-108.25 -125.88)"/><path id="Path-26" data-name="Path" class="cls-1" d="M857.68,553.29c2.28-17.39,15.42-25,29.35-16.91l172.78,101c13.92,8.06,23.38,28.7,21.1,46.11l-11.85,87.27c-2.28,17.37-15.44,25-29.36,16.9l-172.78-101c-13.93-8.06-23.36-28.69-21.08-46.1Z" transform="translate(-108.25 -125.88)"/><path id="Path-27" data-name="Path" class="cls-20" d="M857.68,553.29c2.28-17.39,15.42-25,29.35-16.91l172.79,101c13.91,8.06,23.37,28.7,21.09,46.1l-1.11,8.2a44,44,0,0,0-4.67-3.11L856.65,560.85Z" transform="translate(-108.25 -125.88)"/><path id="Path-28" data-name="Path" class="cls-21" d="M888.22,596.87c17.6,4,31.09,25,30.19,46.8s-15.94,36.25-33.54,32.22-31.09-25-30.19-46.8S870.59,592.84,888.22,596.87Z" transform="translate(-108.25 -125.88)"/><path id="Shape-3" data-name="Shape" class="cls-22" d="M887.42,615.08c9.49,2.17,16.74,13.46,16.28,25.23s-8.6,19.54-18.09,17.38-16.78-13.47-16.27-25.24S877.93,612.9,887.42,615.08Zm-.43,10c-5-1.16-9.33,3-9.6,9.22S881,646.54,886,647.7s9.36-3,9.6-9.24S892,626.22,887,625.07Z" transform="translate(-108.25 -125.88)"/><path id="Path-29" data-name="Path" class="cls-21" d="M928.92,648.73c.61-4.64,4.11-6.61,7.82-4.4l112.83,64c3.7,2.22,6.22,7.78,5.58,12.42l-1.13,9.18c-.61,4.64-4.11,6.6-7.82,4.39l-112.85-64c-3.7-2.23-6.22-7.79-5.58-12.43Z" transform="translate(-108.25 -125.88)"/><path id="Path-30" data-name="Path" class="cls-21" d="M924.59,682.48c.36-2.74,2.39-3.9,4.62-2.6l66.62,37.79a8,8,0,0,1,3.32,7.34l-.7,5.42c-.36,2.73-2.43,3.9-4.62,2.59l-66.62-37.78a7.94,7.94,0,0,1-3.32-7.34Z" transform="translate(-108.25 -125.88)"/><path id="Path-31" data-name="Path" class="cls-1" d="M876.53,545.63c3.84.87,6.79,5.44,6.58,10.2s-3.48,7.9-7.31,7-6.78-5.44-6.58-10.2S872.7,544.75,876.53,545.63Z" transform="translate(-108.25 -125.88)"/><path id="Path-32" data-name="Path" class="cls-1" d="M894,555.66c3.83.88,6.78,5.45,6.58,10.2s-3.47,7.9-7.31,7-6.78-5.44-6.58-10.2S890.16,554.78,894,555.66Z" transform="translate(-108.25 -125.88)"/><path id="Path-33" data-name="Path" class="cls-1" d="M912.93,566.68c3.83.87,6.78,5.44,6.58,10.2s-3.47,7.9-7.31,7-6.78-5.44-6.58-10.2S909.06,565.8,912.93,566.68Z" transform="translate(-108.25 -125.88)"/></g></g><g id="profile_card" data-name="profile card"><g id="Group-9" class="cls-23"><path id="Fill-7" class="cls-24" d="M1042.12,431.38q0,4.32,6.65,11.64c.17.19,123.48,71.66,128.6,74.17s6.22,0,7.21-4l20.74-129c0-4.48-3.2-9.94-7.16-12.2-42-23.72-89.37-53.18-131.39-76.9a6.6,6.6,0,0,0-3.22-1c-2.36,0-4,1.84-4,5Z" transform="translate(-108.25 -125.88)"/></g><g id="login"><g id="Group-6"><path id="Fill-4" class="cls-9" d="M1049.71,274.28l-8,130.35c0,4.54,125.91,92.52,128.58,92.91,1.77.25,6.21-1.41,8.11-3.76a10.8,10.8,0,0,0,2-5.1l20.46-129.83a15.81,15.81,0,0,0-7.11-12.37c-41.75-24-127.68-75.88-132.52-77.77Q1056.32,266.82,1049.71,274.28Z" transform="translate(-108.25 -125.88)"/></g><g id="Group-9-2" data-name="Group-9"><path id="Fill-7-2" data-name="Fill-7" class="cls-25" d="M1031.41,410q0,4.32,6.65,11.65c.17.18,123.48,71.65,128.6,74.17s6.22,0,7.21-4l20.73-129c0-4.48-3.19-9.95-7.15-12.2-42-23.72-89.37-53.19-131.4-76.9a6.57,6.57,0,0,0-3.22-1c-2.35,0-4,1.83-4,5Z" transform="translate(-108.25 -125.88)"/></g><g id="Group-14" class="cls-26"><path id="Fill-10" class="cls-1" d="M1118.72,355.61c7,4,12.17,1.05,11.63-6.62s-6.6-17.16-13.56-21.17-12.16-1.05-11.63,6.62,6.6,17.15,13.56,21.17Zm-21.49-5.77a3.79,3.79,0,0,1,1.51-3.39c1-.6,2.34-.53,3.86.34l6.62,3.79a34.25,34.25,0,0,0,9.77,8.95c3.62,2.09,6.87,2.7,9.4,2l4.69,2.68a11.73,11.73,0,0,1,5.33,9.22l0,20q-20.58-12-41.17-24Z" transform="translate(-108.25 -125.88)"/></g><g id="Group-2"><path id="Fill-18" class="cls-1" d="M1046.09,393c0-1.85,1.33-2.6,3-1.67,39.69,22.52,78.45,45.14,118.13,67.66a6.44,6.44,0,0,1,2.94,5l-1.95,17.45c0,1.86-1.33,2.6-3,1.67-39.68-22.52-78-45.44-117.71-68a6.39,6.39,0,0,1-2.94-5Z" transform="translate(-108.25 -125.88)"/><g id="Group-27"><g class="cls-27"><path id="Fill-25" class="cls-28" d="M1146.6,460.84c.35,4.59,4.32,10.27,8.88,12.67h0c4.56,2.41,8,.63,7.63-4h0c-.35-4.59-4.33-10.27-8.89-12.67h0a8.16,8.16,0,0,0-3.75-1.07h0c-2.53,0-4.12,1.83-3.87,5" transform="translate(-108.25 -125.88)"/></g></g><polygon id="Fill-28" class="cls-1" points="1049.79 336.02 1050.93 336.6 1045.89 344.33 1041.44 337.68 1042.9 338.25 1045.26 340.5 1049.79 336.02"/><path id="Fill-38" class="cls-29" d="M1060,405.89a.85.85,0,0,1,.79-.91.84.84,0,0,1,.9.79l.29,4.15,2.41-1.4a.83.83,0,0,1,1.15.31.84.84,0,0,1-.31,1.16l-2.31,1.35,3.47,2a.87.87,0,0,1,.31,1.17.86.86,0,0,1-1.16.31l-1.78-1,1.86,3a.86.86,0,0,1-.26,1.18.85.85,0,0,1-1.17-.27l-1.89-3,.15,2.12a.85.85,0,1,1-1.69.11l-.29-4.14-2.09,1.21a.83.83,0,0,1-1.15-.31.87.87,0,0,1,.31-1.17l2-1.15-3.47-2a.86.86,0,0,1-.31-1.16.84.84,0,0,1,1.16-.31l1.78,1-1.86-3a.86.86,0,0,1,.26-1.18.85.85,0,0,1,1.17.27l1.89,3Z" transform="translate(-108.25 -125.88)"/><path id="Fill-40" class="cls-29" d="M1077.75,416.15a.85.85,0,1,1,1.69-.11l.28,4.14,2.42-1.4a.83.83,0,0,1,1.15.31.87.87,0,0,1-.31,1.17l-2.32,1.34,3.48,2a.86.86,0,0,1,.3,1.17.83.83,0,0,1-1.15.31l-1.79-1,1.87,3a.85.85,0,0,1-.27,1.17.84.84,0,0,1-1.16-.27l-1.89-3,.14,2.12a.84.84,0,0,1-.78.91.87.87,0,0,1-.91-.8l-.28-4.14-2.09,1.21a.84.84,0,0,1-1.16-.31.85.85,0,0,1,.32-1.16l2-1.16-3.47-2a.86.86,0,0,1-.31-1.17.84.84,0,0,1,1.16-.31l1.78,1-1.87-3a.87.87,0,0,1,.27-1.18.85.85,0,0,1,1.17.27l1.88,3Z" transform="translate(-108.25 -125.88)"/><path id="Fill-42" class="cls-29" d="M1095.15,426.13a.85.85,0,1,1,1.69-.11l.28,4.14,2.41-1.4a.84.84,0,0,1,1.16.31.86.86,0,0,1-.31,1.16l-2.32,1.35,3.47,2a.85.85,0,0,1-.85,1.48l-1.78-1,1.87,3a.85.85,0,0,1-.27,1.17.83.83,0,0,1-1.16-.27l-1.89-3,.14,2.12a.85.85,0,1,1-1.69.11l-.28-4.14-2.09,1.21a.84.84,0,0,1-1.16-.31.86.86,0,0,1,.31-1.16l2-1.16-3.47-2a.85.85,0,0,1-.31-1.17.84.84,0,0,1,1.16-.31l1.78,1-1.87-3a.86.86,0,0,1,.27-1.18.83.83,0,0,1,1.16.27l1.89,3Z" transform="translate(-108.25 -125.88)"/><path id="Fill-44" class="cls-29" d="M1112.55,436.11a.84.84,0,0,1,.78-.91.86.86,0,0,1,.91.79l.28,4.15,2.41-1.4a.84.84,0,0,1,1.16.31.85.85,0,0,1-.32,1.16l-2.31,1.35,3.47,2a.86.86,0,0,1,.31,1.17.85.85,0,0,1-1.16.31l-1.78-1,1.87,3a.86.86,0,0,1-.27,1.17.85.85,0,0,1-1.17-.27l-1.88-3L1115,447a.85.85,0,1,1-1.69.11L1113,443l-2.1,1.21a.83.83,0,0,1-1.15-.31.87.87,0,0,1,.31-1.17l2-1.15-3.48-2a.84.84,0,0,1-.3-1.16.83.83,0,0,1,1.15-.31l1.79,1-1.87-3a.86.86,0,0,1,.27-1.18.84.84,0,0,1,1.16.27l1.89,3Z" transform="translate(-108.25 -125.88)"/></g><g id="Group-2-Copy"><path id="Fill-18-2" data-name="Fill-18" class="cls-1" d="M1049.84,359.28c0-1.85,1.33-2.6,3-1.66,39.68,22.52,78.44,45.13,118.12,67.65a6.43,6.43,0,0,1,2.95,5l-1.95,17.46c0,1.85-1.34,2.6-3,1.67-39.69-22.52-78-45.45-117.72-68a6.41,6.41,0,0,1-2.94-5Z" transform="translate(-108.25 -125.88)"/><g id="Group-27-2" data-name="Group-27"><g class="cls-30"><path id="Fill-25-2" data-name="Fill-25" class="cls-31" d="M1150.34,427.12c.35,4.6,4.33,10.27,8.89,12.68h0c4.56,2.4,8,.63,7.62-4h0c-.35-4.6-4.33-10.28-8.88-12.68h0a8.19,8.19,0,0,0-3.75-1.07h0c-2.53,0-4.12,1.83-3.88,5" transform="translate(-108.25 -125.88)"/></g></g><polygon id="Fill-28-2" data-name="Fill-28" class="cls-1" points="1053.54 302.31 1054.67 302.88 1049.63 310.61 1045.19 303.96 1046.65 304.54 1049 306.79 1053.54 302.31"/><path id="Fill-38-2" data-name="Fill-38" class="cls-29" d="M1063.7,372.17a.85.85,0,1,1,1.69-.11l.28,4.14,2.42-1.4a.84.84,0,0,1,1.15.31.87.87,0,0,1-.31,1.17l-2.32,1.34,3.47,2a.85.85,0,0,1,.31,1.17.83.83,0,0,1-1.15.31l-1.79-1,1.87,3a.85.85,0,0,1-1.43.91l-1.89-3,.14,2.12a.85.85,0,1,1-1.69.11l-.28-4.14-2.09,1.21a.84.84,0,0,1-1.16-.31.85.85,0,0,1,.32-1.16l2-1.16-3.47-2a.86.86,0,0,1-.31-1.17.84.84,0,0,1,1.16-.31l1.78,1-1.87-3a.85.85,0,0,1,1.44-.91l1.88,3Z" transform="translate(-108.25 -125.88)"/><path id="Fill-40-2" data-name="Fill-40" class="cls-29" d="M1081.5,382.43a.84.84,0,0,1,.78-.91.86.86,0,0,1,.91.8l.28,4.14,2.41-1.4a.85.85,0,1,1,.84,1.48l-2.31,1.34,3.47,2a.86.86,0,0,1,.31,1.17.84.84,0,0,1-1.16.31l-1.78-1,1.87,3a.85.85,0,0,1-.27,1.17.84.84,0,0,1-1.17-.26l-1.88-3,.14,2.11a.85.85,0,1,1-1.69.11l-.28-4.14-2.1,1.22a.84.84,0,0,1-1.15-.32A.86.86,0,0,1,1079,389l2-1.16-3.48-2a.86.86,0,0,1-.3-1.17.84.84,0,0,1,1.15-.31l1.79,1-1.87-3a.84.84,0,1,1,1.43-.9l1.89,3Z" transform="translate(-108.25 -125.88)"/><path id="Fill-42-2" data-name="Fill-42" class="cls-29" d="M1098.89,392.41a.85.85,0,1,1,1.69-.11l.29,4.14,2.41-1.4a.85.85,0,0,1,.84,1.48l-2.31,1.34,3.47,2a.87.87,0,0,1,.31,1.17.84.84,0,0,1-1.16.31l-1.78-1,1.86,3a.87.87,0,0,1-.26,1.18.85.85,0,0,1-1.17-.27l-1.89-3,.15,2.11a.85.85,0,1,1-1.69.11l-.29-4.14-2.09,1.22a.84.84,0,0,1-1.15-.32.86.86,0,0,1,.31-1.16l2-1.16-3.47-2a.86.86,0,0,1-.3-1.17.83.83,0,0,1,1.15-.31l1.78,1-1.86-3a.84.84,0,1,1,1.43-.9l1.89,3Z" transform="translate(-108.25 -125.88)"/><path id="Fill-44-2" data-name="Fill-44" class="cls-29" d="M1116.29,402.39a.85.85,0,1,1,1.69-.11l.29,4.14,2.41-1.4a.85.85,0,0,1,1.15.31.87.87,0,0,1-.31,1.17l-2.31,1.34,3.47,2A.87.87,0,0,1,1123,411a.84.84,0,0,1-1.16.31l-1.78-1,1.86,3a.85.85,0,0,1-.26,1.17.83.83,0,0,1-1.17-.26l-1.89-3,.15,2.11a.86.86,0,0,1-.79.91.84.84,0,0,1-.9-.8l-.29-4.14-2.09,1.22a.85.85,0,0,1-.84-1.48l2-1.16-3.47-2a.87.87,0,0,1-.31-1.17.84.84,0,0,1,1.16-.31l1.78,1-1.86-3a.85.85,0,0,1,1.43-.91l1.89,3Z" transform="translate(-108.25 -125.88)"/></g></g></g><g id="card4-2" data-name="card4"><g id="checkbox"><path id="Path-34" data-name="Path" class="cls-32" d="M601.15,258.11c-19-15-30.37-46.31-25.39-69.84s24.42-30.41,43.44-15.36,30.38,46.33,25.4,69.84S620.16,273.16,601.15,258.11Z" transform="translate(-108.25 -125.88)"/><path id="Path-35" data-name="Path" class="cls-9" d="M581.38,170.94c3.48-3.64,12.23-5.72,17.13-6,5.72-.31,12.1,2,18.42,7.23,16.61,13.69,26.55,42.15,22.19,63.59-1.29,6.36-3.62,11.44-6.87,14.94-3,3.26-12.82,7.38-17.34,7.74C587.84,262.23,571.14,181.63,581.38,170.94Z" transform="translate(-108.25 -125.88)"/><path id="Path-36" data-name="Path" class="cls-33" d="M593.92,251.35c-16.51-13.66-26.39-42-22.06-63.37s21.22-27.59,37.73-13.94,26.36,42,22,63.4S610.42,265,593.92,251.35Z" transform="translate(-108.25 -125.88)"/><polygon id="Path-37" data-name="Path" class="cls-1" points="510.52 74.64 515.04 77.79 482.36 108.35 470.08 76.88 476.11 80.25 484.15 91.39 510.52 74.64"/></g></g><g id="folder"><g id="Doc"><path id="Path-38" data-name="Path" class="cls-34" d="M1004.78,461.91l99.91,56.29-17.5,81.72c-4.74,16.87-11.21,20.34-25,12.33L996,573.68a13.12,13.12,0,0,1-6.42-12.89Z" transform="translate(-108.25 -125.88)"/><g id="Group-3"><g class="cls-35"><path id="Fill-1" class="cls-36" d="M1006.51,444.59h0l0,0h0l0,0,0,0h0l0,0h0l0,0h0l0,0,0,0h0l0,0h0l0,0,0,0h0l0,0,0,0v0l0,0,0,0h0l0,0,0,0,0,0h0l0,0h0l0,0v0l0,0,0,0h0l0,0v0l0,0,0,0h0l0,0h0l0,0,0,0v0l0,0,0,0v0l0,0,0,0h0l0,.05h0l0,0v0h0l0,.05h0l0,0v.08h0l0,.05h0v.06h0l0,0h0v.16h0v.06h0v0h0v.06h0v0h0v.1h0v0h0v0h0v0h0v0h0v0L983.59,549l92.78,53.82c8.92-30.09,21.26-106.14,24.3-104.48h0l-92.77-53.83a1.88,1.88,0,0,0-.66-.13h0a1.4,1.4,0,0,0-.73.2" transform="translate(-108.25 -125.88)"/></g></g><g id="Group-15"><path id="Fill-4-2" data-name="Fill-4" class="cls-37" d="M1005.72,446.06c39.25,44.83,86.08,72.52,81.5,111.43l-9.74,45.34L984,548.7Z" transform="translate(-108.25 -125.88)"/><polygon id="Fill-6" class="cls-38" points="967.94 362.42 965.83 466.52 867.8 410.13 868.1 306.93 967.94 362.42"/><polygon id="Fill-8" class="cls-39" points="966.12 363.33 968.16 362.14 967.87 465.34 965.83 466.52 966.12 363.33"/><g id="Group-12"><g class="cls-40"><polygon id="Fill-10-2" data-name="Fill-10" class="cls-41" points="868.1 306.93 870.15 305.74 968.16 362.14 966.12 363.33 868.1 306.93"/></g></g><path id="Fill-13" class="cls-39" d="M1070.66,559.39l-90.73-52.2v6.5l90.72,52.21Zm0-10.69L980,496.5l0,6.5,90.73,52.21Zm0-10.69L980,485.8l0,6.51,90.73,52.21Zm0-10.69L980,475.12l0,6.5,90.73,52.21Zm0-10.69-90.73-52.2v6.51l90.72,52.2Zm0-10.69-90.72-52.2,0,6.5,90.72,52.2Zm0-10.69v6.51l-90.73-52.2,0-6.51Zm-.2,74.83,0,6.51-90.72-52.21,0-6.51Z" transform="translate(-108.25 -125.88)"/></g><g id="Group-18"><g class="cls-42"><path id="Fill-16" class="cls-43" d="M954.87,459.85l4.18,14.59h0l22.28,77.83a3.68,3.68,0,0,0,1.38,2.48h0l93.45,54a9.67,9.67,0,0,1-1.37-2.48h0l-22.28-77.83-47.28-27.67a16.63,16.63,0,0,1-4.79-3.81h0c-9.7-10.21-9.92-16.37-16.32-21.35h0c-3.82-2.23-24.54-14.83-28.42-18.34h0a3.79,3.79,0,0,0-.81,2.64" transform="translate(-108.25 -125.88)"/></g></g><g id="Group-24"><g id="Group-21"><g class="cls-44"><path id="Fill-19" class="cls-37" d="M1053.09,525.4a2.72,2.72,0,0,1,.46-.34c.72-.42,1.38-.24,1.59.49l21.95,77.71,21.57-103a3.67,3.67,0,0,1,1.58-2.32,1.73,1.73,0,0,1,.45-.19c.89-.24,1.41.52,1.16,1.67l-21.7,103.68a15.65,15.65,0,0,1-1.32,4,4.7,4.7,0,0,1-1.75,2,1.52,1.52,0,0,1-1.72,0,4.69,4.69,0,0,1-1.26-2.42l-22.16-78.36a3.46,3.46,0,0,1,1.15-3" transform="translate(-108.25 -125.88)"/></g></g><path id="Fill-22" class="cls-45" d="M1007.84,497.56,1054.71,525c-1.22-.6-3.09,2.15-2.77,3.47l-47.34-27.67a28.21,28.21,0,0,1-4-2.57c-6.73-5.34-9.91-12.66-14.3-18.59a19.13,19.13,0,0,0-3.77-3.84l-1.58-.87-26.13-15.47a3.74,3.74,0,0,1,.81-2.63c.49-.53,1.26-1.19,2-.81l26.17,15.49c-.21-.1.41.24,1.58.88a18.8,18.8,0,0,1,3.77,3.83c4.65,6.27,8,13.32,15.53,19.3a24.46,24.46,0,0,0,3.14,2.09" transform="translate(-108.25 -125.88)"/></g></g></g><g id="woman"><g id="woman-2" data-name="woman"><path id="Path-39" data-name="Path" class="cls-3" d="M895.28,909.75l-98.11-55.89c-10.69-4.89-26-8.78-36.9-3.1-9.93,5.16-26.28,15.74-33.51,19.86-5.5,3.14-24.57,14.56-12.69,21,34.94,19,69.51,40.39,105,59.66,6.71,3.65,16.52,5,26.83,4.11s20.78-3.84,29.06-8.65q8.85-5.14,17.39-10.13c7.7-4.47,11.78-9.77,12.18-14.67S901.85,912.74,895.28,909.75Z" transform="translate(-108.25 -125.88)"/><path id="Path-40" data-name="Path" class="cls-46" d="M771.42,841.46a28.68,28.68,0,0,1-1.66,4c-1.18,1.28-2.64,2-3.32,3.51-3.68,7.82-4.49,15.35-1.93,55.47l9.41.2,1.2-14.17c1.16-5.74,4.39-14.16,5.7-19.37,2.79-11.14,3.1-16.82,4.77-25l.09,0c10.32-31.46,21-62.4,29.55-94.06l29.39-85.25.94-22.87c.15-3.69-1.82-6.4-3-9.29-15.12,4.44-23.59,9.23-39.85,8.68-4.88,7.25-11.57,20.83-11.82,31.09-.48,20,1.11,33.32-5,66.73C767.76,802.12,778.29,801.07,771.42,841.46Z" transform="translate(-108.25 -125.88)"/><path id="Path-41" data-name="Path" class="cls-47" d="M754.26,876.21c-1-.14-3-.22-3.2-.47-.48-.55-1.4-3.2-.73-3.7C751.52,871.26,753.94,875.44,754.26,876.21Z" transform="translate(-108.25 -125.88)"/><path id="Path-42" data-name="Path" class="cls-48" d="M759.51,860.17c1.11,3.58-.47,7-1.6,10.77-3.94,13-6.25,13.73-4.58,19.62a26.31,26.31,0,0,0,5.76,10.33c2.55,2.9,3.32,5,6.59,7.26,4.94,3.4,9.33,5,8.26-1.84a34,34,0,0,0-1.61-6.35c-3.5-8.11-7.57-11.67-5.36-21.81,1.66-7.52,4.24-12.48.85-17.55Z" transform="translate(-108.25 -125.88)"/><path id="Path-43" data-name="Path" class="cls-49" d="M760.27,852.06c-1.48,6.79-3.69,12.49-10,20,.78-.21,2.79,1.84,3.9,4.11,8.14-9.35,12.1-13.9,14.6-9.87a127.5,127.5,0,0,1-2.52,14.27c-.34,1.57-.72,5,.28,7.42,3.19,7.68,9.06,18.88,6.82,22.55.79-1,1.66-3.69,1.66-7.33,0-5.3-.91-12.47-1-16.88-.15-6,2.1-11.13,2.46-19.24a64.27,64.27,0,0,0,0-6.8c-.33-5.74-1-13.35-5-15.49-1.43-.76-5.17-.21-7.1.77C761.67,846.94,760.84,849.44,760.27,852.06Z" transform="translate(-108.25 -125.88)"/><path id="Path-44" data-name="Path" class="cls-50" d="M827.05,862.25c-.73,6.06-6.26,11.85-6.93,15.8-1.63,9.51,5.27,4.56,13.07,16.79,3.12,0,10,11.24,19.32,11.83,2.14.14,6-5,1.73-8.72-1.88-1.11-3.56-.28-5.11-1.66-3-2.68-6.57-23.52-6.37-31.65,8.44-44.82,13.78-87.54,22.21-131.39,4.23-22,5-35.66,3.61-51.89-.55-9.29.42-13.83-2.64-22.86a55.11,55.11,0,0,0-4.43-9.29c-14.44,4.46-25.21,8.85-41.57,8.26-3.74,7.26-7,17-5.64,27.23,2.65,20,12.66,34.53,14.87,68.8-10.78,37.7.42,67.78-2.13,108.5a2,2,0,0,0,0,.25Z" transform="translate(-108.25 -125.88)"/><path id="Path-45" data-name="Path" class="cls-51" d="M857.8,774c2.21-13.54,4.54-27.12,7.19-40.76,4.24-22,5-35.66,3.62-51.89-.56-9.29.42-13.83-2.64-22.86-.42-1.22-3.06-6.37-2.83-7.06-4.57-10.08-5.2-39.73-5.17-40,2.15-15.71,10.69-21.23,6.09-34.66-3.37-4.63-12.48-12-21.95-17.22-13.32-7.3-28.22-11.88-36.19-12.78-16.91-1.91-16.95,26-11.07,39.09,11.73,26.16,12.58,39.54,6.58,59.42-4.68,7.57-10.28,19.7-10.51,29.08-.48,20,1.11,33.32-5,66.73-2.81,9.46-4.93,17.43-6.54,24.3C791.68,787.93,832.19,785.93,857.8,774Z" transform="translate(-108.25 -125.88)"/><path id="Path-46" data-name="Path" class="cls-49" d="M823.57,870.74c7.57.93,14.63,19.4,20.47,27.42,2.84,3.87,8.85-.12,6.42-1.17,1.24.09,5.82-.45,9.19.09,4.75.76,3.09,5.53-.14,7.75-7.19,5-13.55,7.74-20.06,4.46a31.38,31.38,0,0,1-4-2.65,19,19,0,0,1-2.66-2.16c-2.11-2.53-2.91-6.59-4.84-10.05-.64-1.14-1.16-1.39-1.57-1.08-.79,1.11,0,17.71.42,21-.21,1-3.45,1.7-4.1,1l-6-29.5a10.51,10.51,0,0,1,.78-7.55C819.31,874.87,822.77,872.19,823.57,870.74Z" transform="translate(-108.25 -125.88)"/><path id="Path-47" data-name="Path" class="cls-48" d="M843.31,910.58a13.78,13.78,0,0,1-3.87-1.29,31.38,31.38,0,0,1-4-2.65,19,19,0,0,1-2.66-2.16c-2.28-2.73-3.4-7.81-5.93-11.3.85-.52,3-.46,5.27,3.19,3.32,6.12,5.61,10.62,10,13.59A7.37,7.37,0,0,0,843.31,910.58Z" transform="translate(-108.25 -125.88)"/><path id="Path-48" data-name="Path" class="cls-52" d="M790,594.07l28.84,6.59c5.79,2.59,1.4,14.87-4.32,16.31l-40.25-5.19c-10.28-2.19-12.49-8.95-10.28-14.22a1.87,1.87,0,0,1,.15-.32c.7-3.27,21.2-32.75,24.16-36.75a43.65,43.65,0,0,1,10.19-10.21,11.18,11.18,0,0,1,11.11.31c4.15,2.55,5.53,6.77,3.92,10.64C810.52,568.31,799.31,582.18,790,594.07Z" transform="translate(-108.25 -125.88)"/><path id="Path-49" data-name="Path" class="cls-53" d="M805.9,546.82a10.89,10.89,0,0,0-11.26,5.59q-.14.23-.27.48l-.12.22-.2.39-.07.13-.25.55-.08.19-.21.48,0,.09c-.08.2-.16.4-.23.6l-.06.16-.17.48-.05.16-.2.61,0,.16-.15.51,0,.16c-.06.22-.12.44-.17.67h0c0,.22-.11.44-.15.65l0,.18c-.05.2-.09.41-.13.62V560l-.11.67,0,.22-.1.61v.06l-.09.68v.25l-.06.56v.18l-.07.72v.13l0,.55v.26l0,.67v2.6c0,.55,0,1.07.05,1.6v.12l0,.67v.17l0,.77v0l.06.67v.2l.07.71v.19l.08.65V574l.1.76v.13l.1.65v.15l.11.71v.13l.12.64v.13c.09.48.19,1,.3,1.43l0,.19.14.6v.1l.18.71v.07c.12.46.26.92.39,1.38l0,.17.16.5.06.18.19.55,0,.16.19.51,0,.11c.08.21.16.42.23.62v0l.21.55.07.15.24.56c11.73,26.16,12.58,39.54,6.58,59.42-4.68,7.57-10.28,19.7-10.51,29.08-.48,20,1.11,33.32-5,66.73-2.82,9.46-4.93,17.43-6.54,24.3,5.68,10.35,17.31,15.49,30.72,16.91,55.25-60.7-22.71-82.48,6.93-138.14,3.38-6.35,24.12-14.42,29.32-22.27,11.12-13,15.5-25.91-1.27-46.67-2.76-3.45-4.86-5.25-8.6-10.45-6.08,1.44-17.45-.55-18.81-3.07-.48-.87,1.93-8.49,1.54-9.41C808.7,547.72,812,547.52,805.9,546.82Z" transform="translate(-108.25 -125.88)"/><path id="Path-50" data-name="Path" class="cls-54" d="M811.32,554.51c-1.31,5.53,19,11.55,25.91,8.53l.15-1.34c1.79-8.3,3.55-15.32,4.79-21.14,3.23,1.37,11.16,1.77,11.86.67-21.38-17.07-46.37-29.7-49.59-21.07,2.12,6.24,7.59,10.67,10.33,14.74a12.88,12.88,0,0,1,1.43,5.59h0C815.4,544.89,813.74,549.11,811.32,554.51Z" transform="translate(-108.25 -125.88)"/><path id="Path-51" data-name="Path" class="cls-55" d="M853.91,541.33c-1.84,1.2-14.94-3.16-16-3.1-10.19.5-21.14-.33-23.16-3.32-2.74-4.07-8.21-8.51-10.33-14.75-3.38-10-2.72-21.24,6.41-29.07,15.86-13.62,40.74-3.64,44.31,11.79,1.46,6.33-.35,6.86,0,11.09.55,7.81,1.43,4.87.72,17.23C855.55,535.9,855.13,540.53,853.91,541.33Z" transform="translate(-108.25 -125.88)"/><path id="Path-52" data-name="Path" class="cls-56" d="M814.25,547.07c.55,5,14.78,8.61,23.4,6.61.93-.22,1.5-.4,1.84-1,1.26.69,4.72,5.68,5.11,8.16-7.46,7.2-31,3-33.88-5.44C810,553.4,809.41,549.61,814.25,547.07Z" transform="translate(-108.25 -125.88)"/></g></g><g id="woman_hand" data-name="woman hand"><path id="Path-53" data-name="Path" class="cls-57" d="M915.35,582.16C922.25,578,931.57,570,938,569.1c4-2.05,10-5.41,13.84-7.43,2.8-1.47,4,3.36,1.58,5s-8.7,5.44-8.73,5.45l-.27.11a13.38,13.38,0,0,1,1.39,8.65c-.61,3.32-8,7.6-12.61,10.69-4.11,2.77-9,.68-11.81,2.85C916.66,592.2,915.9,586.7,915.35,582.16Z" transform="translate(-108.25 -125.88)"/><path id="Path-54" data-name="Path" class="cls-58" d="M883.34,601.45c7.67-6.18,17.26-11.54,25-16.37,1.24-.78,3.12-.75,4.1-1.34,1.21-.73,2.21-1.3,2.89-1.66,2.76,1.51,6.19,7.14,7.71,11.57-1,.89-2.06,1.83-3.09,2.8-.8.76-1.63,3.36-2.43,4.16-8.63,8.59-14.48,16.23-22.9,22.09-1.21.84-6.24,5.22-9.35,6.79-3.83,1.93-9.29,0-11.86-3.88-2.21-2-4.2-4.19-5.47-5.37-5.71-5.34-19.91-17.48-27.71-27.91-5.71-7.66-4.76-11.87-2.51-15.86,5.22-9.28,13.11-15.23,21.83-6.81,4.15,4,6.93,10.69,10.49,15.31C874.05,590.11,879,595.81,883.34,601.45Z" transform="translate(-108.25 -125.88)"/></g><g id="hair"><path id="Path-55" data-name="Path" class="cls-59" d="M775,530.32c-13.57,11.34-21.2,31.77-15,43.35,5.59,10.52,19.23,16.68,15,23.33-3.47,5.5-11.62,11-1.92,19.87,5,4.57,17.22,16.83,42.15,10.48,24.31-6.19,49.8-27.18,29.32-50.14-21.54-24.16-8.94-29.5,3.42-48.49,6.54-10.05,12.38-29.88,6.78-37.28-9.6-12.67-16-3.54-25.22-8-17.62-8.53-32.09-2.43-40.36,10.91C781.73,506.28,785.76,521.3,775,530.32Z" transform="translate(-108.25 -125.88)"/></g><g id="path-56" data-name="path"><path class="cls-60" d="M365.55,390.41c0-4-2.84-5.68-6.34-3.66a14,14,0,0,0-6.33,11c0,3.28,1.87,4.93,4.44,4.39-3.57,74.71-55.87,162.77-119.68,199.6C205.94,620,176.22,623,154,610.17c-21-12.14-33.12-37.12-34.4-70.7a14.17,14.17,0,0,0,4.53-9.58c0-4-2.84-5.68-6.34-3.66a14,14,0,0,0-6.33,11c0,3.45,2.07,5.13,4.85,4.29,1.71,33.83,14.34,59.09,36,71.6a63.73,63.73,0,0,0,32.29,8.3c16.83,0,35.47-5.62,54.76-16.76C304.6,567,358,476.42,360.77,400.24A14.21,14.21,0,0,0,365.55,390.41Z" transform="translate(-108.25 -125.88)"/><path class="cls-60" d="M359.21,526.47a14.17,14.17,0,0,0-6.08,8.88L123.77,667.77c-.82-2.48-3.18-3.26-6-1.63a14,14,0,0,0-6.33,11c0,4,2.83,5.68,6.33,3.66a14.15,14.15,0,0,0,6.15-9.19L353.13,539.24c.75,2.66,3.17,3.54,6.08,1.86a14,14,0,0,0,6.34-11C365.55,526.09,362.71,524.45,359.21,526.47Z" transform="translate(-108.25 -125.88)"/><path class="cls-60" d="M126.61,533.44a9,9,0,1,1-9-9A9,9,0,0,1,126.61,533.44Z" transform="translate(-108.25 -125.88)"/><path class="cls-60" d="M126.14,671.76a9,9,0,1,1-7.36-7.36A9,9,0,0,1,126.14,671.76Z" transform="translate(-108.25 -125.88)"/><path class="cls-60" d="M368.73,534a9,9,0,1,1-9-9A9,9,0,0,1,368.73,534Z" transform="translate(-108.25 -125.88)"/><path class="cls-60" d="M367.9,393.88a9,9,0,1,1-9-9A9,9,0,0,1,367.9,393.88Z" transform="translate(-108.25 -125.88)"/><path class="cls-60" d="M235.47,592.36l9.78-5.77a2.77,2.77,0,0,1,2.48,0l6.82,3.95a2.73,2.73,0,0,1,1.24,2.14v13.25a2.73,2.73,0,0,1-1.24,2.14l-9.78,5.77a2.77,2.77,0,0,1-2.48,0l-6.82-3.94a2.77,2.77,0,0,1-1.24-2.15V594.51A2.77,2.77,0,0,1,235.47,592.36Z" transform="translate(-108.25 -125.88)"/><path class="cls-61" d="M255.78,592.48c-.09-.64-.61-.87-1.23-.51l-9.78,5.76a2.45,2.45,0,0,0-.87.93l-9.31-5.37a2.63,2.63,0,0,1,.88-.93l9.78-5.77a2.77,2.77,0,0,1,2.48,0l6.82,3.95A2.76,2.76,0,0,1,255.78,592.48Z" transform="translate(-108.25 -125.88)"/><path class="cls-62" d="M244.57,613.94h0l-.07,0-.08,0-.12,0-.15,0-.1,0-.22,0a2.63,2.63,0,0,1-1.51-.28l-6.82-3.94a2.73,2.73,0,0,1-1.24-2.14V594.51a2.56,2.56,0,0,1,.36-1.22l9.31,5.37a2.47,2.47,0,0,0-.37,1.22v13.24c0,.56.28.89.69.89a.52.52,0,0,0,.17,0Z" transform="translate(-108.25 -125.88)"/></g><g id="pentool"><path class="cls-63" d="M222.06,361.69c-5.89,3.4-10.69,12.55-10.69,20.41,0,7,3.82,10.64,8.81,8.93V539.77L166,426a9.5,9.5,0,0,1-.11-6.94c13.68-31.67,23.79-67.36,27.23-104a8.25,8.25,0,0,1,3.64-5.71l50.64-29.24c1.83-1.06,3.46-.21,3.68,1.89,3.4,31.67,13.1,55.18,26.24,71a7.78,7.78,0,0,1,1.38,6.52c-7.61,24.77-51.53,167.62-54.74,178V388.86c5-4.07,8.81-12.09,8.81-19.1C232.75,361.89,228,358.28,222.06,361.69Z" transform="translate(-108.25 -125.88)"/><path class="cls-63" d="M303.49,373.89l-54.74,178L245,549.75v4.34l-24.83-14.32L166,426a9.5,9.5,0,0,1-.11-6.94c13.68-31.67,23.79-67.36,27.23-104a8.25,8.25,0,0,1,3.64-5.71l50.64-29.24a7.27,7.27,0,0,1,6.61,0l18.2,10.5a8.38,8.38,0,0,1,3.68,5.71c3.4,31.68,13.1,55.19,26.24,71A7.76,7.76,0,0,1,303.49,373.89Z" transform="translate(-108.25 -125.88)"/><path class="cls-62" d="M257.56,384.09c0,7-3.8,15-8.81,19.1V551.92L245,549.75V405.35c-5,1.71-8.81-1.9-8.81-8.91,0-7.88,4.78-17,10.69-20.43S257.56,376.22,257.56,384.09Z" transform="translate(-108.25 -125.88)"/><path class="cls-63" d="M303.49,373.89l-54.74,178V403.19c5-4.07,8.81-12.08,8.81-19.1,0-7.87-4.78-11.49-10.67-8.08s-10.69,12.55-10.69,20.43c0,7,3.8,10.62,8.81,8.91V554.09L190.79,440.36a9.5,9.5,0,0,1-.11-6.94c13.69-31.68,23.8-67.36,27.25-104a8.21,8.21,0,0,1,3.64-5.71l50.62-29.24c1.83-1.05,3.46-.21,3.68,1.89,3.4,31.68,13.1,55.19,26.24,71A7.76,7.76,0,0,1,303.49,373.89Z" transform="translate(-108.25 -125.88)"/><path class="cls-64" d="M219,326.51a7.28,7.28,0,0,0-1,2.92c-3.43,36.62-13.55,72.31-27.25,104a9.19,9.19,0,0,0-.58,3.8L165.28,422.9a9.28,9.28,0,0,1,.58-3.82c13.7-31.68,23.8-67.36,27.24-104a7.24,7.24,0,0,1,1-2.94Z" transform="translate(-108.25 -125.88)"/><path class="cls-62" d="M275.77,295.84c-.41-1.71-1.92-2.32-3.57-1.36l-50.64,29.24a7.58,7.58,0,0,0-2.61,2.79l-24.81-14.34a7.72,7.72,0,0,1,2.59-2.77l50.65-29.24a7.29,7.29,0,0,1,6.62,0l18.19,10.5A8.33,8.33,0,0,1,275.77,295.84Z" transform="translate(-108.25 -125.88)"/><path class="cls-63" d="M182,264l80.21-46.32a7.33,7.33,0,0,1,6.61,0L287,228.18a7.31,7.31,0,0,1,3.31,5.73v35.34A7.28,7.28,0,0,1,287,275l-80.2,46.32a7.29,7.29,0,0,1-6.62,0L182,310.78a7.31,7.31,0,0,1-3.3-5.73V269.72A7.31,7.31,0,0,1,182,264Z" transform="translate(-108.25 -125.88)"/><path class="cls-65" d="M290.26,233.38C290,231.67,288.64,231,287,232l-80.2,46.31a6.72,6.72,0,0,0-2.34,2.47l-24.82-14.32A6.75,6.75,0,0,1,182,264l80.2-46.32a7.27,7.27,0,0,1,6.61,0L287,228.19A7.34,7.34,0,0,1,290.26,233.38Z" transform="translate(-108.25 -125.88)"/><path class="cls-62" d="M206.24,321.55l-.07,0a1,1,0,0,1-.2.06.78.78,0,0,1-.21.09,1,1,0,0,1-.32.09l-.4.1-.28,0-.56.08a6.93,6.93,0,0,1-4-.75L182,310.79a7.31,7.31,0,0,1-3.31-5.73V269.72a6.73,6.73,0,0,1,1-3.26l24.82,14.32a6.64,6.64,0,0,0-1,3.26v35.34c0,1.5.74,2.37,1.83,2.37a2,2,0,0,0,.47-.06A3.1,3.1,0,0,0,206.24,321.55Z" transform="translate(-108.25 -125.88)"/><path class="cls-62" d="M245,554.09l-24.83-14.32L166,426a8.62,8.62,0,0,1-.7-3.13l24.81,14.32a8.47,8.47,0,0,0,.7,3.14Z" transform="translate(-108.25 -125.88)"/><path class="cls-62" d="M248.75,403.19V551.92L245,549.75V405.35c-5,1.71-8.82-1.9-8.82-8.91a3.85,3.85,0,0,1,0-.48Z" transform="translate(-108.25 -125.88)"/></g><g id="man"><g id="Man-2" data-name="Man"><path id="Path-57" data-name="Path" class="cls-3" d="M324.58,917.16l112-63.78c12.2-5.58,29.67-10,42.11-3.55,11.33,5.9,30,18,38.26,22.69,6.27,3.57,28,16.6,14.48,24-39.88,21.68-79.34,46.07-119.84,68.09-7.66,4.17-18.86,5.68-30.62,4.7s-23.72-4.39-33.17-9.88l-19.85-11.57c-8.79-5.12-13.44-11.17-13.91-16.76S317.09,920.58,324.58,917.16Z" transform="translate(-108.25 -125.88)"/><path id="Path-58" data-name="Path" class="cls-1" d="M370.07,912.92c2.54-.06,11.07-8.1,19.2-4,9.73,4.87,28.22.55,37.54,2.8,1.66.4,4.9-.83,5.53.31,2,3.58,4,8.92-1,12.41-3.63,2.58-11.42,6-16.52,7.79-5.42,1.92-14.69,4.95-20.91,5.92-6.89,1.07-10,1.52-12.6,3.51-3.69,1.85-7.49,2.65-9.61,2.31-4.55-.72-9.84-3.38-12.26-8.55-.78-1.66-.8-8.86.09-13.58.71-3.69,2.73-7.9,4.34-11.84Z" transform="translate(-108.25 -125.88)"/><path id="Path-59" data-name="Path" class="cls-66" d="M390,895.62c-3.08,7.39-2.13,18.81-9.41,22.8-4.87,2.65-12.52,2.68-15.84-4.9-1.86-4.23.61-11.45.06-20.73Z" transform="translate(-108.25 -125.88)"/><path id="Path-60" data-name="Path" class="cls-67" d="M392,907.07c5.59,1.63,21,.55,30.78,1.33,4.2.34,8,.31,9.92,4.11,1.8,3.51.86,6.51-3.23,9.41a67.94,67.94,0,0,1-14.94,7.32c-5.41,1.92-14.69,4.94-20.9,5.92-6.88,1.07-10,1.51-12.6,3.5-3.68,1.86-7.49,2.65-9.62,2.32a17,17,0,0,1-12.25-9.1c-.78-1.66-.8-8.34.1-13a23.93,23.93,0,0,1,.71-2.77c.77-7.34,3.19-10.31,5.48-9.05,3.13,1.72,4.31,4.82,5.5,7.36a7.21,7.21,0,0,0,4.25,4.06c3.74,1.17,7.16-.91,9.37-4.12a26.14,26.14,0,0,0,2.57-7.44v-.75c.73-6.42,3.87-5.86,3.39-4.5S390.31,905.76,392,907.07Z" transform="translate(-108.25 -125.88)"/><path id="Path-61" data-name="Path" class="cls-1" d="M430.76,911.43c-.08,2.49,3.73,2.72,2.63,7.08,1.83-1.79-.72-6.94-1.85-7.74C431.07,910.47,430.68,910.34,430.76,911.43Z" transform="translate(-108.25 -125.88)"/><path id="Path-62" data-name="Path" class="cls-1" d="M433.67,887.47c2.37-.92,7.64-11.42,16.64-10.4,3.63.42,9.47-.55,15.4-2.21,9.46-2.69,22.63-11.14,24.87-9.76,4.9,3,5.29,8.52,1.86,13.49a69,69,0,0,1-11.49,12c-4.42,3.66-10.7,9.27-16.2,12.32-5.2,2.89-6.93,2.63-10.63,7.63-2.79,3-6.11,4.79-8.23,5.21-5.41,1-13.28-2.42-16.08-6-1.8-5.82-4.91-11.32-2.92-20Z" transform="translate(-108.25 -125.88)"/><path id="Path-63" data-name="Path" class="cls-66" d="M446.16,862.7c-.14,8,4.94,18.3-.38,24.68-3.56,4.26-10.66,7.08-16.54,1.26-3.28-3.24-3.64-10.87-7.56-19.3Z" transform="translate(-108.25 -125.88)"/><path id="Path-64" data-name="Path" class="cls-67" d="M463.29,872.46c.55-.13,1.07-.28,1.61-.44,9.46-2.68,22.09-9.19,24.35-7.81,4.9,3,5.82,6.57,2.39,11.55a70,70,0,0,1-11.49,12c-4.42,3.67-10.7,9.27-16.21,12.33-5.19,2.88-6.92,2.62-10.62,7.63-2.82,3-6.12,4.79-8.23,5.2-5.4,1.06-13.49-2.44-16.31-6.08-1.34-4.33-3.17-8.45-3.32-13.89-.79-7.12-.3-10.74,2.8-10.65,5.76.16,8.13,3.2,10.51,4.68,5.13,3.2,8.56-.93,9.41-6a30,30,0,0,0-.47-6.75c-.08-.24-.17-.47-.27-.7-1.66-6.24,1.43-6.86,1.49-5.44a5.37,5.37,0,0,0,4.76,5.46C456.8,874,460.74,872.68,463.29,872.46Z" transform="translate(-108.25 -125.88)"/><path id="Path-65" data-name="Path" class="cls-1" d="M488.66,865c1,2.26,4.53.84,5.42,5.25.87-2.41-3.65-6-5-6.17C488.52,864,488.11,864.05,488.66,865Z" transform="translate(-108.25 -125.88)"/><path id="Path-66" data-name="Path" class="cls-68" d="M338.79,583c18.81,21.81,19.08,23.51,55.81,45.09l7-13.75c-12.33-25.24-16-28.6-32-48.25,14.55-10.07,30.18-25.46,37.63-35.42,23.94-32,10.65-54.18-10.05-49.68-18,3.94-46.19,50.66-61.5,77C329.27,569,327.72,570.21,338.79,583Z" transform="translate(-108.25 -125.88)"/><path id="Path-67" data-name="Path" class="cls-69" d="M375.76,561.58c12.6-9.75,25-22.31,31.45-30.85,24-32,10-53.55-10.73-49.05C385.68,485,366.42,507.82,375.76,561.58Z" transform="translate(-108.25 -125.88)"/><path id="Path-68" data-name="Path" class="cls-70" d="M440.72,646.48c2.07,23.2,13.69,97.29,10.46,117.63-4.86,30.58-3.48,67.54-3.42,100-.82,13.64-19.58,20.77-25,12.09-4.38-29-10.62-54.41-13.15-70.53-2.84-18-1.9-40,2.68-51.84-1.88-13-10.71-46.39-18.1-69.56-2.66-8.36-17.75-35.38-2.13-62.22Z" transform="translate(-108.25 -125.88)"/><path id="Path-69" data-name="Path" class="cls-71" d="M448.06,855.4c0,2.41-.07,6.09-.07,8.44-.82,13.64-19.81,21-25.27,12.36-.32-2.13-.79-4.25-1.1-6.35C428.94,877.76,443.32,867.49,448.06,855.4Z" transform="translate(-108.25 -125.88)"/><path id="Path-70" data-name="Path" class="cls-72" d="M451.68,750.31C445.56,781,428.27,822,418.83,852.79c-4.92-26.42-17.22-71.42-6.58-99-1.07-7.38-4.4-21.4-8.43-36.39,8.18-15.49.37-27.89,4.23-49.75,21.67-3.77-11-30.22,34.82-2.37C447,698.23,450.82,718.93,451.68,750.31Z" transform="translate(-108.25 -125.88)"/><path id="Path-71" data-name="Path" class="cls-73" d="M439.22,779.39c-12.5,28.3-35.57,83.82-47.83,118.54-6.35,9.23-29,8.27-28.93-.33,5-29,10.87-73.82,21.29-99.29,3.19-7.79,14.94-26.56,19.2-32.1,3.32-12.81,7.43-47.43,10.63-66.16-2.87-15.49-15.37-41.41,8.65-63.93,9.69,6.9,39.65,11.21,53.24,3.53C477.66,700.85,462.63,726.38,439.22,779.39Z" transform="translate(-108.25 -125.88)"/><path id="Path-72" data-name="Path" class="cls-74" d="M393.93,891.88c-.55,1.52-1.66,4.59-2.14,6-6.54,9.49-29.83,8.5-29.79-.35.25-1.44.5-2.92.75-4.43C368.33,898.81,385.1,898.89,393.93,891.88Z" transform="translate(-108.25 -125.88)"/><path id="Path-73" data-name="Path" class="cls-75" d="M386.24,563.29c2,18.19-3.45,36.07,2.12,52.67.24,1.71.4,8.44.7,10.27,3.66,21.51,49.16,43.27,87.1,22.64.21-2.67,0-5.45.17-10.39-.7-4.61,1.29-9.56,1.28-12.37-.06-11.71-3.7-17.71-1.95-30.72,3.55-26.49,18.23-51.95,10.11-72.8-1.75-4.47-4.79-6.64-8.26-9.41-9-7.19-55.33-30.82-69.4-32.48C367.3,475.38,384.05,543.54,386.24,563.29Z" transform="translate(-108.25 -125.88)"/><path id="Path-74" data-name="Path" class="cls-76" d="M469.13,626.66c1.6-6.94,11.23-52.19,13.28-60.32,4.1-16.3,7.45-33.26,3.35-43.76-4.88-14.33-27.49-1.26-30.73,18C451.14,563.72,423.62,628.64,469.13,626.66Z" transform="translate(-108.25 -125.88)"/><path id="Path-75" data-name="Path" class="cls-77" d="M465.44,480.48c-2.58,1.28-15.68-.58-15.3.59.19,5.86,1.94,9.41,2.51,17.45-14.39-2-33.3-4.09-34.06-15.14.07-.89.11-1.77.15-2.64a.63.63,0,0,1,.05-.3h0c.15-4,0-7.65-1.16-9.47-3-4.93-9.32-10.42-11.53-17.9-3.55-11.94-2.26-25.22,8.88-34.07,20.34-16.18,46.35-4.67,53,19,1.28,4.61-2.36,7.11-2.22,11.06,0,.77,1.05,1.58,1.88,3.29C468.69,454.68,468.6,478.91,465.44,480.48Z" transform="translate(-108.25 -125.88)"/><path id="Path-76" data-name="Path" class="cls-78" d="M465.31,480.35c-2.58,1.27-15.55-.45-15.17.72.19,5.86,1.94,9.41,2.51,17.45-8.37,2.05-30.93-1-34.31-13.65-.06-2.67.06-12.59-.75-13.9-3-4.93-9.32-10.43-11.54-17.9-3.55-11.95-2.26-25.22,8.89-34.07,20.34-16.18,46.35-4.67,53,19,1.28,4.61-2.36,7.11-2.22,11.06,0,.77,1.05,1.58,1.88,3.29C468.69,454.68,468.48,478.78,465.31,480.35Z" transform="translate(-108.25 -125.88)"/><path id="Path-77" data-name="Path" class="cls-79" d="M464.91,480.48c-1.37.73-7,.25-11.24-1.37-2.66-1-4.58-3.32-5-3.46-1.74-.71-5.62-6.21.39-14.94,5.85-8.54-29.6,13.32-31.48,10.28-3-4.93-9.31-10.43-11.53-17.9-3.55-11.95-2.26-25.22,8.88-34.07,20.33-16.2,46.34-4.69,52.95,19,1.28,4.61-2.36,7.11-2.22,11.06,0,.77,1.05,1.58,1.88,3.29C468.69,454.68,468,478.81,464.91,480.48Z" transform="translate(-108.25 -125.88)"/><path id="Path-78" data-name="Path" class="cls-55" d="M450.33,460.92c-7.3-6.77-14.33,14.84-2.6,14.61C443.16,470.69,446.63,463,450.33,460.92Z" transform="translate(-108.25 -125.88)"/><path id="Path-79" data-name="Path" class="cls-80" d="M450.29,464.1c1.11-3,.18-4.12-1.16-3.8s-3.53,2.46-4.61,5.59c-1.74,5.05.76,11.43,5.63,8.94-4.19.25-3.8-4.82-2.54-7.94C448.46,464.8,449.79,463.28,450.29,464.1Z" transform="translate(-108.25 -125.88)"/><path id="Path-80" data-name="Path" class="cls-55" d="M448.36,465.47c1.18,2.18,1.59,3.48,1.2,4.23-.26.52-1.07,1.11-2.39-.17A7.58,7.58,0,0,1,448.36,465.47Z" transform="translate(-108.25 -125.88)"/><path id="Path-81" data-name="Path" class="cls-81" d="M457.54,432.44l.28-.15c9.8-5.22,8.26-16,4.12-19.69-8-7.09-29.67-6.35-43.42.73-14,7.19-17.42,25.13-13.23,39.22,2.76,9.41,9.55,14.28,12.94,21.38a8.52,8.52,0,0,0,8.62,3.15c9.7-2,11.94-12.25,17.77-16.75,3.2-2.47,6.49-3.14,7.69,3.61.23,3,3.4,1.62,2.66-3-.17-8.13.19-9.34,4.43-15.38,1.17-1.66,1.22-5.08-1.66-12.68A2.14,2.14,0,0,1,457.54,432.44Z" transform="translate(-108.25 -125.88)"/><path id="Path-82" data-name="Path" class="cls-82" d="M463,427.72c-3,3.79-16-5-34.14-1.62,3.88-12,6.14-14.53,11.59-18,7.11-4.57,19.07-2.71,22.82,3.6C466.82,417.69,465.4,424.68,463,427.72Z" transform="translate(-108.25 -125.88)"/><path id="Path-83" data-name="Path" class="cls-75" d="M418.13,481.4c-3.93,1.21-7.89,5.1-7.19,7.7,3.91,16,33.64,19,51.88,15.18.22,0-7.1-9.64-10.59-10.77C440.77,494.63,421.66,490.84,418.13,481.4Z" transform="translate(-108.25 -125.88)"/></g></g><g id="hand"><path id="Path-84" data-name="Path" class="cls-55" d="M473.26,710.16c-2.1,3.21-4.92,2.6-5.48,6.12a51.09,51.09,0,0,0,4.87,2.47c.85.16,2.76-1.45,2.86-2.28,0-.19-.42-2.81-.42-2.81Z" transform="translate(-108.25 -125.88)"/><path id="Path-85" data-name="Path" class="cls-9" d="M328.57,670.11,311.3,786.24l-1.68.19-3.94-1.72c-.19-.09-.38-.19-.55-.29l-.06,0c-4.31-1.92-5.35-7-4.56-11.95L317.78,665.3v0c1.16-7.2,5.59-14.71,11.37-20.73A37.53,37.53,0,0,1,340,636.44L609.3,508.72c4-1.93,8.18-2.65,11.47-1.24l3.47,1.53q.54.24.93.45c1.5.68,1.87,1.21,1.83,1.32C619.93,528.05,331.32,652.4,328.57,670.11Z" transform="translate(-108.25 -125.88)"/><path id="Path-86" data-name="Path" class="cls-83" d="M344.58,638.54l269.3-127.75c4.64-2.21,8.61-2.5,11.47-1.24,3.67,1.62,5.53,5.83,4.55,12L612.63,628.66c-1.69,10.91-11.62,23.84-22.18,28.85L321.14,785.23c-10.57,5-17.75.21-16.05-10.7l17.28-107.16C324.06,656.46,334,643.52,344.58,638.54Z" transform="translate(-108.25 -125.88)"/><path id="Path-87" data-name="Path" class="cls-9" d="M600.48,597.59c1.13-15.1-3.49-20.31-11.53-18.38a20.28,20.28,0,0,0-4,1.44c-8.42,4-18.65,14.81-24.35,33-3.59,11.52-8.42,22-19.5,27.35-28.88,13,.29-67.2-27.3-54-23.74,11.39-21.89,54.39-36.71,81.29-5.14,9.33-11.31,13.64-15.3,15.55-16.64,7.49-12.14-17.2-11.48-27.61,3-48.14-1.93-50.91-12.18-46-10.71,5.21-15.78,8.8-26.47,58.89-4.36,20.48-9.63,38.81-26.25,47.15-18.45,8.85-15.2-10-20.11-19.31-2.92-5.54-8.18-6.77-14-4-6.24,3-13.07,10.64-18.17,22.56-8.55,20-13.8,47.81-15.14,57.55l277.42-132C597.06,626.37,599.5,610.64,600.48,597.59Z" transform="translate(-108.25 -125.88)"/><path id="Path-88" data-name="Path" class="cls-55" d="M492.21,681.63c1.28,4.35,3.66,6.38,5,8.67,1.56,2.69,2.61,4.17,2.39,6.42-.61,6.33-1.66,11.15-3.61,13-3.54,3.32-17.55,7.64-23.66,9,.65-3,1.48-6.38.37-9.77-.93-2.76-3-5-3.67-8-.73-3.32,1.34-7.19,1.46-12.92Z" transform="translate(-108.25 -125.88)"/><path id="Path-89" data-name="Path" class="cls-84" d="M478.84,716c-2.08.73-4,1.33-5.41,1.74.48-3.07,1.11-6.45-.2-9.77-1.08-2.7-3.3-4.87-4.11-7.73-.93-3.27.91-7.26.71-13l4.61-1.65-.07.86c.33,5.64,0,7.52.91,9.76,2.1,5.27,3.78,5.8,4.33,9a27,27,0,0,1-.77,10.73Z" transform="translate(-108.25 -125.88)"/><path id="Path-90" data-name="Path" class="cls-75" d="M497.42,545.8C492.94,566.43,484.66,596.6,482,617l9.36,63.19c-1.33,10.81-19,13.75-23.24,9.26L450.19,620.9c.82-16,5.88-61.09,7.62-76.36,1.18-10.33,6.8-22.2,14.51-26.62C488.37,508.79,501.28,527.92,497.42,545.8Z" transform="translate(-108.25 -125.88)"/></g><g id="pot"><path class="cls-85" d="M1182.48,927.45c-21.53,0-39,10.11-39,22.59s17.45,22.58,39,22.58,39-10.11,39-22.58S1204,927.45,1182.48,927.45Z" transform="translate(-108.25 -125.88)"/><path class="cls-86" d="M1137,875.85c1.92,0,82.55-.27,89.94-.24,0,1.66-.25,3.44-.4,5.1a161.45,161.45,0,0,1-3.44,22.15,1,1,0,0,0,0,.17c-3.36,14.28-9.25,27.9-18.69,39.22-2.44,3-7.45,8.5-10.75,10.47-6.14,3.67-16.24,3.77-22.55.23a13.12,13.12,0,0,1-2.17-1.5,82.42,82.42,0,0,1-12.76-14,98,98,0,0,1-15.34-35.27A185.51,185.51,0,0,1,1137,875.85Z" transform="translate(-108.25 -125.88)"/><path class="cls-87" d="M1182,850.38c-23.82,0-43.14,10.89-43.14,24.33s19.32,24.34,43.14,24.34,43.13-10.9,43.13-24.34S1205.81,850.38,1182,850.38Z" transform="translate(-108.25 -125.88)"/><path class="cls-88" d="M1182,857c-23.12,0-41.87,10.57-41.87,23.62,0,6.36,15.16,17.56,42,18.79s40.88-13.17,41.74-18.79C1223.85,867.6,1205.11,857,1182,857Z" transform="translate(-108.25 -125.88)"/><path class="cls-89" d="M1182,849.27c-24.86,0-45,11.68-45,26.07s20.14,26.07,45,26.07,45-11.67,45-26.07-20.15-26.07-45-26.07Zm0,1.82c23.12,0,41.86,10.58,41.86,23.62s-18.74,23.62-41.86,23.62-41.87-10.58-41.87-23.62S1158.87,851.09,1182,851.09Z" transform="translate(-108.25 -125.88)"/><path class="cls-89" d="M1137.93,880.67c4.24,11.84,22.35,20.74,44.06,20.74,21.15,0,38.9-8.46,43.71-19.85l0-.08-.81-.08-2.48-.44h-.09c-4.86,10-21.09,17.36-40.37,17.36-19.71,0-36.24-7.69-40.69-18l-2.35.11-1,.27Zm87.94.48-.76-.35.79.27Z" transform="translate(-108.25 -125.88)"/></g><g id="leaf1"><path class="cls-90" d="M1226.63,603.23a199.83,199.83,0,0,0-31.91,20.86c.52,3.8.8,7.58,1.32,11.43-2.78-2.8-4.82-4.85-7-6.63-26.51,23.79-36.89,50.73-36,78.68,6.69,6.62,8.63,7.93,18.26,13l-17,.4c4.23,26.86,22.63,47,2,79-.8,1.24-1.6,2.5-2.37,3.77q6.66,9.3,13.34,18.59c-9.09-4.29-12.67-5.77-19.07-7-5.84,16.35-2.63,37.26,34.63,70,4.36,1.32,16.83.34,20.2-1.81,4-15.8,18.89-40.37,30.9-59.54,9.77-15.61,13.37-27.84,13.19-38.39-6.45.56-12.78.29-19.28.54,7.6-6.22,11.31-9.23,16.12-16.34-7.73-20.32-27.4-36.93-33.24-68q-.54-2.8-1-5.87c-3.56.11-7.12.05-10.73.18,4.29-3.51,7-5.7,9.57-8.77C1205.94,664.15,1207.29,633.22,1226.63,603.23Z" transform="translate(-108.25 -125.88)"/><path class="cls-91" d="M1178.11,711.4c-5.8-5.57-12.85-16.88-16-26.33,5.32,7.29,9.39,14.25,15.12,19.3a80.13,80.13,0,0,1-.27-9c.78-27.64,14.73-46.92,30.67-67.4-11.77,16.63-22.57,32.6-26.12,52.24,4-5,9.17-7.9,16.46-12.87-6.8,6.87-13.51,12.53-17.47,21q-.26,3.46-.19,7.09c.23,12.33,3.54,23.35,7.72,33.9,2.17-7.69,6.8-13.06,13.35-20.37-4.47,7.49-9.68,16.68-11.14,25.75,6,14.16,12.9,27.72,15.12,42.8,9.87-14.32,7.85-11.81,17.55-26-5.5,17.53-8.61,23.81-16.84,34.41a64.67,64.67,0,0,1-2.38,18.77c-4.54,16.55-8.54,26.39-10.92,35.34,16-14.51,8.57-7.65,30.59-28.55-7,14.49-7.16,16.32-32.65,39.84-.75,8.55.26,18.46,3.9,34.32a46.77,46.77,0,0,1-9.54.15c-6.45-29.47-2.92-38.53,3.69-56.14-2.11-14.56-5.45-31.4-11.15-44,7.18,6.53,12,13.94,15.61,31.74,1.44-4.26,3-9,4.47-14.55,4.06-14.72,1.58-28.09-2.86-41.36-13.64-13.13-17.06-14.38-23.67-19.16,9.74,2.71,15.22,5.62,20.17,9.55C1186.35,739,1180.57,725.85,1178.11,711.4Z" transform="translate(-108.25 -125.88)"/></g><g id="leaf2"><path class="cls-92" d="M1130.3,687.56a141.89,141.89,0,0,0-15.79,22.27c1.34,2.39,2.52,4.84,3.87,7.26-2.58-1.13-4.48-2-6.36-2.59-11.44,22.8-11.29,43.48-3.4,61.88,6.2,2.66,7.83,3,15.58,3.87L1113,785c9.86,16.79,27.42,25.42,22.06,52.13-.2,1-.4,2.08-.59,3.14q6.88,4.44,13.77,8.88c-7.19-.47-10-.52-14.54.36.4,12.43,8,25.52,41.43,37.57,3.26-.26,11.31-4.18,13-6.5-1.47-11.58,2-31.85,5-47.78,2.42-13,1.61-22-1.27-29-4.16,2.06-8.44,3.55-12.71,5.42,3.44-6.14,5.12-9.12,6.46-15.12-10.48-11.52-27.94-17.43-40-36.57-.73-1.15-1.47-2.36-2.22-3.64-2.35,1-4.74,1.9-7.11,2.94a48.44,48.44,0,0,0,4.08-8.36C1132.49,733.58,1125.28,712.61,1130.3,687.56Z" transform="translate(-108.25 -125.88)"/><path class="cls-93" d="M1133.68,815c2.32,6,3.18,13,1.34,22.16-.2,1-.4,2.08-.59,3.14q6.88,4.44,13.77,8.88c-7.19-.47-10-.52-14.54.36.4,12.43,8,25.52,41.43,37.57,3.26-.26,11.31-4.18,13-6.5-1.47-11.58,2-31.85,5-47.78,2.42-13,1.61-22-1.27-29-4.16,2.06-8.44,3.55-12.71,5.41,3.44-6.13,5.12-9.11,6.46-15.11-6.61-7.27-16-12.3-25.06-19.84C1155.81,789.75,1142.29,799.35,1133.68,815Z" transform="translate(-108.25 -125.88)"/><path class="cls-94" d="M1126.34,772.36c-5.34-2.19-13-7.87-17.58-13.35,5.45,3.47,10,7,15.13,8.9a56.72,56.72,0,0,1-2.53-5.89c-6.73-18.63-2.49-35.13,2.77-53-3.49,14.17-6.5,27.64-3.71,41.66,1.33-4.37,4-7.67,7.6-12.89-2.74,6.36-5.73,11.9-6.16,18.54.5,1.58,1.07,3.17,1.74,4.78,3.38,8.15,8.48,14.63,14,20.56-.57-5.69,1.11-10.48,3.56-17.07-1,6.16-2.08,13.66-.68,20.08,7.72,7.86,15.87,15.09,21.3,24.55,2.83-12.12,2.13-9.92,4.88-21.91.93,13.12.51,18.12-2.19,27.34a46.62,46.62,0,0,1,3.33,13.14c1.31,12.22,1.23,19.82,2,26.41,6.86-13.87,3.71-7.35,12.9-27-.86,11.49-.49,12.75-11.31,35.11,1.74,5.9,5,12.23,11.6,21.85a33.15,33.15,0,0,1-6.33,2.6c-12-17.94-12-24.91-12.25-38.38-5.23-9.15-11.87-19.49-19-26.43,6.5,2.47,11.63,6.15,18.73,17.06-.16-3.22-.41-6.8-.84-10.87-1.15-10.87-6.31-19.13-12.75-26.81-12.53-5.17-15.14-5.11-20.79-6.56,7.2-.75,11.61-.24,15.94,1.07C1139.05,788.56,1131.76,781.35,1126.34,772.36Z" transform="translate(-108.25 -125.88)"/></g></g></svg>