<svg id="_ÎÓÈ_1" data-name="—ÎÓÈ_1" xmlns="http://www.w3.org/2000/svg" viewBox="0 0 500 500"><defs><style>.cls-1{fill:#f4f4f4;}.cls-1,.cls-10,.cls-11,.cls-12,.cls-14,.cls-2,.cls-3,.cls-7,.cls-8,.cls-9{fill-rule:evenodd;}.cls-2{fill:#1d2d75;}.cls-13,.cls-14,.cls-3{fill:#fff;}.cls-4{fill:#d98c21;}.cls-5{fill:#e7b82b;}.cls-6{fill:#f4df35;}.cls-7{fill:#c42c3a;}.cls-8{fill:#b61425;}.cls-9{fill:#9c181f;}.cls-10{opacity:0.06;}.cls-11{fill:#2e439b;}.cls-12{fill:#cbd2e8;}.cls-13,.cls-14{opacity:0.67;}</style></defs><path class="cls-1" d="M160.4,379.75s-45.67,67.53-54.54,94c-1.94,5.79,2.94-.72,17.66-23.83s15.83-18.13,12-10.72-23.5,39.4-9.24,19.63,22.77-31.66,20.83-25.88c-8.39,25,22.08-18.58,35-40.33Z"/><path class="cls-2" d="M296.59,190.34l-45.25-28.65a6.88,6.88,0,0,1-2.13-9.47l1.41-2.22a6.89,6.89,0,0,0-3-7.5l6.78,1.48,1.34-2.11,102.09,64.65-1.33,2.1,4.23,5.5a6.89,6.89,0,0,0-8.05.52l-1.41,2.22a6.87,6.87,0,0,1-9.46,2.13Z"/><path class="cls-3" d="M287.51,184a2.2,2.2,0,0,1,2.35-3.71L322,200.6a2.2,2.2,0,0,1-2.35,3.71Zm-3.44-7.38a2.2,2.2,0,0,1-2.35,3.71l-1.48-.94a2.2,2.2,0,0,1,2.34-3.71Z"/><path class="cls-4" d="M244.78,317.94l-44.23-28s-24.5,4.74-41.09,33.95,2.15,77.32,2.15,77.32,50.75-4.11,70-31.6,13.12-51.67,13.12-51.67"/><path class="cls-5" d="M237,313,208.3,294.84s-17.15,5-30.36,27.82-2.84,56.92-2.84,56.92,34.8-5.52,49.76-27.21S237,313,237,313"/><path class="cls-6" d="M229.87,308.5l-14.41-9.12s-9.75,4.33-18.62,19.32-6,37.62-6,37.62,19.81-8.3,29.57-22.73,9.5-25.09,9.5-25.09"/><path class="cls-7" d="M173.74,296.3c-10.6-11.91,18.71-20.3,18.71-20.3l70.11,44.39s4.95,30.09-10.34,25.6c-23-3.21-63.35-23.4-78.48-49.69"/><path class="cls-3" d="M194.47,281.26c-7.95-10.24,17.86-20.84,17.86-20.84l55.81,35.34s1.46,27.87-11.19,25.05c-17.94-4-51.2-25.05-62.48-39.55"/><path class="cls-8" d="M338.9,234.9s19.6,37.72,21.83,41.1,3.31,7.71,1.93,11.61-31.22,80.93-31.93,83.78-5.65,2-12.61-3.94c-2.39-2.05-4.76-52.64-14.15-61.25-18-16.44-14.2-9.34-14.2-9.34Z"/><path class="cls-9" d="M330.5,372h0a3.16,3.16,0,0,1-3.24,1c-2.29-.62-5.43-2.4-9.14-5.54-2.5-2.13-5.79-53.29-15.62-62.18-18.81-17-15.67-10.27-15.67-10.27l3.85-4.68L302,281.61s10.28,8.59,17.2,18.5,11.35,72.62,11.35,72.63"/><path class="cls-8" d="M236.5,170.29s-37.66,2.77-41.8,2.13-8.63.14-11.6,3-69.55,73.36-71.86,75.2.72,6.06,9.42,10c3,1.35,59.9-28.4,72.13-23.31,23.4,9.74,10,4.41,10,4.41Z"/><path class="cls-9" d="M110.56,251.68h0s0,.49.1,1.31c.73,2.11,4,4.95,10,7.66,3,1.35,59.9-28.4,72.13-23.31,23.4,9.74,10,4.41,10,4.41l2.59-5.48,3-14a126,126,0,0,0-22.7-2.44c-11.21,0-75.09,31.8-75.1,31.8"/><path class="cls-7" d="M269.6,314.86c29.75,4.58,129.27-130,121.06-214-4.08-35-17.06-45.89-51.6-35.49C259.63,89.53,177.38,242,194.45,267.27c10.35,15.32,56.88,44.78,75.15,47.59"/><path class="cls-3" d="M324.59,270.3c35.72-45.54,72.19-116.77,66.07-169.42-4.08-35-17.06-45.89-51.6-35.49C287.81,80.83,237.6,145.73,211.21,198.51,239.08,224,289.63,256,324.59,270.3"/><path class="cls-10" d="M326,268.48c.2-.26.39-.52.59-.77.66-.85,1.31-1.71,2-2.58l.74-1q1.08-1.44,2.16-2.91l.68-.94,1.81-2.51.6-.84c.72-1,1.44-2,2.16-3.07l.73-1c.72-1.05,1.45-2.11,2.17-3.18.16-.23.31-.47.47-.71l1.89-2.83.63-1c.72-1.1,1.44-2.2,2.15-3.31l.6-1c.66-1,1.31-2.06,2-3.1l.35-.55c.73-1.18,1.45-2.36,2.17-3.54.19-.31.38-.62.56-.93.72-1.2,1.44-2.4,2.15-3.6l.38-.65c.65-1.11,1.29-2.22,1.94-3.35.13-.23.26-.46.4-.69.71-1.25,1.41-2.5,2.11-3.76l.43-.78Q360,216,362.06,212l.35-.67q1-2,2-4c.07-.16.15-.32.23-.47.67-1.33,1.32-2.67,2-4l.12-.23c.67-1.39,1.32-2.77,2-4.16l.27-.57q2-4.26,3.83-8.55c0-.12.1-.25.16-.37q.92-2.15,1.8-4.29c0-.11.09-.22.14-.33q1.79-4.36,3.41-8.74c.05-.13.1-.25.14-.38q1.67-4.47,3.13-8.93l0-.07c.48-1.47.95-2.95,1.41-4.42,0-.09.05-.18.08-.28.91-2.94,1.74-5.87,2.51-8.79l.07-.25c.38-1.47.75-2.94,1.1-4.4V148c.7-2.95,1.33-5.88,1.87-8.79l.06-.29c.53-2.88,1-5.73,1.36-8.56l0-.19c.18-1.41.34-2.81.49-4.21a1.49,1.49,0,0,1,0-.21c.27-2.78.47-5.54.57-8.26,0-.12,0-.23,0-.34q.15-4.09,0-8.09v-.16c-.05-1.31-.12-2.6-.22-3.88,0-.12,0-.24,0-.36-.1-1.28-.22-2.56-.36-3.82-.05-.4-.1-.77-.15-1.17s-.12-1-.19-1.45-.13-1-.2-1.42-.13-.92-.2-1.38l-.21-1.29c-.13-.77-.26-1.53-.4-2.27-.08-.38-.15-.75-.23-1.12s-.19-1-.29-1.41l-.24-1.07c-.15-.66-.31-1.32-.48-2-.07-.31-.16-.61-.24-.91-.14-.52-.29-1-.44-1.54-.08-.28-.17-.57-.26-.85-.16-.51-.32-1-.49-1.51-.07-.19-.13-.4-.2-.59-.24-.65-.48-1.28-.73-1.9l-.25-.61c-.2-.47-.4-.93-.61-1.37l-.25-.54c-.28-.59-.57-1.16-.88-1.72l-.18-.32q-.39-.69-.81-1.35l-.27-.43c-.33-.51-.67-1-1-1.49l0,0c-.37-.49-.75-1-1.14-1.42-.09-.1-.18-.19-.26-.29-.35-.39-.7-.76-1.06-1.12l-.18-.18c-.43-.41-.87-.81-1.32-1.18l-.17-.14c-.41-.33-.82-.64-1.25-.94l-.14-.1h0a25.06,25.06,0,0,0-12.5-4.11c3.57,6.37,5.81,15.13,7.12,26.41.14,1.19.25,2.38.34,3.59l.06.79c.09,1.18.15,2.37.2,3.57,0,.19,0,.37,0,.56q.06,1.65.06,3.3v.68c0,1.22,0,2.44-.07,3.66l0,.8c0,1.17-.11,2.36-.19,3.55,0,.1,0,.2,0,.3-.08,1.26-.2,2.53-.32,3.81l-.09.86c-.13,1.27-.28,2.54-.44,3.82l-.06.43c-.16,1.19-.33,2.39-.52,3.59,0,.26-.08.53-.13.8-.2,1.28-.43,2.56-.67,3.85,0,.26-.09.51-.14.77-.23,1.19-.47,2.38-.72,3.58,0,.18-.07.36-.11.54-.28,1.31-.58,2.62-.89,3.93l-.21.9c-.32,1.33-.65,2.66-1,4a1.21,1.21,0,0,0-.05.18c-.34,1.29-.7,2.59-1.07,3.89-.08.3-.16.59-.25.89-.38,1.31-.77,2.63-1.17,3.95-.08.24-.15.48-.23.72q-.56,1.78-1.14,3.57c-.08.25-.15.49-.23.73-.44,1.32-.89,2.64-1.35,3.95l-.33.93c-.44,1.27-.9,2.55-1.37,3.82,0,.09-.07.18-.11.28-.49,1.33-1,2.66-1.52,4-.13.32-.25.65-.38,1-.52,1.31-1,2.62-1.58,3.92l-.27.67c-.48,1.16-1,2.33-1.47,3.49l-.39.91c-.55,1.29-1.12,2.57-1.69,3.85-.14.32-.29.65-.44,1q-.77,1.71-1.56,3.42c-.1.22-.2.45-.31.67-.59,1.28-1.2,2.55-1.81,3.81l-.52,1.08c-.62,1.26-1.23,2.52-1.86,3.78-.11.21-.22.42-.32.63-.56,1.11-1.13,2.21-1.7,3.32l-.55,1.07L340,202.92l-.55,1c-.54,1-1.09,2-1.65,3l-.52,1-2,3.52-.67,1.17c-.6,1-1.2,2.09-1.81,3.12l-.59,1c-.6,1-1.21,2-1.82,3.06l-.73,1.2c-.68,1.11-1.35,2.22-2,3.32l-.66,1.06c-.54.87-1.09,1.73-1.63,2.59l-.74,1.15c-.68,1.06-1.36,2.12-2.05,3.16-.26.41-.53.82-.8,1.22L320.1,236l-.81,1.2-1.92,2.8-.87,1.26c-.67,1-1.35,1.93-2,2.88l-.78,1.09c-.54.74-1.07,1.49-1.61,2.22l-.87,1.2c-.68.93-1.37,1.86-2.06,2.78l-.87,1.15-1.56,2.05-.8,1c-.68.89-1.37,1.76-2.05,2.63l-.93,1.16c-21.45,26.93-42.41,44.36-53.48,42.66-7.11-1.09-18.48-6.22-30.34-13,17.57,12.32,39.3,24,50.47,25.72,11.33,1.74,33-16.56,55-44.56h0Z"/><path class="cls-2" d="M290.5,205.46a39.35,39.35,0,1,0-12-54.16,39.29,39.29,0,0,0,12,54.16"/><path class="cls-11" d="M293.82,200.22a33.15,33.15,0,1,0-10.09-45.62,33.1,33.1,0,0,0,10.09,45.62"/><path class="cls-9" d="M224.89,318.53c5.1-1.9,32.09-46.58,36.87-54.14s21-47.66,21.48-48.9c1.8-4.35-1.89-6.08-4.8-3-.91,1-30.24,32.78-35,40.33s-30.66,52.94-30.2,58.36c.66,7.79,4.35,10.12,11.67,7.39"/><path class="cls-10" d="M212.09,195.81l.44-.86c.49-1,1-1.92,1.49-2.88l.57-1.08c.56-1.07,1.13-2.13,1.71-3.2l.55-1c.5-.9,1-1.81,1.5-2.71.16-.3.33-.6.5-.9l1.85-3.27.64-1.1c.64-1.11,1.28-2.22,1.94-3.33l.44-.73c.57-1,1.16-1.95,1.75-2.92l.59-1c.69-1.12,1.38-2.24,2.08-3.36.2-.32.4-.63.59-.95.65-1,1.31-2.06,2-3.09l.35-.56c.75-1.16,1.51-2.32,2.27-3.48l.6-.9c.77-1.17,1.55-2.33,2.34-3.49l.41-.61c.73-1.06,1.46-2.13,2.2-3.19l.46-.66c.82-1.17,1.65-2.35,2.49-3.51.17-.25.35-.49.52-.73q2.63-3.65,5.36-7.25c.15-.21.3-.41.46-.61q1.35-1.78,2.74-3.56c.1-.14.21-.28.32-.41q1.38-1.75,2.77-3.5l.16-.2c1-1.2,1.94-2.38,2.92-3.57l.4-.48q3-3.61,6.08-7.12l.26-.3c1-1.17,2.07-2.32,3.11-3.47l.25-.26q3.16-3.5,6.43-6.83l.28-.29q3.33-3.4,6.73-6.65l.05,0q1.69-1.6,3.39-3.17l.22-.2c2.27-2.07,4.56-4.09,6.87-6l.2-.17c1.16-1,2.33-1.94,3.5-2.88l0,0c2.36-1.89,4.75-3.71,7.14-5.45l.24-.18q3.56-2.56,7.16-4.9l.16-.1c1.19-.77,2.39-1.52,3.59-2.24l.18-.11q3.6-2.17,7.22-4.06l.3-.16q3.64-1.87,7.31-3.47l.15-.06c1.2-.52,2.39-1,3.6-1.47l.33-.13c1.2-.46,2.4-.9,3.6-1.31l1.12-.37,1.39-.45,1.37-.43,1.34-.4,1.25-.37,2.23-.61,1.11-.27,1.4-.34c.36-.08.71-.17,1.07-.24.66-.15,1.32-.29,2-.41l.91-.17,1.59-.26.87-.13,1.58-.2.62-.07c.69-.07,1.36-.12,2-.16l.66,0,1.5,0h.59c.66,0,1.3,0,1.93.06l.37,0c.53,0,1.06.09,1.57.15l.5.06c.61.09,1.2.18,1.78.29h0c.6.12,1.19.27,1.77.42l.38.11c.5.15,1,.31,1.46.48l.24.08c.56.21,1.1.44,1.64.69l.19.1c.47.22.94.47,1.39.73l.15.08h0a25,25,0,0,1,9.06,9.54c-7.28-.51-16.16,1.22-26.91,4.87-1.13.38-2.26.8-3.39,1.23l-.74.28c-1.11.43-2.21.88-3.31,1.35l-.52.23c-1,.44-2,.89-3,1.36l-.62.29c-1.09.52-2.19,1.07-3.28,1.63l-.7.37c-1,.55-2.09,1.11-3.13,1.69l-.26.15c-1.11.62-2.21,1.26-3.31,1.92l-.74.45c-1.09.66-2.18,1.34-3.26,2l-.36.23c-1,.66-2,1.33-3,2l-.67.45c-1.07.74-2.13,1.49-3.2,2.26l-.63.46c-1,.71-2,1.44-2.93,2.18l-.44.33c-1.06.81-2.12,1.65-3.17,2.49l-.72.57c-1.06.86-2.13,1.73-3.19,2.62l-.14.12c-1,.87-2,1.74-3.06,2.63l-.69.61c-1,.91-2,1.82-3.07,2.75l-.56.52c-.92.84-1.83,1.69-2.74,2.56l-.55.52q-1.51,1.44-3,2.91l-.7.69c-1,1-1.91,1.91-2.86,2.88l-.2.21c-1,1-2,2-3,3.09l-.72.77c-1,1-1.92,2.06-2.87,3.1l-.49.54-2.52,2.81-.66.75c-.93,1.05-1.84,2.11-2.76,3.17l-.69.81-2.42,2.88-.47.57q-1.35,1.62-2.67,3.27l-.75.93c-.88,1.09-1.75,2.19-2.62,3.3l-.43.56c-.76,1-1.52,2-2.27,3l-.73,1c-.83,1.09-1.65,2.19-2.47,3.29l-.68.93c-.68.92-1.35,1.85-2,2.78l-.64.89c-.79,1.09-1.56,2.19-2.34,3.29l-.77,1.11-2.05,3-.64,1c-.67,1-1.33,2-2,3l-.78,1.17-2.12,3.26-.68,1.06c-.55.86-1.1,1.72-1.64,2.58l-.72,1.16c-.67,1.07-1.33,2.14-2,3.2l-.76,1.25L244,187.24l-.74,1.24q-.87,1.47-1.71,2.94c-.26.44-.51.88-.76,1.33-.59,1-1.17,2-1.74,3.05l-.65,1.18q-.67,1.2-1.32,2.4c-.24.43-.48.86-.71,1.3-.55,1-1.1,2-1.63,3-.23.42-.45.85-.67,1.28-.4.76-.8,1.52-1.19,2.29l-.6,1.17c-.51,1-1,2-1.49,3-.23.45-.45.89-.66,1.34-15.15,30.91-21.93,57.32-15.65,66.59,4,6,13.53,14,24.71,21.87-18.66-10.61-38.51-25.24-44.85-34.6s.82-36.93,16.72-68.77h0C211.39,197.19,211.74,196.5,212.09,195.81Z"/><path class="cls-7" d="M385.9,152.86c6.45-20.86,10-41,9.15-58.91-1.79-38.66-14.59-49.79-51.41-35.8-17.19,6.53-34.41,18.74-51.2,34a221.92,221.92,0,0,0,45.19,37.62,225.28,225.28,0,0,0,48.27,23.12"/><path class="cls-8" d="M391.24,69.5l0-.06c-.27-.8-.56-1.57-.86-2.32l0-.06c-.09-.23-.19-.45-.28-.67L390,66.2c-.29-.66-.59-1.29-.91-1.9l-.12-.23-.29-.54-.12-.21c-.18-.32-.36-.62-.54-.91a2.46,2.46,0,0,0-.17-.27l-.28-.44-.2-.29-.29-.43h0c-.14-.19-.28-.38,4.19,8.52m0,0C393.39,75.85,394.58,84,395,94c.83,17.89-2.7,38-9.15,58.9a217.33,217.33,0,0,1-21.47-8.54c7.3-22.36,11.38-44,10.49-63.11-.58-12.44-2.29-22-5.58-28.84l1.09,0h0a30.87,30.87,0,0,1,3.14.32l.11,0q1,.17,1.89.39l.12,0,.78.22.15,0,.86.28.06,0,.75.29.21.08.68.3.1,0,.76.37.2.11.54.3.23.13.67.42.16.11.52.36.26.19.42.33.24.18.57.49.26.24a3.61,3.61,0,0,1,.35.33l.27.26.36.37c.14.15.28.29.41.44l.3.34c.1.12.2.23.29.35s.16.19.24.3Z"/><path class="cls-12" d="M296.42,196.1a28.28,28.28,0,1,0-8.6-38.92,28.25,28.25,0,0,0,8.6,38.92"/><path class="cls-3" d="M333.05,164l-38.41,26.81a23.79,23.79,0,0,0,6.25,4.39l34.21-23.87A23.52,23.52,0,0,0,333.05,164Zm-4.31-6.35-38.66,27a23.49,23.49,0,0,1-2.58-12.21L318,151.14A23.77,23.77,0,0,1,328.74,157.68Z"/><polygon class="cls-3" points="130.11 303.89 130.76 314.95 141.83 315.6 130.7 316.26 130.11 327.32 129.51 316.2 118.39 315.6 129.46 315.01 130.11 303.89"/><polygon class="cls-3" points="267.35 352.42 268 363.49 279.06 364.14 267.94 364.79 267.35 375.86 266.75 364.73 255.63 364.14 266.69 363.55 267.35 352.42"/><path class="cls-13" d="M319.37,87.71a3.2,3.2,0,0,1-3.57-5.32,222.59,222.59,0,0,1,21.63-12.93,118.12,118.12,0,0,1,27.83-10.57,3.21,3.21,0,0,1,1.38,6.26,112.06,112.06,0,0,0-26.27,10,216.88,216.88,0,0,0-21,12.55"/><path class="cls-14" d="M308.37,87.88a3.41,3.41,0,1,1-3.4,3.41,3.41,3.41,0,0,1,3.4-3.41"/></svg>