<svg id="_ÎÓÈ_1" data-name="—ÎÓÈ_1" xmlns="http://www.w3.org/2000/svg" viewBox="0 0 500 500"><defs><style>.cls-1{fill:#c4ced2;}.cls-1,.cls-10,.cls-11,.cls-12,.cls-13,.cls-14,.cls-15,.cls-16,.cls-17,.cls-2,.cls-3,.cls-4,.cls-5,.cls-6,.cls-7,.cls-8,.cls-9{fill-rule:evenodd;}.cls-2{fill:#eff7f7;}.cls-3{fill:#a9b0b8;}.cls-4{fill:#d9e4e4;}.cls-5{fill:#d5e2e2;}.cls-6{fill:#e4ecec;}.cls-7{fill:#e0e9e9;}.cls-8{fill:#8f969b;}.cls-9{fill:#d0dddd;}.cls-10{fill:#dee9e9;}.cls-11{fill:#fff;}.cls-12{fill:#191477;}.cls-13{fill:#181343;}.cls-14{fill:#f2f9f9;}.cls-15{fill:#ff9;}.cls-16{fill:#ccd3d6;}.cls-17{fill:#9b9883;}</style></defs><path class="cls-1" d="M280.08,228.88c-16.86,13.89-38.18,22.29,18.4,43.45s116.12,27,133,13.15S416.1,243.17,359.52,222,296.93,215,280.08,228.88Z"/><path class="cls-2" d="M435.81,278.26C438,263.17,407.55,240,359.52,222c-32.22-12-48-12.65-58.8-8.38-.87.76-1.76,1.53-2.68,2.29-16.86,13.9-38.18,22.3,18.4,43.45C362.46,276.58,410.43,283.69,435.81,278.26Z"/><path class="cls-3" d="M328.26,210.15c-1.64,13.42-11.81,30.16-30.51,47.71-41,38.47-107.49,66.25-148.5,62-18.65-1.91-28.81-10.11-30.5-22.1-5.09-36.09,50.19-98.59,105.28-121.49C278.69,153.59,333.16,170.18,328.26,210.15Z"/><path class="cls-3" d="M328.5,206.69v0Zm-.05,1.36C327,246,317.12,421.77,223.5,461.73,129.81,500,120,332.26,118.54,295.67c.75,13.14,11,22.2,30.71,24.23,41,4.21,107.49-23.57,148.5-62,19.69-18.48,29.92-36.06,30.7-49.81ZM118.51,294.89l0-.46h0C118.5,294.58,118.51,294.74,118.51,294.89Z"/><path class="cls-1" d="M328.26,210.15c-1.64,13.42-11.81,30.16-30.51,47.71-41,38.47-107.49,66.25-148.5,62A55,55,0,0,1,136,317c10.33-87.46,70.22-149.28,142.55-141.94a125,125,0,0,1,46.14,14.3A34.22,34.22,0,0,1,328.26,210.15Z"/><path class="cls-1" d="M328.5,206.69v0ZM158.43,448.11a235.29,235.29,0,0,1-24-104A230.71,230.71,0,0,1,136,317a55,55,0,0,0,13.25,2.88c41,4.21,107.49-23.57,148.5-62,19.69-18.48,29.92-36.06,30.7-49.81C327,246,317.12,421.77,223.5,461.73,194.53,473.57,173.59,465.7,158.43,448.11Z"/><path class="cls-4" d="M328.26,210.15c-1.64,13.42-11.81,30.16-30.51,47.71-37,34.72-94.76,60.73-135.82,62.37.39-6.3.95-12.65,1.7-19,5.25-44.66,18.76-83.57,37.34-113.1A173.34,173.34,0,0,1,224,176.31C278.69,153.59,333.16,170.18,328.26,210.15Z"/><path class="cls-5" d="M328.5,206.69v0ZM172.3,425.26c-8.79-31.76-12.66-67.79-10.37-105,41.06-1.64,98.81-27.65,135.82-62.37,19.69-18.48,29.92-36.06,30.7-49.81-1.38,35.4-10,190.6-87.1,243.8-10,6.9-24.26,13-37.25,9.64C190.06,457.89,177.47,443.92,172.3,425.26Z"/><path class="cls-6" d="M328.26,210.15c-1.64,13.42-11.81,30.16-30.51,47.71-33.85,31.76-85.06,56.22-125,61.43.39-6.85,1-13.75,1.8-20.66,5.58-47.38,20.43-88.3,40.79-118.4q4.32-2.11,8.66-3.92C278.69,153.59,333.16,170.18,328.26,210.15Z"/><path class="cls-7" d="M328.5,206.69v0ZM172.78,319.29c39.91-5.21,91.12-29.67,125-61.43,19.69-18.48,29.92-36.06,30.7-49.81-1.18,30.25-9.6,139.47-58.58,207.39C210.63,497.6,167.81,406.77,172.78,319.29Z"/><path class="cls-2" d="M328.26,210.15c-1.64,13.42-11.81,30.16-30.51,47.71-15.05,14.12-33.53,26.8-52.92,37-24.73,13-45.33,12.59-29.31-29.41,20.08-52.67,57.49-85.65,100.32-81.3,2,.2,4,.49,6,.85C327,191.77,329.48,200.24,328.26,210.15Z"/><path class="cls-8" d="M299.79,189.46l-45-32.53-1-.56-1-.46-1-.37-1.08-.27-1.11-.17-1.13-.06-1.17,0-1.19.14-1.22.25-1.24.35-1.27.47-1.28.58-1.3.69-1.32.8-63,40.88c-10.67,12.36-17.07,24.5-17.07,34.28,0,22.82,34.8,24.11,77.73,2.88C263.88,222.68,287,205.83,299.79,189.46Z"/><path class="cls-9" d="M229.41,49.49c59-19,102.56,19.86,102.56,70.29A91.67,91.67,0,0,1,319.16,166c-17.11,29.58-49.92,53.31-89.75,66.17-59,19-106.81-6.39-106.81-56.83S170.42,68.54,229.41,49.49Z"/><path class="cls-10" d="M297.72,55.13C319,68.26,332,92.31,332,119.78A91.67,91.67,0,0,1,319.16,166c-17.11,29.58-49.92,53.31-89.75,66.17-21.37,6.9-41.26,8-57.95,4.11-18.12-10.47-29.24-28.93-29.24-53.21,0-50.28,47.67-106.43,106.47-125.41C266.76,51.77,283.37,51.4,297.72,55.13Z"/><path class="cls-11" d="M314.05,96.07c-26.75,22.4-55,43.41-89.74,58.28-6.33,4.1-11.5,15.53-11.5,25.37v30.5c0,6,2.66,10.17,6.17,11.59,1.72.7,5.47.79,9.46-.54,14.52-4.82,39.47-20.74,46.79-25.46,23.25-15,33.91-24.12,40.77-36.91,5.93-11.06,9.55-24.38,9.55-52.38C325.55,96.67,320.38,92,314.05,96.07Z"/><path class="cls-12" d="M312.77,92.42c-26.75,22.4-55,43.41-89.75,58.27-6.32,4.11-11.49,15.53-11.49,25.38v30.49c0,6,2.66,10.17,6.16,11.59,1.72.7,5.47.79,9.46-.53,14.52-4.82,39.47-20.74,46.8-25.47,31.42-20.25,50.31-31.84,50.31-89.29C324.26,93,319.09,88.31,312.77,92.42Z"/><path class="cls-2" d="M258.05,69.91c23.6-7.62,44.34-4.45,59.77,5.47-10.89-1.7-23.07-.79-36.12,3.43a142,142,0,0,0-45.11,24.67c-29,22.58-48.94,55.07-48.76,85.14.11,19-21.53,25.15-21.71-10.43C165.9,134.78,207.28,86.31,258.05,69.91Z"/><path class="cls-13" d="M312.77,92.42c-26.75,22.39-55,43.41-89.75,58.27-6.32,4.11-11.49,15.53-11.49,25.38v30.49c0,6,2.66,10.17,6.16,11.59a5.71,5.71,0,0,0,1.15.32,15.92,15.92,0,0,1-1.26-6.48V181.5c0-9.85,5.17-21.27,11.5-25.38,34.76-14.86,63-35.88,89.74-58.28a8.12,8.12,0,0,1,4.49-1.48C321.53,91.18,317.47,89.36,312.77,92.42Z"/><path class="cls-14" d="M309.54,266.78a229.77,229.77,0,0,1-32.23,24.78,306.46,306.46,0,0,1-32.23,17.53c-4.5,2.15-8.24,8.61-8.24,14.64v21.4c0,81.9,81,26.9,81-54.48V269.26C317.8,263.23,314.26,262.45,309.54,266.78Z"/><path class="cls-13" d="M307.88,263.48a229,229,0,0,1-32.23,24.78,303.68,303.68,0,0,1-32.22,17.53c-4.51,2.16-8.25,8.62-8.25,14.65v21.39c0,81.91,81,26.91,81-54.47V266C316.14,259.93,312.6,259.15,307.88,263.48Z"/><path class="cls-12" d="M311.25,265.22A229.77,229.77,0,0,1,279,290a305.5,305.5,0,0,1-32.22,17.53c-4.51,2.15-8.25,8.61-8.25,14.65v21.39c0,20.49,5.07,32.41,12.67,37.5,23.6,9.08,64.92-35.57,64.92-93.71V266a8.73,8.73,0,0,0-.56-3.39A10.33,10.33,0,0,0,311.25,265.22Z"/><path class="cls-15" d="M266.31,339V311.65c1-.56,2-1.15,2.95-1.73v11.26q5.76-3.49,11.51-7.14V302.83l3-1.9v27.21l-3,1.9v-12.8q-5.75,3.64-11.51,7.13v12.85L266.31,339Zm22-37.31v-3.8c.92-.61,1.83-1.25,2.74-1.87v3.81c-.91.62-1.82,1.25-2.74,1.86Zm0,23.45V305.4c.92-.61,1.83-1.24,2.74-1.86v19.77c-.91.62-1.82,1.24-2.74,1.84Zm8.37-12.53q-.42-6.94-.83-13.91v-6.07c1.12-.83,2.25-1.65,3.38-2.52v6.1q-.39,7.57-.78,15.13c-.59.43-1.18.86-1.77,1.27Zm-.71,7.32v-3.83c1-.73,2.08-1.48,3.13-2.23v3.84Z"/><path class="cls-15" d="M266.68,356.13v-3.81l3.14-1.94v3.81Z"/><path class="cls-15" d="M273.15,352.08v-3.8l3.13-2v3.8Z"/><path class="cls-15" d="M279.42,348.15v-3.8c1-.67,2.09-1.33,3.14-2v3.8C281.51,346.82,280.46,347.49,279.42,348.15Z"/><path class="cls-15" d="M285.83,344v-3.81l3.13-2.05V342Z"/><path class="cls-15" d="M292.29,339.74v-3.82l3.14-2.14v3.83Z"/><path class="cls-15" d="M298.56,335.48v-3.84l3.14-2.2v3.84Z"/><path class="cls-16" d="M148,295.92c-17.61-10.17-31.89-26-31.89,30.21S130.35,436.19,148,446.35s31.88-27.18,31.88-83.41S165.56,306.08,148,295.92Z"/><path class="cls-2" d="M155.67,447.8c13.88-3,24.17-37.12,24.17-84.86,0-32-4.63-46-11.86-54-.95-.51-1.91-1-2.87-1.6-17.61-10.16-31.89-26-31.89,30.22C133.22,383.3,142.67,427.45,155.67,447.8Z"/><path class="cls-17" d="M239.9,180.47a5,5,0,0,1-4.93,4.61,4.33,4.33,0,0,1-4.4-4.61,33.93,33.93,0,0,1,7.23-19.34c4.2-5.17,10.11-8.72,16.76-8.72a18,18,0,0,1,8.16,2,20.25,20.25,0,0,1,6.56,5.38,4.77,4.77,0,0,1-7.42,6,11.81,11.81,0,0,0-3.78-3.13,8.77,8.77,0,0,0-4-1c-3.64,0-6.82,2.24-9.07,5a24.35,24.35,0,0,0-5.06,13.83Zm54.65-33.75a4.18,4.18,0,0,1-4.76,4,4.25,4.25,0,0,1-3.52-4.48c.31-5.48,2.05-11.34,5.74-15.75,3.47-4.13,8.38-6.51,13.67-5.69a14.89,14.89,0,0,1,6.39,2.69,20.06,20.06,0,0,1,5,5.31,4.33,4.33,0,0,1-1,5.85,4.09,4.09,0,0,1-5.84-1.09,11.46,11.46,0,0,0-2.85-3.08,6.69,6.69,0,0,0-2.91-1.24c-2.43-.38-4.55.94-6.12,2.81C295.85,139,294.76,143.08,294.55,146.72Z"/><path class="cls-15" d="M237.43,180.47a2.34,2.34,0,0,1-2.32,2.17,2,2,0,0,1-2.08-2.17,31.47,31.47,0,0,1,6.66-17.89c3.89-4.78,9.11-7.74,14.73-7.74a15.41,15.41,0,0,1,7.07,1.71,18.09,18.09,0,0,1,5.83,4.78,2.25,2.25,0,0,1-3.5,2.82,14.07,14.07,0,0,0-4.51-3.73,11.23,11.23,0,0,0-5.14-1.23c-4.15,0-8.1,2.29-11.11,6A26.94,26.94,0,0,0,237.43,180.47Z"/><path class="cls-15" d="M292.09,146.72a1.56,1.56,0,0,1-1.78,1.55,2,2,0,0,1-1.58-2.07,24.52,24.52,0,0,1,5.15-14.27c3-3.56,7-5.43,11.28-4.77a12.57,12.57,0,0,1,5.39,2.28,17.89,17.89,0,0,1,4.42,4.72,1.87,1.87,0,0,1-.33,2.52,1.66,1.66,0,0,1-2.35-.56,13.83,13.83,0,0,0-3.43-3.68,9.07,9.07,0,0,0-3.91-1.65c-3.17-.49-6.19,1-8.5,3.73A20.94,20.94,0,0,0,292.09,146.72Z"/></svg>