<svg xmlns="http://www.w3.org/2000/svg" xmlns:xlink="http://www.w3.org/1999/xlink" viewBox="0 0 500 500"><defs><style>.cls-1{isolation:isolate;}.cls-2{fill:#d62238;}.cls-3{fill:url(#linear-gradient);}.cls-4{fill:#528693;}.cls-5{opacity:0.5;}.cls-6{opacity:0.2;}.cls-6,.cls-8{mix-blend-mode:screen;}.cls-7{fill:url(#linear-gradient-2);}.cls-12,.cls-8{opacity:0.1;}.cls-9{fill:url(#linear-gradient-3);}.cls-10{opacity:0.15;}.cls-10,.cls-12,.cls-14,.cls-42{mix-blend-mode:multiply;}.cls-11{fill:url(#linear-gradient-4);}.cls-13{fill:url(#linear-gradient-5);}.cls-14{opacity:0.12;}.cls-15{fill:url(#linear-gradient-6);}.cls-16{fill:#c42c3a;}.cls-17{fill:#cff1ec;}.cls-18{fill:url(#linear-gradient-7);}.cls-19{fill:url(#linear-gradient-8);}.cls-20{fill:#b72c3d;}.cls-21{fill:#e3862d;}.cls-22{fill:url(#linear-gradient-9);}.cls-23{fill:url(#linear-gradient-10);}.cls-24{fill:url(#linear-gradient-11);}.cls-25{fill:url(#linear-gradient-12);}.cls-26{fill:url(#linear-gradient-13);}.cls-27{fill:url(#linear-gradient-14);}.cls-28{fill:#e08d41;}.cls-29{fill:url(#linear-gradient-15);}.cls-30{fill:url(#linear-gradient-16);}.cls-31{fill:#be7025;}.cls-32{fill:url(#linear-gradient-17);}.cls-33{fill:url(#linear-gradient-18);}.cls-34{fill:url(#linear-gradient-19);}.cls-35{fill:url(#linear-gradient-20);}.cls-36{fill:url(#linear-gradient-21);}.cls-37{fill:url(#linear-gradient-22);}.cls-38{fill:url(#linear-gradient-23);}.cls-39{fill:#aaebf4;}.cls-40{fill:url(#linear-gradient-24);}.cls-41{fill:url(#linear-gradient-25);}.cls-42{fill:#2f3893;opacity:0.35;}.cls-43{fill:#a0383c;}.cls-44{fill:#c5454a;}.cls-45{fill:#dd4b52;}</style><linearGradient id="linear-gradient" x1="288.3" y1="320.01" x2="360.41" y2="195.1" gradientUnits="userSpaceOnUse"><stop offset="0" stop-color="#73b3c8"/><stop offset="1" stop-color="#aaebf4"/></linearGradient><linearGradient id="linear-gradient-2" x1="362.34" y1="259.27" x2="432.45" y2="259.27" gradientUnits="userSpaceOnUse"><stop offset="0"/><stop offset="1" stop-color="#baffed"/></linearGradient><linearGradient id="linear-gradient-3" x1="406.77" y1="304.81" x2="435.83" y2="304.81" xlink:href="#linear-gradient-2"/><linearGradient id="linear-gradient-4" x1="397.31" y1="253.18" x2="418.4" y2="259.23" gradientUnits="userSpaceOnUse"><stop offset="0" stop-color="#fff"/><stop offset="1" stop-color="#151862"/></linearGradient><linearGradient id="linear-gradient-5" x1="348.3" y1="245.21" x2="383.16" y2="255.21" xlink:href="#linear-gradient-4"/><linearGradient id="linear-gradient-6" x1="286.37" y1="255.76" x2="356.14" y2="255.76" gradientUnits="userSpaceOnUse"><stop offset="0" stop-color="#fff"/><stop offset="1" stop-color="#171f7d"/></linearGradient><linearGradient id="linear-gradient-7" x1="314.55" y1="179.17" x2="410.17" y2="179.17" xlink:href="#linear-gradient-2"/><linearGradient id="linear-gradient-8" x1="288.07" y1="136.61" x2="431.59" y2="136.61" xlink:href="#linear-gradient-2"/><linearGradient id="linear-gradient-9" x1="206.22" y1="377.55" x2="260.1" y2="284.23" xlink:href="#linear-gradient"/><linearGradient id="linear-gradient-10" x1="271.15" y1="332.6" x2="341.26" y2="332.6" xlink:href="#linear-gradient-2"/><linearGradient id="linear-gradient-11" x1="315.58" y1="357.08" x2="344.64" y2="357.08" xlink:href="#linear-gradient-2"/><linearGradient id="linear-gradient-12" x1="305.48" y1="326.33" x2="324.86" y2="331.89" xlink:href="#linear-gradient-4"/><linearGradient id="linear-gradient-13" x1="262.68" y1="320.14" x2="286.39" y2="326.93" xlink:href="#linear-gradient-4"/><linearGradient id="linear-gradient-14" x1="195.18" y1="329.09" x2="264.95" y2="329.09" xlink:href="#linear-gradient-6"/><linearGradient id="linear-gradient-15" x1="223.36" y1="273.55" x2="318.98" y2="273.55" xlink:href="#linear-gradient-2"/><linearGradient id="linear-gradient-16" x1="196.87" y1="230.99" x2="340.41" y2="230.99" xlink:href="#linear-gradient-2"/><linearGradient id="linear-gradient-17" x1="235.85" y1="435.71" x2="199.63" y2="372.97" xlink:href="#linear-gradient"/><linearGradient id="linear-gradient-18" x1="124.9" y1="434.99" x2="161.12" y2="372.25" xlink:href="#linear-gradient"/><linearGradient id="linear-gradient-19" x1="181" y1="405.34" x2="251.11" y2="405.34" xlink:href="#linear-gradient-2"/><linearGradient id="linear-gradient-20" x1="225.43" y1="409.42" x2="254.49" y2="409.42" xlink:href="#linear-gradient-2"/><linearGradient id="linear-gradient-21" x1="209.93" y1="397.51" x2="240.11" y2="406.17" xlink:href="#linear-gradient-4"/><linearGradient id="linear-gradient-22" x1="177.94" y1="394.42" x2="200.76" y2="400.96" xlink:href="#linear-gradient-4"/><linearGradient id="linear-gradient-23" x1="105.03" y1="401.82" x2="174.8" y2="401.82" xlink:href="#linear-gradient-6"/><linearGradient id="linear-gradient-24" x1="133.21" y1="366.68" x2="228.83" y2="366.68" xlink:href="#linear-gradient-2"/><linearGradient id="linear-gradient-25" x1="106.73" y1="324.12" x2="250.25" y2="324.12" xlink:href="#linear-gradient-2"/></defs><g class="cls-1"><g id="_ÎÓÈ_1" data-name="—ÎÓÈ_1"><polygon class="cls-2" points="435.83 153.83 435.83 320.33 406.77 337.1 393.95 344.51 381.65 351.62 373 356.61 362.35 362.76 362.35 196.21 391.93 179.15 397.57 175.9 423.81 160.77 432.45 155.79 435.83 153.83"/><polygon class="cls-3" points="362.34 196.22 362.34 362.76 286.37 318.86 286.37 152.35 362.34 196.22"/><polygon class="cls-4" points="435.83 316.8 435.83 320.33 406.77 337.1 393.95 344.51 381.65 351.62 373 356.61 362.35 362.76 362.35 359.22 373 353.07 381.65 348.08 393.95 340.98 406.77 333.57 435.83 316.8"/><g class="cls-5"><g class="cls-6"><polygon class="cls-7" points="432.45 155.79 381.65 351.62 362.35 362.76 362.35 337.1 397.57 175.9 432.45 155.79"/></g><g class="cls-8"><polygon class="cls-9" points="435.83 272.52 435.83 320.33 406.77 337.1 435.83 272.52"/></g><g class="cls-10"><polygon class="cls-11" points="435.83 153.83 435.83 168.51 393.95 344.51 381.65 351.62 373 356.61 423.81 160.77 432.45 155.79 435.83 153.83"/></g><g class="cls-12"><polygon class="cls-13" points="391.93 179.15 362.35 327.81 362.35 196.21 391.93 179.15"/></g></g><polygon class="cls-4" points="362.35 359.22 362.35 362.76 286.37 318.86 286.37 315.32 362.35 359.22"/><g class="cls-14"><polygon class="cls-15" points="356.14 359.17 328.21 343.03 286.37 167.16 286.37 152.35 305.3 163.28 356.14 359.17"/></g><polygon class="cls-16" points="435.81 153.82 410.17 168.62 373.6 189.71 362.34 196.21 351.08 189.71 314.55 168.62 286.38 152.34 288.07 151.37 294.48 147.66 339.14 121.85 359.72 109.96 380.35 121.85 431.3 151.2 431.59 151.37 435.81 153.82"/><polygon class="cls-17" points="435.83 153.83 435.83 155.46 433.57 156.77 424.93 161.75 398.69 176.87 393.05 180.12 363.46 197.19 363.46 362.11 362.35 362.76 362.35 196.21 391.93 179.15 397.57 175.9 423.81 160.77 432.45 155.79 435.83 153.83"/><g class="cls-8"><polygon class="cls-18" points="410.17 168.62 373.6 189.71 351.08 189.71 314.55 168.62 410.17 168.62"/></g><g class="cls-6"><polygon class="cls-19" points="431.59 151.37 288.07 151.37 294.48 147.66 339.14 121.85 380.35 121.85 431.3 151.2 431.59 151.37"/></g><polygon class="cls-20" points="362.35 196.21 362.35 362.76 356.14 359.17 328.21 343.03 286.37 318.86 286.37 152.35 305.3 163.28 362.35 196.21"/><polygon class="cls-21" points="344.64 248.22 344.64 372.6 315.58 389.37 302.76 396.78 290.46 403.88 281.81 408.88 271.15 415.03 271.15 290.6 300.74 273.54 306.38 270.28 332.62 255.16 341.26 250.18 344.64 248.22"/><polygon class="cls-22" points="271.15 290.61 271.15 415.03 195.18 371.13 195.18 246.74 271.15 290.61"/><polygon class="cls-4" points="344.64 369.07 344.64 372.6 315.58 389.37 302.76 396.78 290.46 403.88 281.81 408.88 271.15 415.03 271.15 411.49 281.81 405.35 290.46 400.35 302.76 393.25 315.58 385.84 344.64 369.07"/><g class="cls-5"><g class="cls-6"><polygon class="cls-23" points="341.26 250.18 290.46 403.88 271.15 415.03 271.15 389.37 306.38 270.28 341.26 250.18"/></g><g class="cls-8"><polygon class="cls-24" points="344.64 324.79 344.64 372.6 315.58 389.37 344.64 324.79"/></g><g class="cls-10"><polygon class="cls-25" points="344.64 248.22 344.64 262.9 302.76 396.78 290.46 403.88 281.81 408.88 332.62 255.16 341.26 250.18 344.64 248.22"/></g><g class="cls-12"><polygon class="cls-26" points="300.74 273.54 271.15 380.08 271.15 290.6 300.74 273.54"/></g></g><polygon class="cls-4" points="271.15 411.49 271.15 415.03 195.18 371.13 195.18 367.59 271.15 411.49"/><g class="cls-14"><polygon class="cls-27" points="264.95 411.44 237.02 395.3 195.18 261.54 195.18 246.74 214.11 257.67 264.95 411.44"/></g><polygon class="cls-28" points="344.63 248.2 318.97 263.01 282.4 284.11 271.14 290.59 259.89 284.11 243.16 274.46 223.35 263.01 195.17 246.73 196.87 245.75 203.29 242.04 242.56 219.34 247.94 216.23 268.53 204.34 283.09 212.74 289.16 216.23 300.48 222.77 340.1 245.59 340.41 245.75 344.63 248.2"/><polygon class="cls-17" points="344.64 248.22 344.64 249.85 342.38 251.16 333.74 256.14 307.5 271.26 301.86 274.51 272.27 291.58 272.27 414.38 271.15 415.03 271.15 290.6 300.74 273.54 306.38 270.28 332.62 255.16 341.26 250.18 344.64 248.22"/><g class="cls-8"><polygon class="cls-29" points="318.98 263.01 282.41 284.1 259.89 284.1 223.36 263.01 318.98 263.01"/></g><g class="cls-6"><polygon class="cls-30" points="340.41 245.75 196.87 245.75 203.29 242.04 242.56 219.34 247.94 216.23 289.16 216.23 300.48 222.74 300.48 222.77 340.1 245.59 340.41 245.75"/></g><polygon class="cls-31" points="271.15 290.6 271.15 415.03 264.95 411.44 237.02 395.3 195.18 371.13 195.18 246.74 214.11 257.67 271.15 290.6"/><polygon class="cls-32" points="254.49 341.35 254.49 424.94 225.43 441.71 212.61 449.12 200.31 456.23 191.66 461.22 181 467.37 181 383.73 210.59 366.66 216.24 363.41 242.47 348.29 251.11 343.3 254.49 341.35"/><polygon class="cls-33" points="181 383.73 181 467.37 105.03 423.47 105.03 339.87 181 383.73"/><polygon class="cls-4" points="254.49 421.41 254.49 424.94 225.43 441.71 212.61 449.12 200.31 456.23 191.66 461.22 181 467.37 181 463.84 191.66 457.69 200.31 452.69 212.61 445.59 225.43 438.18 254.49 421.41"/><g class="cls-5"><g class="cls-6"><polygon class="cls-34" points="251.11 343.3 200.31 456.23 181 467.37 181 441.71 216.24 363.41 251.11 343.3"/></g><g class="cls-8"><polygon class="cls-35" points="254.49 377.13 254.49 424.94 225.43 441.71 254.49 377.13"/></g><g class="cls-10"><polygon class="cls-36" points="254.49 341.35 254.49 356.02 212.61 449.12 200.31 456.23 191.66 461.22 242.47 348.29 251.11 343.3 254.49 341.35"/></g><g class="cls-12"><polygon class="cls-37" points="210.59 366.66 181 432.42 181 383.73 210.59 366.66"/></g></g><polygon class="cls-4" points="181 463.84 181 467.37 105.03 423.47 105.03 419.94 181 463.84"/><g class="cls-14"><polygon class="cls-38" points="174.8 463.78 146.87 447.64 105.03 354.67 105.03 339.86 123.96 350.79 174.8 463.78"/></g><polygon class="cls-39" points="254.48 341.34 228.82 356.12 192.25 377.22 180.99 383.73 169.74 377.22 154.74 368.54 133.2 356.12 105.05 339.86 106.72 338.89 113.14 335.18 157.79 309.36 178.38 297.48 199.01 309.36 230.36 327.44 249.95 338.73 250.26 338.89 254.48 341.34"/><polygon class="cls-17" points="254.49 341.35 254.49 342.97 252.23 344.28 243.59 349.26 217.35 364.39 211.71 367.64 182.12 384.7 182.12 466.72 181 467.37 181 383.73 210.59 366.66 216.24 363.41 242.47 348.29 251.11 343.3 254.49 341.35"/><g class="cls-8"><polygon class="cls-40" points="228.83 356.14 192.26 377.22 169.74 377.22 133.21 356.14 228.83 356.14"/></g><g class="cls-6"><polygon class="cls-41" points="250.25 338.89 106.73 338.89 113.14 335.18 157.8 309.36 199.01 309.36 249.96 338.72 250.25 338.89"/></g><polygon class="cls-42" points="181 383.73 181 467.37 174.8 463.78 146.87 447.64 105.03 423.47 105.03 339.86 123.96 350.79 181 383.73"/><g class="cls-1"><polygon class="cls-43" points="305.99 82.89 260.69 59.92 256.8 57.46 298.29 24.44 302.18 26.9 305.99 82.89"/><polygon class="cls-43" points="305.99 82.89 260.69 59.92 256.8 57.46 298.29 24.44 302.18 26.9 305.99 82.89"/><polygon points="291.68 70.97 267.9 58.91 271.3 60.59 295.07 72.65 291.68 70.97"/><polygon class="cls-44" points="254.65 144.53 230.87 132.47 267.9 58.91 291.68 70.97 254.65 144.53"/><polygon class="cls-44" points="159.01 261.35 135.23 249.3 175.89 168.55 199.67 180.61 159.01 261.35"/><polygon class="cls-45" points="199.67 180.61 175.89 168.55 230.87 132.47 254.65 144.53 199.67 180.61"/><polygon class="cls-45" points="74.77 316.64 50.99 304.58 135.23 249.3 159.01 261.35 74.77 316.64"/><polygon class="cls-43" points="75.09 321.97 51.31 309.91 50.99 304.58 74.77 316.64 75.09 321.97"/><polygon class="cls-43" points="291.68 70.97 295.07 72.65 256.82 148.64 201.84 184.72 161.19 265.46 75.09 321.97 74.77 316.64 159.01 261.35 199.67 180.61 254.65 144.53 291.68 70.97"/><polygon class="cls-44" points="302.09 80.43 256.8 57.46 298.29 24.44 302.09 80.43"/></g></g></g></svg>