<svg xmlns="http://www.w3.org/2000/svg" width="477" height="477" viewBox="0 0 477 477" version="1.1">
	<path d="M 224 1.592 C 186.846 4.787, 154.109 14.335, 124.942 30.484 C 57.223 67.976, 11.871 135.170, 2.922 211.267 C 1.303 225.038, 2.247 266.729, 4.444 278.500 C 13.831 328.785, 37.212 373.457, 72.412 408.354 C 109.631 445.254, 163.028 470.392, 214.219 475.113 C 232.129 476.764, 265.509 475.716, 280 473.047 C 328.922 464.036, 372.730 441.247, 406.989 406.989 C 441.699 372.278, 464.103 329.037, 473.560 278.500 C 476.081 265.031, 476.697 223.345, 474.609 207.500 C 467.785 155.695, 443.940 107.953, 406.342 70.816 C 391.970 56.620, 386.740 52.229, 373 42.815 C 343.067 22.308, 309.606 9.229, 273.516 3.930 C 261.022 2.095, 233.343 0.788, 224 1.592 M 318.718 72.378 C 307.122 76.697, 299.874 87.770, 301.392 98.846 C 302.237 105.008, 306.785 112.829, 311.236 115.775 C 314.566 117.978, 315.003 118.741, 315.022 122.383 C 315.065 130.425, 320.685 139.153, 328.500 143.312 C 334.092 146.288, 344.915 146.286, 350.500 143.308 C 358.815 138.875, 364 130.973, 364 122.735 C 364 118.969, 364.536 117.892, 368.123 114.453 C 373.562 109.239, 376.200 103.239, 376.200 96.087 C 376.200 85.586, 370.082 76.671, 360.385 73.043 C 353.745 70.559, 350.085 70.518, 343.329 72.852 C 338.794 74.419, 337.830 74.467, 335.483 73.237 C 331.535 71.169, 323.121 70.737, 318.718 72.378 M 323.342 165.411 C 292.398 171.321, 267.969 191.519, 259.510 218.188 C 245.747 261.581, 268.808 302.930, 313 314.097 C 324.939 317.114, 343.734 317.127, 353.103 314.126 C 356.734 312.963, 361.366 310.883, 363.397 309.505 C 365.427 308.127, 367.294 307, 367.544 307 C 368.654 307, 367.826 313.351, 365.906 319.569 C 364.177 325.168, 362.828 327.331, 358.156 331.998 C 351.065 339.082, 345.919 341, 334.003 341 C 320.804 341, 311.609 337.756, 300.614 329.222 C 295.643 325.364, 294.554 324.882, 293.614 326.127 C 293.001 326.937, 285.648 335.530, 277.274 345.222 L 262.048 362.844 267.459 367.788 C 278.597 377.968, 292.604 385.601, 308.549 390.179 C 315.370 392.137, 318.845 392.464, 333 392.481 C 347.292 392.497, 350.571 392.191, 357.500 390.192 C 392.121 380.206, 414.243 350.647, 421.634 304.500 C 423.814 290.889, 423.830 259.050, 421.665 245.475 C 416.926 215.768, 404.692 191.943, 387.690 179.307 C 380.316 173.827, 369.943 168.874, 361 166.563 C 352.153 164.277, 332.438 163.674, 323.342 165.411 M 126.500 173.093 C 83.258 176.508, 52.525 205.247, 46.929 247.500 C 42.005 284.675, 59.102 318.560, 90.812 334.474 C 106.624 342.409, 128.848 346.059, 149.057 344.038 C 177.604 341.184, 199.435 329.288, 214.104 308.593 C 216.797 304.794, 219 301.170, 219 300.538 C 219 299.895, 208.099 296.265, 194.250 292.295 L 169.500 285.201 168.038 287.351 C 161.702 296.669, 152.007 301.348, 139 301.364 C 128.493 301.377, 121.293 298.497, 115.805 292.085 C 112.745 288.510, 110 281.877, 110 278.057 C 110 277.326, 127.918 277, 168.031 277 C 222.359 277, 226.109 276.888, 226.781 275.250 C 227.177 274.288, 227.461 266.750, 227.413 258.500 C 227.343 246.419, 226.903 241.943, 225.153 235.500 C 213.569 192.855, 176.132 169.172, 126.500 173.093 M 332.948 215.108 C 326.729 216.853, 319.852 222.938, 316.265 229.868 C 310.513 240.980, 312.096 253.030, 320.400 261.334 C 325.617 266.550, 329.556 268.261, 337.540 268.779 C 346.708 269.374, 353.265 266.723, 359.341 259.966 C 366.240 252.292, 367.819 242.937, 363.956 232.613 C 359.184 219.858, 344.852 211.767, 332.948 215.108 M 126.385 216.557 C 117.991 219.657, 111.154 228.018, 109.464 237.250 L 108.777 241 135.889 241 C 166.536 241, 164.468 241.664, 161.446 232.795 C 159.465 226.981, 153.954 220.530, 148.643 217.807 C 143.270 215.053, 132.148 214.428, 126.385 216.557" stroke="none" fill="black" fill-rule="evenodd"/>
</svg>