<?xml version="1.0" encoding="UTF-8"?>
<svg width="169px" height="112px" viewBox="0 0 169 112" version="1.1" xmlns="http://www.w3.org/2000/svg" xmlns:xlink="http://www.w3.org/1999/xlink">
    <title>accountable</title>
    <g id="Cab9" stroke="none" stroke-width="1" fill="none" fill-rule="evenodd">
        <g id="accountable" fill="#222222" fill-rule="nonzero">
            <g id="noun_support_3241142" transform="translate(84.500000, 88.000000) scale(-1, 1) translate(-84.500000, -88.000000) translate(0.000000, 64.000000)">
                <path d="M168.78091,47.84685 L74.63242,47.84685 C69.66758,47.84685 64.71834,46.62808 60.32382,44.31949 L5.01915,15.257 C1.28475,13.29216 -0.25821,8.75308 1.51131,4.92495 C2.84723,2.03043 5.72223,0.32339 8.71835,0.32339 C9.82771,0.32339 10.95271,0.55775 12.02303,1.05387 L42.93319,15.33124 C42.86679,15.86247 42.83163,16.40544 42.83163,16.95624 C42.83163,24.10861 48.65195,29.92889 55.80427,29.92889 L94.65191,29.92889 C95.75739,29.92889 96.65191,29.03437 96.65191,27.92889 C96.65191,26.82341 95.75739,25.92889 94.65191,25.92889 L55.80427,25.92889 C50.85507,25.92889 46.83163,21.90544 46.83163,16.95624 C46.83163,16.19452 46.92539,15.45624 47.10507,14.74919 C47.12071,14.70231 47.13243,14.65155 47.14415,14.60467 C48.17931,10.79215 51.66759,7.97967 55.80431,7.97967 L80.71839,7.97967 C88.66371,7.97967 96.43323,6.50703 103.80823,3.60859 C121.0856,-3.18049 140.53088,0.15155 154.56216,12.31564 C158.11685,15.39769 162.66372,17.093 167.36683,17.093 L168.78091,17.093 C168.78091,17.09304 168.78091,47.84685 168.78091,47.84685 Z" id="Path"></path>
            </g>
            <g id="logo" transform="translate(63.000000, 0.000000)">
                <g id="Group" transform="translate(29.500000, 29.500000) scale(-1, 1) rotate(-180.000000) translate(-29.500000, -29.500000) translate(0.000000, -0.000000)">
                    <path d="M27.6154333,58.9627368 C23.721906,58.6273684 20.549863,57.8448421 17.4275775,56.4412632 C7.9487666,52.2056842 1.35589289,43.2873684 0.111954459,33.0524211 C-0.0995150748,31.2141053 0.0373181531,25.9103158 0.348302762,24.2583158 C1.23149905,19.6004211 3.08496732,15.3648421 5.78431373,11.7875789 C6.92873709,10.2722105 7.17752477,9.99894737 8.84440228,8.33452632 C13.2728231,3.96231579 19.0571368,1.11789474 25.3639047,0.211157895 C27.2298124,-0.0621052632 31.8323846,-0.0496842105 33.6485347,0.211157895 C38.773561,0.981263158 43.3139363,2.89410526 47.5184482,6.03663158 C49.0236137,7.16694737 51.7975965,9.93684211 52.9420198,11.4646316 C55.6040481,14.9797895 57.5819102,19.2029474 58.3904702,23.0783158 C58.9626818,25.7985263 59.1741514,30.4812632 58.838288,33.1517895 C58.1292431,38.8406316 55.8901539,43.9581053 52.1210205,48.4669474 C50.2675522,50.6903158 48.1652962,52.5410526 45.5281467,54.2675789 C41.9331647,56.6151579 37.9774404,58.0932632 33.5241408,58.7267368 C32.2802024,58.9130526 28.6603416,59.0496842 27.6154333,58.9627368 Z M41.3360742,50.1437895 C41.8709677,49.9574737 41.9704828,49.9574737 42.4183007,50.1437895 C43.8612692,50.7151579 45.6401012,49.9574737 46.3242673,48.4793684 C46.8467215,47.3242105 46.573055,45.9206316 45.6152224,44.9766316 C45.2917984,44.6661053 45.1674046,44.4176842 45.1176471,43.9705263 C44.9559351,42.8029474 44.2966477,41.7968421 43.3885726,41.3248421 C42.8536791,41.0391579 41.7838921,40.9646316 41.1121653,41.1509474 C40.390681,41.3496842 39.4079696,42.2191579 39.1343032,42.9023158 C39.0223487,43.1755789 38.9228336,43.6351579 38.9103943,43.9208421 C38.8855155,44.368 38.8108792,44.4922105 38.3879401,44.8151579 C36.9449715,45.8957895 36.8330171,48.0943158 38.1391524,49.3985263 C39.0223487,50.2804211 40.1543327,50.5412632 41.3360742,50.1437895 Z M44.2593295,38.5922105 C49.7575374,37.4618947 52.7678684,32.1084211 52.4568838,24.0098947 C52.2205355,18.0477895 50.1804765,13.7749474 46.5481763,11.6509474 C43.4383302,9.82505263 39.0596669,9.83747368 35.5517605,11.6757895 C34.4570947,12.2471579 32.3050812,13.8867368 32.3672781,14.0854737 C32.4419144,14.3090526 36.3603205,18.7930526 36.4722749,18.7930526 C36.5469112,18.7930526 36.8578958,18.5694737 37.1688805,18.2962105 C38.3381826,17.2528421 39.9553026,16.7311579 41.684377,16.8305263 C43.6995572,16.9423158 44.9683744,18.0229474 45.3913135,20.0103158 C45.6152224,21.0536842 45.6152224,21.0536842 44.5703141,20.5195789 C43.401012,19.9357895 42.2068311,19.7246316 40.6394687,19.8364211 C36.2732448,20.1345263 33.0390048,22.5814737 31.8323846,26.4941053 C31.5835969,27.2642105 31.5338393,27.6989474 31.5338393,28.9783158 C31.5462787,30.7545263 31.7950664,31.8848421 32.5165507,33.3008421 C33.8724436,35.9589474 36.5095931,37.9214737 39.6194392,38.5797895 C40.8011807,38.8406316 43.0651486,38.8406316 44.2593295,38.5922105 Z M19.7786211,37.4867368 C23.075058,36.7787368 25.8987982,34.5429474 27.1800548,31.6488421 C27.9139785,29.972 28.2498419,27.7486316 28.0632511,25.7115789 L27.963736,24.7551579 L20.6991356,24.7551579 C16.7060932,24.7551579 13.4345351,24.7054737 13.4345351,24.6557895 C13.4345351,24.2955789 13.8699136,23.2149474 14.14358,22.892 C14.5540797,22.3951579 15.437276,21.9604211 16.3204723,21.7865263 C17.8256378,21.5132632 19.7661817,22.1964211 20.388151,23.2273684 C20.5623023,23.5130526 20.7613325,23.7614737 20.81109,23.7614737 C20.972802,23.7614737 26.9063884,22.0225263 26.9810247,21.948 C27.155176,21.7741053 26.3341767,20.6189474 25.3141472,19.588 C23.6970272,17.9732632 22.0550285,17.0789474 19.7786211,16.6069474 C18.3107738,16.2964211 15.3750791,16.2964211 13.9321105,16.5945263 C9.49125026,17.5385263 6.4436011,20.5692632 5.63504111,24.8172632 C5.37381404,26.1463158 5.47332912,28.5435789 5.83407126,29.9098947 C6.95361585,34.1454737 10.1754164,36.9402105 14.7779886,37.6730526 C15.7855787,37.8345263 18.6839553,37.7227368 19.7786211,37.4867368 Z" id="Shape"></path>
                    <path d="M41.4604681,32.4437895 C39.9926207,32.1829474 38.8233186,30.8042105 38.7113641,29.1894737 C38.5869703,27.4381053 39.8806662,25.9475789 41.6719376,25.7861053 C42.9905123,25.6618947 44.3339658,26.3823158 44.9434957,27.5374737 C45.3539954,28.3075789 45.3291166,29.6987368 44.8812988,30.5433684 C44.5578748,31.152 43.8363905,31.9221053 43.3014969,32.1953684 C42.8785579,32.4313684 42.0202404,32.5431579 41.4604681,32.4437895 Z" id="Path"></path>
                    <path d="M15.6363061,32.2823158 C15.3128821,32.1953684 14.8401855,31.9469474 14.5789585,31.7482105 C14.0938225,31.3507368 13.4842926,30.3073684 13.3598988,29.6366316 L13.2852625,29.2267368 L16.668775,29.2267368 L20.0522876,29.2267368 L19.9652119,29.6366316 C19.8283787,30.2452632 19.4800759,30.9781053 19.1068944,31.4252632 C18.4102888,32.2450526 16.8678052,32.6301053 15.6363061,32.2823158 Z" id="Path"></path>
                </g>
            </g>
        </g>
    </g>
</svg>