<?xml version="1.0" encoding="UTF-8"?>
<svg width="57px" height="68px" viewBox="0 0 57 68" version="1.1" xmlns="http://www.w3.org/2000/svg" xmlns:xlink="http://www.w3.org/1999/xlink">
    <!-- Generator: Sketch 63.1 (92452) - https://sketch.com -->
    <title>Group 17</title>
    <desc>Created with Sketch.</desc>
    <defs>
        <filter x="-105.4%" y="-79.6%" width="310.8%" height="259.2%" filterUnits="objectBoundingBox" id="filter-1">
            <feOffset dx="0" dy="10" in="SourceAlpha" result="shadowOffsetOuter1"></feOffset>
            <feGaussianBlur stdDeviation="5" in="shadowOffsetOuter1" result="shadowBlurOuter1"></feGaussianBlur>
            <feColorMatrix values="0 0 0 0 0   0 0 0 0 0   0 0 0 0 0  0 0 0 0.197579764 0" type="matrix" in="shadowBlurOuter1" result="shadowMatrixOuter1"></feColorMatrix>
            <feMerge>
                <feMergeNode in="shadowMatrixOuter1"></feMergeNode>
                <feMergeNode in="SourceGraphic"></feMergeNode>
            </feMerge>
        </filter>
        <polygon id="path-2" points="0 0.0250886731 10.931037 0.0250886731 10.931037 10.4972675 0 10.4972675"></polygon>
    </defs>
    <g id="Page-1" stroke="none" stroke-width="1" fill="none" fill-rule="evenodd">
        <g id="Contact" transform="translate(-484.000000, -2084.000000)">
            <g id="Group-17" transform="translate(494.000000, 2084.000000)">
                <ellipse id="Oval" fill="#D21D1C" opacity="0.699999988" cx="18.5" cy="49" rx="5.5" ry="1"></ellipse>
                <ellipse id="Oval" stroke="#D21D1C" opacity="0.699999988" cx="19" cy="49" rx="11" ry="2"></ellipse>
                <g id="Group-16" filter="url(#filter-1)">
                    <rect id="Rectangle" fill="#535353" x="17.4117647" y="34.8444444" width="2.17647059" height="14.1555556" rx="1"></rect>
                    <g id="Group-14">
                        <ellipse id="Oval" fill="#D21D1C" cx="18.5" cy="18.5111111" rx="18.5" ry="18.5111111"></ellipse>
                        <g id="Group-9" transform="translate(7.617647, 13.066667)">
                            <g id="Group-6">
                                <g id="Group-3" transform="translate(0.000000, 0.479495)">
                                    <mask id="mask-3" fill="white">
                                        <use xlink:href="#path-2"></use>
                                    </mask>
                                    <g id="Clip-2"></g>
                                    <path d="M3.75754157,4.18710847 C3.82071475,3.70130589 3.99775294,3.3177096 4.2889116,3.03631959 C4.57981479,2.75522465 4.95312414,2.61436366 5.40858416,2.61436366 C5.86404419,2.61436366 6.23706157,2.75522465 6.52825673,3.03631959 C6.81915992,3.3177096 6.99616162,3.70130589 7.05962676,4.18710847 L3.75754157,4.18710847 Z M8.5683381,9.73007493 C9.40958882,9.21882222 10.0325618,8.56010623 10.437622,7.75455401 L7.38224428,6.87228254 C7.26837927,7.19206906 7.03740118,7.44136977 6.68956549,7.62029531 C6.34143783,7.79947904 5.97141305,7.88881272 5.57938167,7.88881272 C5.16187665,7.88881272 4.77579399,7.77070932 4.42175411,7.53398614 C4.06742226,7.29752116 3.87140657,6.91064216 3.83345157,6.37360735 L10.8361495,6.37360735 C10.8613677,6.22016883 10.8835932,6.04452599 10.9025707,5.84612556 C10.9215482,5.64805709 10.931037,5.45297624 10.931037,5.2611781 C10.931037,4.57066788 10.8139239,3.90900116 10.5799532,3.27606727 C10.3456906,2.64313339 9.99789136,2.08691876 9.53619065,1.60742339 C9.07423448,1.12792802 8.50191684,0.744331726 7.8187268,0.456634505 C7.13553676,0.168937284 6.35096307,0.0250886731 5.46551667,0.0250886731 C4.56707797,0.0250886731 3.77951167,0.168937284 3.10281778,0.456634505 C2.42586842,0.744331726 1.85654339,1.13121072 1.39484268,1.6170133 C0.93288651,2.10311095 0.585050812,2.67190311 0.351080121,3.32401681 C0.116817468,3.97613051 -3.64951944e-06,4.66660384 -3.64951944e-06,5.3954368 C-3.64951944e-06,6.0733326 0.120102035,6.71884402 0.360568871,7.33259809 C0.600743746,7.94635216 0.951864011,8.48995237 1.41382018,8.96284546 C1.87552089,9.43610739 2.44809399,9.81007689 3.13128403,10.0848646 C3.81447407,10.3597261 4.59255162,10.4972675 5.46551667,10.4972675 C6.6925216,10.4972675 7.72679541,10.2416227 8.5683381,9.73007493 L8.5683381,9.73007493 Z" id="Fill-1" fill="#FFFFFF" mask="url(#mask-3)"></path>
                                </g>
                                <path d="M18.2614581,3.21115098 C18.4574738,3.30705005 18.6282713,3.43500154 18.7738506,3.59474727 C18.919138,3.75475119 19.0362511,3.93998394 19.1249344,4.1509619 C19.2132892,4.36193986 19.2577769,4.58250773 19.2577769,4.81266551 C19.2577769,5.26040353 19.0994607,5.64068024 18.7833394,5.9538276 C18.4669625,6.26730692 18.087376,6.42376994 17.6447258,6.42376994 C17.2017106,6.42376994 16.8221606,6.26730692 16.5060392,5.9538276 C16.1896259,5.64068024 16.0316017,5.26040353 16.0316017,4.81266551 C16.0316017,4.58250773 16.0757609,4.36193986 16.1644442,4.1509619 C16.2528356,3.93998394 16.3699487,3.75475119 16.515528,3.59474727 C16.6608518,3.43500154 16.8316129,3.30705005 17.0279205,3.21115098 C17.2239362,3.1152519 17.4294041,3.06730236 17.6447258,3.06730236 C17.8596825,3.06730236 18.0651504,3.1152519 18.2614581,3.21115098 M12.9572465,6.58679837 C13.1974214,7.13043546 13.5295642,7.60332855 13.9535653,8.00610466 C14.377311,8.40888077 14.8769667,8.72236009 15.4527879,8.9458787 C16.0283536,9.16976615 16.6578957,9.28156234 17.3410493,9.28156234 C18.2264592,9.28156234 18.9096857,9.06427717 19.3906194,8.62941176 C19.3651093,9.31992197 19.1723781,9.85396916 18.8118056,10.2309263 C18.4512331,10.6082523 17.9608107,10.7967677 17.3410493,10.7967677 C16.4553474,10.7967677 15.6710657,10.451531 14.9878391,9.76105771 L12.9952015,12.1009951 C14.2097616,13.3285033 15.6392784,13.9422204 17.2841168,13.9422204 C18.1315717,13.9422204 18.8906717,13.7759462 19.5614169,13.4435821 C20.2318701,13.110923 20.8011952,12.6347103 21.269392,12.0146859 C21.7372969,11.3943296 22.0949133,10.6403416 22.3416208,9.75143092 C22.5883648,8.86288912 22.7116821,7.85594884 22.7116821,6.73064698 C22.7116821,5.66944996 22.5978171,4.72333183 22.3700871,3.8920344 C22.1423571,3.06099516 21.8132069,2.35764922 21.383257,1.78225478 C20.9530152,1.20686034 20.4248932,0.769007295 19.7986357,0.468437468 C19.1723781,0.168162714 18.4541892,0.0177118212 17.6447258,0.0177118212 C16.9235443,0.0177118212 16.2560836,0.142380617 15.6425629,0.391718209 C15.0287868,0.6410558 14.4944241,0.979985257 14.0389641,1.40824839 C13.5835041,1.83676971 13.2291357,2.34507169 12.9762605,2.93304366 C12.7229839,3.52131071 12.596674,4.14793739 12.596674,4.81266551 C12.596674,5.45220167 12.7167797,6.04345635 12.9572465,6.58679837" id="Fill-4" fill="#FFFFFF"></path>
                            </g>
                        </g>
                    </g>
                </g>
            </g>
        </g>
    </g>
</svg>