<?xml version="1.0" encoding="UTF-8"?>
<svg width="24px" height="24px" viewBox="0 0 24 24" version="1.1" xmlns="http://www.w3.org/2000/svg" xmlns:xlink="http://www.w3.org/1999/xlink">
    <!-- Generator: Sketch 63.1 (92452) - https://sketch.com -->
    <title>facebook</title>
    <desc>Created with Sketch.</desc>
    <g id="Page-1" stroke="none" stroke-width="1" fill="none" fill-rule="evenodd">
        <g id="Home" transform="translate(-657.000000, -7617.000000)" fill="#3C3C3C" fill-rule="nonzero">
            <g id="footer" transform="translate(-392.000000, 6980.000000)">
                <g id="4" transform="translate(952.000000, 637.000000)">
                    <g id="socials">
                        <path d="M116.5,0 L101.5,0 C99.0141538,0 97,2.01415385 97,4.5 L97,19.5 C97,21.9858462 99.0141538,24 101.5,24 L116.5,24 C118.985846,24 121,21.9858462 121,19.5 L121,4.5 C121,2.01415385 118.985846,0 116.5,0 Z M115.889846,12.9249231 L113.644,12.9249231 L113.644,21.2363077 L109.893538,21.2363077 L109.893538,12.9249231 L108.438769,12.9249231 L108.438769,10.1252308 L109.893538,10.1252308 L109.893538,8.34184615 C109.894462,6.00369231 110.865538,4.61538462 113.620923,4.61538462 L116.413231,4.61538462 L116.413231,7.40492308 L114.791385,7.40492308 C113.718769,7.40492308 113.648615,7.80461538 113.648615,8.55230769 L113.644,10.1243077 L116.195385,10.1243077 L115.889846,12.9249231 Z" id="facebook"></path>
                    </g>
                </g>
            </g>
        </g>
    </g>
</svg>