<?xml version="1.0" encoding="UTF-8"?>
<svg width="402px" height="513px" viewBox="0 0 402 513" version="1.1" xmlns="http://www.w3.org/2000/svg" xmlns:xlink="http://www.w3.org/1999/xlink">
    <title>fire</title>
    <g id="Cab9" stroke="none" stroke-width="1" fill="none" fill-rule="evenodd">
        <g id="fire" fill="#222222" fill-rule="nonzero">
            <path d="M272.422,490.31 C290.974,453.206 313.082,390.026 282.198,362.782 C253.73,367.057 230.71,367.083 211.98,362.878 C164.816,352.288 149.887,314.921 162.872,267.068 C99.416,325.057 96.737,410.562 120.261,492.898 C124.082,506.273 109.111,517.228 97.518,509.5 C93.57,506.868 0.838,443.933 0.838,347.019 C0.838,188.25 180.838,181.419 180.838,15.019 C180.838,2.308 195.732,-4.649 205.479,3.527 C277.407,63.864 408.291,208.905 400.946,342.303 C397.305,408.435 361.376,464.688 294.158,509.5 C281.444,517.973 265.568,504.017 272.422,490.31 Z" id="Path"></path>
        </g>
    </g>
</svg>