<?xml version="1.0" encoding="UTF-8"?>
<svg width="24px" height="24px" viewBox="0 0 24 24" version="1.1" xmlns="http://www.w3.org/2000/svg" xmlns:xlink="http://www.w3.org/1999/xlink">
    <!-- Generator: Sketch 63.1 (92452) - https://sketch.com -->
    <title>instagram</title>
    <desc>Created with Sketch.</desc>
    <g id="Page-1" stroke="none" stroke-width="1" fill="none" fill-rule="evenodd">
        <g id="Home" transform="translate(-852.000000, -7617.000000)" fill="#3C3C3C" fill-rule="nonzero">
            <g id="footer" transform="translate(-392.000000, 6980.000000)">
                <g id="4" transform="translate(952.000000, 637.000000)">
                    <g id="socials">
                        <path d="M304,7.125 C301.285937,7.125 299.078125,9.3328125 299.078125,12.046875 C299.078125,14.7609375 301.285937,16.96875 304,16.96875 C306.714062,16.96875 308.921875,14.7609375 308.921875,12.046875 C308.921875,9.3328125 306.714062,7.125 304,7.125 Z M304,7.125 C301.285937,7.125 299.078125,9.3328125 299.078125,12.046875 C299.078125,14.7609375 301.285937,16.96875 304,16.96875 C306.714062,16.96875 308.921875,14.7609375 308.921875,12.046875 C308.921875,9.3328125 306.714062,7.125 304,7.125 Z M312.484375,0 L295.515625,0 C293.575,0 292,1.575 292,3.515625 L292,20.484375 C292,22.425 293.575,24 295.515625,24 L312.484375,24 C314.425,24 316,22.425 316,20.484375 L316,3.515625 C316,1.575 314.425,0 312.484375,0 Z M304,18.375 C300.512547,18.375 297.671875,15.5343281 297.671875,12.046875 C297.671875,8.55932813 300.512547,5.71875 304,5.71875 C307.487453,5.71875 310.328125,8.55932813 310.328125,12.046875 C310.328125,15.5343281 307.487453,18.375 304,18.375 Z M311.734375,5.71875 C310.960938,5.71875 310.328125,5.0859375 310.328125,4.3125 C310.328125,3.5390625 310.960938,2.90625 311.734375,2.90625 C312.507812,2.90625 313.140625,3.5390625 313.140625,4.3125 C313.140625,5.0859375 312.507812,5.71875 311.734375,5.71875 Z M304,7.125 C301.285937,7.125 299.078125,9.3328125 299.078125,12.046875 C299.078125,14.7609375 301.285937,16.96875 304,16.96875 C306.714062,16.96875 308.921875,14.7609375 308.921875,12.046875 C308.921875,9.3328125 306.714062,7.125 304,7.125 Z M304,7.125 C301.285937,7.125 299.078125,9.3328125 299.078125,12.046875 C299.078125,14.7609375 301.285937,16.96875 304,16.96875 C306.714062,16.96875 308.921875,14.7609375 308.921875,12.046875 C308.921875,9.3328125 306.714062,7.125 304,7.125 Z M304,7.125 C301.285937,7.125 299.078125,9.3328125 299.078125,12.046875 C299.078125,14.7609375 301.285937,16.96875 304,16.96875 C306.714062,16.96875 308.921875,14.7609375 308.921875,12.046875 C308.921875,9.3328125 306.714062,7.125 304,7.125 Z" id="instagram"></path>
                    </g>
                </g>
            </g>
        </g>
    </g>
</svg>