<?xml version="1.0" encoding="UTF-8"?>
<svg width="96px" height="96px" viewBox="0 0 96 96" version="1.1" xmlns="http://www.w3.org/2000/svg" xmlns:xlink="http://www.w3.org/1999/xlink">
    <title>Group</title>
    <g id="Cab9" stroke="none" stroke-width="1" fill="none" fill-rule="evenodd">
        <g id="noun_fun_2562243" fill="#222222" fill-rule="nonzero">
            <g id="Group">
                <g>
                    <path d="M48,0.5 C21.8,0.5 0.5,21.8 0.5,48 C0.5,74.2 21.8,95.5 48,95.5 C74.2,95.5 95.5,74.2 95.5,48 C95.5,21.8 74.2,0.5 48,0.5 Z M48,87.7 C26.1,87.7 8.3,69.9 8.3,48 C8.3,26.1 26.1,8.3 48,8.3 C69.9,8.3 87.7,26.1 87.7,48 C87.7,69.9 69.9,87.7 48,87.7 Z" id="Shape"></path>
                    <path d="M71,46.8 L25,46.8 C23.6,46.8 22.2,47.4 21.3,48.5 C20.4,49.6 20,51 20.2,52.5 C22.4,66.2 34.1,76.2 48,76.2 C61.9,76.2 73.6,66.2 75.8,52.5 C76,51.1 75.6,49.6 74.7,48.5 C73.8,47.4 72.4,46.8 71,46.8 Z" id="Path"></path>
                    <path d="M27.9,36.1 C28.5,36.5 29.2,36.7 29.9,36.7 C31.2,36.7 32.5,36 33.2,34.9 C34,33.7 35.2,33.5 35.7,33.5 C36.2,33.5 37.4,33.6 38.2,34.9 C39.3,36.7 41.7,37.3 43.6,36.2 C45.4,35.1 46,32.7 44.9,30.8 C42.9,27.6 39.5,25.7 35.8,25.7 C32.1,25.7 28.7,27.6 26.7,30.8 C25.5,32.5 26.1,34.9 27.9,36.1 Z" id="Path"></path>
                    <path d="M52.5,36.1 C54.3,37.2 56.7,36.7 57.9,34.8 C58.7,33.6 59.9,33.4 60.4,33.4 C60.9,33.4 62.1,33.5 62.9,34.8 C63.6,36 64.9,36.6 66.2,36.6 C66.9,36.6 67.6,36.4 68.2,36 C70,34.9 70.6,32.5 69.5,30.6 C67.5,27.4 64.1,25.5 60.4,25.5 C56.7,25.5 53.3,27.4 51.3,30.6 C50.1,32.5 50.6,34.9 52.5,36.1 Z" id="Path"></path>
                </g>
            </g>
        </g>
    </g>
</svg>