<?xml version="1.0" encoding="UTF-8"?>
<svg width="100px" height="96px" viewBox="0 0 100 96" version="1.1" xmlns="http://www.w3.org/2000/svg" xmlns:xlink="http://www.w3.org/1999/xlink">
    <title>Shape</title>
    <g id="Cab9" stroke="none" stroke-width="1" fill="none" fill-rule="evenodd">
        <g id="noun_Learning_3254194" fill="#222222" fill-rule="nonzero">
            <path d="M50,0.5625 C49.177,0.5625 48.523,1.2393 48.523,2.041 L48.523,17.504 C48.523,18.327 49.177,18.98 50,18.98 C50.823,18.98 51.477,18.327 51.477,17.504 L51.477,2.041 C51.477,1.2182 50.823,0.5625 50,0.5625 Z M25.25,10.395 C25.013,10.398 24.774,10.459 24.557,10.584 C23.839,10.985 23.585,11.892 23.986,12.588 C23.986,12.588 23.987,12.609 24.008,12.609 L30.043,23.096 C30.295995,23.581 30.781,23.854 31.309,23.854 C32.131,23.854 32.785,23.2 32.785,22.377 C32.785,22.124 32.722,21.871 32.596,21.639 L26.561,11.154 C26.285,10.661 25.771,10.387 25.25,10.395 L25.25,10.395 Z M75.121,10.432 C74.598,10.418 74.087,10.683 73.797,11.176 L67.764,21.66 C67.363,22.356 67.595,23.264 68.291,23.686 C68.987,24.086 69.894,23.854 70.316,23.158 L70.316,23.137 L76.371,12.631 C76.772,11.935 76.54,11.028 75.822,10.627 C75.598,10.502 75.359,10.438 75.121,10.432 Z M49.979,21.915997 C44.087,21.919 38.196,24.159 33.691,28.643 C29.324,32.925 26.856,38.771 26.8768671,44.889 C26.8768671,50.079 29.472,54.678 31.771,58.707 C32.869,60.627 33.881,62.442 34.408,63.961 C35.358,66.788 36.055,69.699 36.498,72.652 C36.561,76.766 39.895,80.246 43.861,80.246 L56.117,80.246 C60.062,80.246 63.417,76.766 63.48,72.652 C63.924,69.699 64.621,66.807 65.57,63.98 C66.098,62.44 67.11,60.647 68.186,58.748 C70.485,54.676 73.102,50.057 73.102,44.846 C73.102,38.749 70.654,32.885 66.266,28.623 C61.761,24.15 55.87,21.913 49.979,21.915997 Z M7.641,28.539 C7.1185,28.517 6.5991,28.777 6.309,29.256 C5.8871,29.952 6.1187,30.859 6.8149,31.281 L6.8363,31.301 L17.2793,37.355 C17.9763,37.756 18.8833,37.524 19.3053,36.828 C19.7273,36.132 19.4743,35.225 18.7773,34.803 L8.3343,28.748 C8.1167,28.616 7.8784,28.549 7.6409,28.539 L7.641,28.539 Z M92.93,28.553 C92.693,28.56 92.454,28.623 92.236,28.748 L81.793,34.803 C81.097,35.204 80.843,36.111 81.244,36.828 C81.518,37.271 82.004,37.547 82.531,37.547 C82.784,37.547 83.037,37.482 83.27,37.355 L93.713,31.301 C94.409,30.879 94.641,29.974 94.24,29.277 C93.965,28.799 93.451,28.538 92.93,28.553 L92.93,28.553 Z M1.477,53.453 C0.65418,53.453 0.0004,54.107 0.0004,54.93 C0.0004,55.752 0.65418,56.406 1.477,56.406 L16.877,56.406 C17.7,56.406 18.354,55.752 18.354,54.93 C18.354,54.107 17.7,53.453 16.877,53.453 L1.477,53.453 Z M83.123,53.453 C82.3,53.453 81.646,54.107 81.646,54.93 C81.646,55.752 82.3,56.406 83.123,56.406 L98.523,56.406 C99.346,56.406 100,55.752 100,54.93 C100,54.107 99.346,53.453 98.523,53.453 L83.123,53.453 Z M40.084,82.357 C39.261,82.357 38.607,83.011 38.607,83.834 C38.607,84.657 39.261,85.311 40.084,85.311 L59.916,85.311 C60.739,85.311 61.393,84.657 61.393,83.834 C61.393,83.011 60.739,82.357 59.916,82.357 L40.084,82.357 Z M42.193,87.42 C41.371,87.42 40.717,88.074 40.717,88.896 C40.717,89.719 41.371,90.373 42.193,90.373 L57.807,90.373 C58.629,90.373 59.283,89.719 59.283,88.896 C59.283,88.074 58.629,87.42 57.807,87.42 L42.193,87.42 L42.193,87.42 Z M44.305,92.482 C43.482,92.482 42.826,93.136 42.826,93.959 C42.826,94.782 43.482,95.438 44.305,95.438 L55.695,95.438 C56.518,95.438 57.174,94.782 57.174,93.959 C57.174,93.136 56.518,92.482 55.695,92.482 L44.305,92.482 Z" id="Shape"></path>
        </g>
    </g>
</svg>