<?xml version="1.0" encoding="UTF-8"?>
<svg width="24px" height="24px" viewBox="0 0 24 24" version="1.1" xmlns="http://www.w3.org/2000/svg" xmlns:xlink="http://www.w3.org/1999/xlink">
    <!-- Generator: Sketch 63.1 (92452) - https://sketch.com -->
    <title>linkedin</title>
    <desc>Created with Sketch.</desc>
    <g id="Page-1" stroke="none" stroke-width="1" fill="none" fill-rule="evenodd">
        <g id="Home" transform="translate(-755.000000, -7617.000000)" fill="#3C3C3C" fill-rule="nonzero">
            <g id="footer" transform="translate(-392.000000, 6980.000000)">
                <g id="4" transform="translate(952.000000, 637.000000)">
                    <g id="socials">
                        <path d="M215.484375,0 L198.515625,0 C196.577271,0 195,1.57727053 195,3.515625 L195,20.484375 C195,22.4227295 196.577271,24 198.515625,24 L215.484375,24 C217.422729,24 219,22.4227295 219,20.484375 L219,3.515625 C219,1.57727053 217.422729,0 215.484375,0 Z M203.484375,19.03125 L200.671875,19.03125 L200.671875,9.1875 L203.484375,9.1875 L203.484375,19.03125 Z M203.484375,7.78125 L200.671875,7.78125 L200.671875,4.96875 L203.484375,4.96875 L203.484375,7.78125 Z M213.328125,19.03125 L210.515625,19.03125 L210.515625,13.40625 C210.515625,12.6309815 209.884644,12 209.109375,12 C208.334106,12 207.703125,12.6309815 207.703125,13.40625 L207.703125,19.03125 L204.890625,19.03125 L204.890625,9.1875 L207.703125,9.1875 L207.703125,9.71759034 C208.439941,9.48852539 208.918579,9.1875 209.8125,9.1875 C211.71991,9.18951417 213.328125,10.9006348 213.328125,12.9228516 L213.328125,19.03125 Z" id="linkedin"></path>
                    </g>
                </g>
            </g>
        </g>
    </g>
</svg>