<?xml version="1.0" encoding="UTF-8"?>
<svg width="56px" height="96px" viewBox="0 0 56 96" version="1.1" xmlns="http://www.w3.org/2000/svg" xmlns:xlink="http://www.w3.org/1999/xlink">
    <title>noun_Question_1864270</title>
    <g id="Cab9" stroke="none" stroke-width="1" fill="none" fill-rule="evenodd">
        <g id="noun_Learning_3254194" transform="translate(-184.000000, -137.000000)" fill="#222222" fill-rule="nonzero">
            <g id="noun_Question_1864270" transform="translate(184.000000, 137.000000)">
                <g id="Group">
                    <path d="M54.7,22.8 C52.8,11.8 43.8,2.8 32.8,0.9 C24.7,-0.6 16.6,1.6 10.5,6.8 C4.3,12 0.8,19.6 0.8,27.6 C0.8,31.4 3.9,34.4 7.6,34.4 C11.4,34.4 14.4,31.4 14.4,27.6 C14.4,23.6 16.2,19.8 19.2,17.2 C22.3,14.6 26.3,13.6 30.4,14.3 C35.7,15.2 40.3,19.8 41.2,25.1 C42.6,32.8 37.6,38.7 32.1,40.5 C25.5,42.6 21.1,48.8 21.1,56 L21.1,64.7 C21.1,68.5 24.2,71.5 27.9,71.5 C31.7,71.5 34.7,68.5 34.7,64.7 L34.7,56 C34.7,54.8 35.4,53.8 36.3,53.5 C49.4,49.3 57.1,36.4 54.7,22.8 Z" id="Path"></path>
                    <path d="M28,78.2 C23.2,78.2 19.4,82.1 19.4,86.8 C19.4,91.6 23.3,95.4 28,95.4 C32.8,95.4 36.6,91.5 36.6,86.8 C36.7,82.1 32.8,78.2 28,78.2 Z" id="Path"></path>
                </g>
            </g>
        </g>
    </g>
</svg>