<?xml version="1.0" encoding="UTF-8"?>
<svg width="24px" height="24px" viewBox="0 0 24 24" version="1.1" xmlns="http://www.w3.org/2000/svg" xmlns:xlink="http://www.w3.org/1999/xlink">
    <!-- Generator: Sketch 63.1 (92452) - https://sketch.com -->
    <title>tumblr</title>
    <desc>Created with Sketch.</desc>
    <g id="Page-1" stroke="none" stroke-width="1" fill="none" fill-rule="evenodd">
        <g id="Home" transform="translate(-560.000000, -7617.000000)" fill="#3C3C3C" fill-rule="nonzero">
            <g id="footer" transform="translate(-392.000000, 6980.000000)">
                <g id="4" transform="translate(952.000000, 637.000000)">
                    <g id="socials">
                        <path d="M19.5,0 L4.5,0 C2.01415385,0 0,2.01415385 0,4.5 L0,19.5 C0,21.9858462 2.01415385,24 4.5,24 L19.5,24 C21.9858462,24 24,21.9858462 24,19.5 L24,4.5 C24,2.01415385 21.9858462,0 19.5,0 Z M13.5481567,18.7765503 C10.5952148,18.8274536 9.47662355,16.6730347 9.47662355,15.1565552 L9.47662355,10.7277832 L8.10461428,10.7277832 L8.10461428,8.97692869 C10.1612549,8.23535156 10.6556396,6.38049319 10.7717285,5.32379152 C10.7797852,5.25109866 10.8369141,5.22253416 10.8695068,5.22253416 L12.8545532,5.22253416 L12.8545532,8.67553711 L15.5674439,8.67553711 L15.5674439,10.7279663 L12.8452148,10.7279663 L12.8452148,14.9476318 C12.8540039,15.5213013 13.0645752,16.3126831 14.1498413,16.2835693 C14.5092773,16.2745972 14.9912109,16.170044 15.2433472,16.0497436 L15.8952026,17.9824219 C15.65094,18.3425903 14.5444336,18.7595215 13.5481567,18.7765503 Z" id="tumblr"></path>
                    </g>
                </g>
            </g>
        </g>
    </g>
</svg>