<?xml version="1.0" encoding="UTF-8"?>
<svg width="94px" height="78px" viewBox="0 0 94 78" version="1.1" xmlns="http://www.w3.org/2000/svg" xmlns:xlink="http://www.w3.org/1999/xlink">
    <title>noun_Work_1427949</title>
    <g id="Cab9" stroke="none" stroke-width="1" fill="none" fill-rule="evenodd">
        <g id="noun_Work_1427949" fill="#222222" fill-rule="nonzero">
            <g id="Group" transform="translate(0.000000, 0.637820)">
                <path d="M66.98204,0.36215 C74.16651,0.36215 79.99069,6.18245 79.99069,13.36215 C79.99069,20.54185 74.16651,26.36215 66.98204,26.36215 C59.79756,26.36215 53.97339,20.54185 53.97339,13.36215 C53.97339,6.18245 59.79756,0.36215 66.98204,0.36215 Z M2.53293,24.29965 C3.35379,24.25865 4.25283,24.61215 5.00333,25.36215 L17.07385,58.3622 L29.95742,58.3622 C27.95609,58.3622 25.95476,55.3622 25.95476,52.3622 C25.95476,49.3622 27.95609,46.3621 29.95742,46.3621 L65.98137,46.3621 L65.98137,36.3622 C65.98137,30.36215 73.98669,25.36215 79.99069,25.36215 C85.99468,25.36215 94,30.36215 94,36.3622 L94,76.3622 L65.98137,76.3622 L65.98137,61.0497 C69.64278,59.0627 73.13437,56.0181 75.76913,53.3934 C78.97168,50.1931 81.98976,46.6776 83.58683,44.5496 C84.02909,43.9767 84.13757,43.1454 83.83699,42.4871 C83.53642,41.8289 82.83994,41.3729 82.1171,41.3309 C81.44713,41.2849 80.76314,41.6023 80.36593,42.1433 C78.961,44.0154 75.9751,47.5 72.92349,50.5497 C70.12011,54.0476 66.97272,56.4973 62.69794,58.3622 L48.97006,58.3622 C51.97206,58.3622 52.97272,58.3622 52.97272,60.3622 C52.97272,62.3622 51.97206,64.3622 48.97006,64.3622 L56.97538,64.3622 C59.97738,64.3622 60.97804,66.3622 60.97804,68.3622 C60.97804,70.3622 59.97738,72.3622 56.97538,72.3622 L4.94079,72.3622 L4.94079,64.3622 L12.94611,64.3622 L0,27.36215 C0,25.48715 1.16483,24.36805 2.53293,24.29965 Z" id="Shape"></path>
            </g>
        </g>
    </g>
</svg>