<?xml version="1.0" encoding="UTF-8"?>
<svg width="274px" height="148px" viewBox="0 0 274 148" version="1.1" xmlns="http://www.w3.org/2000/svg" xmlns:xlink="http://www.w3.org/1999/xlink">
    <!-- Generator: Sketch 63.1 (92452) - https://sketch.com -->
    <title>Group 3</title>
    <desc>Created with Sketch.</desc>
    <defs>
        <filter x="-4.5%" y="-8.6%" width="109.0%" height="117.1%" filterUnits="objectBoundingBox" id="filter-1">
            <feOffset dx="0" dy="2" in="SourceAlpha" result="shadowOffsetOuter1"></feOffset>
            <feGaussianBlur stdDeviation="2" in="shadowOffsetOuter1" result="shadowBlurOuter1"></feGaussianBlur>
            <feColorMatrix values="0 0 0 0 0   0 0 0 0 0   0 0 0 0 0  0 0 0 0.5 0" type="matrix" in="shadowBlurOuter1" result="shadowMatrixOuter1"></feColorMatrix>
            <feMerge>
                <feMergeNode in="shadowMatrixOuter1"></feMergeNode>
                <feMergeNode in="SourceGraphic"></feMergeNode>
            </feMerge>
        </filter>
    </defs>
    <g id="Page-1" stroke="none" stroke-width="1" fill="none" fill-rule="evenodd">
        <g id="Agency" transform="translate(-195.000000, -2028.000000)">
            <g id="Asset-1@3x" transform="translate(148.000000, 1501.000000)">
                <g id="Group-3" filter="url(#filter-1)" transform="translate(50.384164, 529.000000)">
                    <g id="Asset-2" transform="translate(133.000000, 70.000000) scale(-1, 1) translate(-133.000000, -70.000000) ">
                        <rect id="Rectangle" fill="#840F09" fill-rule="nonzero" x="11.7357771" y="63.9730205" width="38.0853372" height="33.1956012"></rect>
                        <path d="M6.97947214,97.1686217 C4.46686217,97.5791789 2.32580645,99.2624633 2.32580645,101.82434 L2.32580645,120.958358 C2.3325634,123.526369 4.41146823,125.607108 6.97947214,125.616129 L49.8211144,97.1686217 L49.8211144,94.8387097 L40.1360704,94.8387097 C26.9982405,94.8387097 16.0178886,95.6331378 6.98357771,97.1686217 L6.97947214,97.1686217 Z" id="Path" fill="#B21B0F"></path>
                        <rect id="Rectangle" fill="#B21B0F" fill-rule="nonzero" x="14.0615836" y="63.9730205" width="38.0832845" height="30.588563"></rect>
                        <rect id="Rectangle" fill="#30D1CD" fill-rule="nonzero" opacity="0.61" x="16.3894428" y="66.298827" width="33.4296188" height="25.9328446"></rect>
                        <rect id="Rectangle" fill="#38D0E5" fill-rule="nonzero" opacity="0.3" x="16.3894428" y="81.8507331" width="33.3351906" height="2.32991202"></rect>
                        <rect id="Rectangle" fill="#38D0E5" fill-rule="nonzero" opacity="0.3" x="16.2190616" y="66.298827" width="33.6" height="4.65571848"></rect>
                        <rect id="Rectangle" fill="#1E1103" fill-rule="nonzero" x="180.043695" y="106.898827" width="33.4747801" height="18.7173021"></rect>
                        <rect id="Rectangle" fill="#1E1103" fill-rule="nonzero" x="6.98357771" y="106.898827" width="35.8046921" height="18.7173021"></rect>
                        <path d="M263.013196,125.616129 L213.520528,125.616129 C213.520528,116.371757 206.026484,108.877713 196.782111,108.877713 C187.537739,108.877713 180.043695,116.371757 180.043695,125.616129 L42.7882698,125.616129 C42.7714333,117.959798 37.5661166,111.289092 30.1435211,109.411657 C22.7209257,107.534223 14.9699891,110.927839 11.314956,117.655425 L6.97947214,117.655425 L6.97947214,104.339003 C6.97947214,100.43871 21.786217,97.1686217 35.5131965,97.1686217 L49.8211144,97.1686217 L49.8211144,61.6431085 L263.013196,61.6431085 L263.013196,125.616129 Z" id="Path" fill="#FF4C3E"></path>
                        <path d="M229.583578,63.9730205 L52.1407625,63.9730205 L52.1407625,99.4964809 L35.5131965,99.4964809 C34.4868035,99.4964809 33.4604106,99.4964809 32.4340176,99.543695 C27.2199413,99.7284457 21.6794721,100.334018 16.6029326,101.545161 C15.2994135,101.871554 10.1797654,103.314663 9.29501466,104.523754 L9.29501466,115.325513 L9.99296188,115.325513 C14.3313343,108.560909 22.4444508,105.24144 30.2802858,107.024987 C38.1161209,108.808533 43.993309,115.312393 44.9765396,123.28827 L177.857478,123.28827 C179.032615,113.741473 187.141707,106.569345 196.760557,106.569345 C206.379408,106.569345 214.488499,113.741473 215.663636,123.28827 L222.6,123.28827 L222.6,70.9565982 C222.6,67.1019422 225.724816,63.9771261 229.579472,63.9771261 L229.583578,63.9730205 Z" id="Path" fill="#D81C0E"></path>
                        <path d="M212.496188,72.537146 L180.883284,72.537146 C179.13569,72.5406353 177.720148,73.9570961 177.717889,75.7046921 L177.717889,91.3941349 C177.735656,93.1352577 179.142174,94.5426873 180.883284,94.5615836 L212.496188,94.5615836 C214.244584,94.5593217 215.661375,93.1425308 215.663734,91.3941349 L215.663734,75.7046921 C215.670263,74.8626185 215.338679,74.0531097 214.743224,73.4576554 C214.14777,72.862201 213.338261,72.5306169 212.496188,72.537146 L212.496188,72.537146 Z" id="Path" fill="#FF4C3E"></path>
                        <path d="M212.496188,74.8671452 C212.718651,74.8660568 212.932321,74.9539442 213.089628,75.1112516 C213.246936,75.2685589 213.334823,75.4822286 213.333735,75.7046921 L213.333735,91.3941349 C213.320892,91.8516149 212.953635,92.2197723 212.496188,92.2337243 L180.883284,92.2337243 C180.425473,92.2198256 180.057594,91.8519467 180.043692,91.3941349 L180.043692,75.7046921 C180.043145,75.4820393 180.131491,75.2683772 180.289124,75.1111302 C180.446756,74.9538833 180.660634,74.8660606 180.883284,74.8671452 L212.496188,74.8671452 Z" id="Path" fill="#30D1CD" opacity="0.68"></path>
                        <path d="M212.496188,74.8671452 L180.883284,74.8671452 C180.660634,74.8660606 180.446756,74.9538833 180.289124,75.1111302 C180.131491,75.2683772 180.043145,75.4820393 180.043692,75.7046921 L180.043692,79.5208211 L213.333735,79.5208211 L213.333735,75.7046921 C213.334823,75.4822286 213.246936,75.2685589 213.089628,75.1112516 C212.932321,74.9539442 212.718651,74.8660568 212.496188,74.8671452 L212.496188,74.8671452 Z" id="Path" fill="#38D0E5" opacity="0.3"></path>
                        <path d="M172.228739,72.5372434 L140.562463,72.5372434 C138.814401,72.5395074 137.398198,73.9566283 137.397067,75.7046921 L137.397067,91.3941349 C137.414835,93.1352577 138.821352,94.5426873 140.562463,94.5615836 L172.228739,94.5615836 C173.96985,94.5426873 175.376367,93.1352577 175.394135,91.3941349 L175.394135,75.7046921 C175.391876,73.9570961 173.976333,72.5406353 172.228739,72.5372434 L172.228739,72.5372434 Z" id="Path" fill="#FF4C3E"></path>
                        <path d="M172.228739,74.8671452 C172.451203,74.8660568 172.664872,74.9539442 172.82218,75.1112516 C172.979487,75.2685589 173.067374,75.4822286 173.066286,75.7046921 L173.066286,91.3941349 C173.053443,91.8516149 172.686186,92.2197723 172.228739,92.2337243 L140.562463,92.2337243 C140.112528,92.2028606 139.754689,91.8441441 139.724927,91.3941349 L139.724927,75.7046921 C139.738824,75.2480135 140.105785,74.8810523 140.562463,74.8671452 L172.228739,74.8671452 Z" id="Path" fill="#30D1CD" opacity="0.68"></path>
                        <path d="M172.228739,74.8671452 L140.562463,74.8671452 C140.105785,74.8810523 139.738824,75.2480135 139.724927,75.7046921 L139.724927,79.5208211 L173.060127,79.5208211 L173.060127,75.7046921 C173.061216,75.4822286 172.973329,75.2685589 172.816021,75.1112516 C172.658714,74.9539442 172.445044,74.8660568 172.222581,74.8671452 L172.228739,74.8671452 Z" id="Path" fill="#38D0E5" opacity="0.3"></path>
                        <path d="M131.903812,72.5371613 L100.290909,72.5371613 C99.4490042,72.5311764 98.6398214,72.8629402 98.0444893,73.4582723 C97.4491572,74.0536044 97.1173934,74.8627872 97.1233786,75.7046921 L97.1233786,91.3941349 C97.126849,93.142063 98.542981,94.558195 100.290909,94.5615836 L131.903812,94.5615836 C133.653478,94.5615836 135.072181,93.1438005 135.073428,91.3941349 L135.073428,75.7046921 C135.080486,74.8631672 134.749643,74.0539655 134.15496,73.4585101 C133.560276,72.8630548 132.751504,72.5311624 131.909971,72.5371613 L131.903812,72.5371613 Z" id="Path" fill="#FF4C3E"></path>
                        <path d="M131.903812,74.8671452 C132.126108,74.8666086 132.339457,74.9546732 132.496644,75.1118605 C132.653831,75.2690477 132.741896,75.4823964 132.741352,75.7046921 L132.741352,91.3941349 C132.727508,91.8511803 132.360822,92.2187643 131.903812,92.2337243 L100.290909,92.2337243 C99.8334619,92.2197723 99.4662047,91.8516149 99.4533623,91.3941349 L99.4533623,75.7046921 C99.4522738,75.4822286 99.5401612,75.2685589 99.6974686,75.1112516 C99.854776,74.9539442 100.068446,74.8660568 100.290909,74.8671452 L131.903812,74.8671452 Z" id="Path" fill="#30D1CD" opacity="0.68"></path>
                        <path d="M131.903812,74.8671452 L100.290909,74.8671452 C100.068446,74.8660568 99.854776,74.9539442 99.6974686,75.1112516 C99.5401612,75.2685589 99.4522738,75.4822286 99.4533623,75.7046921 L99.4533623,79.5208211 L132.741352,79.5208211 L132.741352,75.7046921 C132.741896,75.4823964 132.653831,75.2690477 132.496644,75.1118605 C132.339457,74.9546732 132.126108,74.8666086 131.903812,74.8671452 L131.903812,74.8671452 Z" id="Path" fill="#38D0E5" opacity="0.3"></path>
                        <path d="M91.5829912,72.5370939 L59.970088,72.5370939 C58.2228272,72.540638 56.8078732,73.9574283 56.8067449,75.7046921 L56.8067449,91.3941349 C56.8234027,93.1349256 58.2293204,94.5426679 59.970088,94.5615845 L91.5829912,94.5615845 C93.340233,94.5628655 94.772007,93.1512187 94.7956012,91.3941349 L94.7956012,75.7046921 C94.7918169,74.8579527 94.4506824,74.047646 93.8477182,73.453158 C93.244754,72.85867 92.4296993,72.5290406 91.5829912,72.5370939 Z" id="Path" fill="#FF4C3E"></path>
                        <path d="M91.5829912,74.8671075 C92.0554328,74.8622627 92.4467442,75.232692 92.4677419,75.7046921 L92.4677419,91.3941349 C92.4311303,91.859171 92.0493062,92.2215053 91.5829912,92.2337243 L59.970088,92.2337243 C59.5130778,92.2187643 59.1463926,91.8511803 59.1325488,91.3941349 L59.1325488,75.7046921 C59.1320045,75.4823964 59.2200691,75.2690477 59.3772564,75.1118605 C59.5344436,74.9546732 59.7477923,74.8666086 59.970088,74.8671075 L91.5829912,74.8671075 Z" id="Path" fill="#30D1CD" opacity="0.68"></path>
                        <path d="M91.5829912,74.8671554 L59.970088,74.8671554 C59.7477923,74.8666086 59.5344436,74.9546732 59.3772564,75.1118605 C59.2200691,75.2690477 59.1320045,75.4823964 59.1325488,75.7046921 L59.1325488,79.5208211 L92.4697947,79.5208211 L92.4697947,75.7046921 C92.4487969,75.232692 92.0574856,74.8622627 91.585044,74.8671554 L91.5829912,74.8671554 Z" id="Path" fill="#38D0E5" opacity="0.3"></path>
                        <rect id="Rectangle" fill="#C1B399" fill-rule="nonzero" x="59.1304985" y="81.8507331" width="33.3372434" height="2.32991202"></rect>
                        <rect id="Rectangle" fill="#C1B399" fill-rule="nonzero" x="139.724927" y="81.8507331" width="33.3351906" height="2.32991202"></rect>
                        <path d="M242.062463,0 L30.4038123,0 C18.5325513,0 9.45307918,8.05307918 8.75513196,17.4589443 L6.97947214,41.7167155 L6.97947214,61.6431085 L265.341056,61.6431085 L265.341056,25.2800587 C265.341056,3.95777126 250.907918,0 242.062463,0 Z" id="Path" fill="#FF4C3E"></path>
                        <path d="M263.013196,59.3255132 L9.31348974,59.3255132 L9.31348974,41.7741935 L11.085044,17.6539589 C11.1702782,16.740213 11.325375,15.8343378 11.5489736,14.9442815 C13.8296188,6.79677419 22.3958944,2.32785924 30.4038123,2.32785924 L242.062463,2.32785924 C246.810557,2.32785924 251.790616,3.53900293 255.61085,6.47243402 C261.383284,10.988563 263.013196,18.2964809 263.013196,25.2800587 L263.013196,59.3255132 Z" id="Path" fill="#D81C0E"></path>
                        <path d="M196.759531,140 C204.70439,139.998866 211.144157,133.557567 211.143402,125.612708 C211.142646,117.667849 204.701653,111.227775 196.756794,111.228153 C188.811935,111.22853 182.371554,117.669217 182.371554,125.614076 C182.398593,133.548776 188.824827,139.974093 196.759531,140 L196.759531,140 Z" id="Path" fill="#381202"></path>
                        <path d="M196.759531,135.997067 C200.959246,135.997067 204.745391,133.467111 206.35236,129.587001 C207.959329,125.706891 207.070629,121.24082 204.100688,118.271467 C201.130748,115.302114 196.664502,114.414296 192.784709,116.022032 C188.904917,117.629769 186.375709,121.416414 186.376539,125.616129 C186.403513,131.338953 191.036702,135.971225 196.759531,135.997067 L196.759531,135.997067 Z" id="Path" fill="#1E1103"></path>
                        <path d="M196.759531,133.576833 C201.155839,133.575699 204.718937,130.011069 204.718182,125.614761 C204.717426,121.218453 201.153102,117.655048 196.756794,117.655426 C192.360486,117.655803 188.796774,121.219821 188.796774,125.616129 C188.811425,130.007422 192.368234,133.563314 196.759531,133.576833 L196.759531,133.576833 Z" id="Path" fill="#C1B399"></path>
                        <path d="M196.759531,121.145161 C194.951007,121.144331 193.3201,122.233121 192.627432,123.903741 C191.934764,125.574361 192.316774,127.497741 193.595301,128.776854 C194.873827,130.055968 196.797031,130.438861 198.467969,129.746961 C200.138907,129.05506 201.228446,127.424653 201.228446,125.616129 C201.227314,123.148152 199.227507,121.147426 196.759531,121.145161 Z" id="Path" fill="#1E1103"></path>
                        <path d="M196.759531,123.846628 C197.736799,123.846628 198.529032,124.63886 198.529032,125.616129 C198.529032,126.593398 197.736799,127.38563 196.759531,127.38563 C195.782262,127.38563 194.990029,126.593398 194.990029,125.616129 C194.990029,124.63886 195.782262,123.846628 196.759531,123.846628 Z" id="Path" fill="#C1B399"></path>
                        <path d="M196.759531,119.006158 C196.916137,118.99489 197.070535,119.048178 197.186854,119.15364 C197.303173,119.259102 197.371285,119.407558 197.375367,119.564516 C197.32138,119.856501 197.066729,120.068386 196.769795,120.068386 C196.472861,120.068386 196.218209,119.856501 196.164223,119.564516 C196.168304,119.407558 196.236417,119.259102 196.352735,119.15364 C196.469054,119.048178 196.623453,118.99489 196.780059,119.006158 L196.759531,119.006158 Z" id="Path" fill="#1E1103"></path>
                        <path d="M196.759531,131.06217 C197.00954,131.062205 197.234718,131.213383 197.329405,131.444768 C197.424092,131.676153 197.369495,131.94182 197.191232,132.117111 C197.01297,132.292403 196.746422,132.342527 196.516662,132.243965 C196.286901,132.145403 196.139528,131.917716 196.143695,131.667742 C196.149297,131.33164 196.423382,131.062123 196.759531,131.06217 Z" id="Path" fill="#1E1103"></path>
                        <path d="M192.056598,120.909091 C192.226106,120.738996 192.481437,120.687863 192.703373,120.779567 C192.925309,120.871271 193.070073,121.087723 193.070073,121.327859 C193.070073,121.567995 192.925309,121.784448 192.703373,121.876152 C192.481437,121.967856 192.226106,121.916723 192.056598,121.746628 C191.944774,121.635968 191.881852,121.485181 191.881852,121.327859 C191.881852,121.170537 191.944774,121.01975 192.056598,120.909091 L192.056598,120.909091 Z" id="Path" fill="#1E1103"></path>
                        <path d="M200.622874,129.479472 C200.854642,129.248035 201.230116,129.248215 201.461663,129.479872 C201.69321,129.71153 201.69321,130.087004 201.461663,130.318662 C201.230116,130.550319 200.854642,130.550498 200.622874,130.319062 C200.511433,130.20778 200.448813,130.056755 200.448813,129.899267 C200.448813,129.741779 200.511433,129.590753 200.622874,129.479472 L200.622874,129.479472 Z" id="Path" fill="#1E1103"></path>
                        <path d="M190.147507,125.616129 C190.140845,125.462422 190.195862,125.312422 190.300328,125.199475 C190.404795,125.086528 190.550053,125.019994 190.703812,125.014663 C190.928202,125.001582 191.141378,125.113861 191.25752,125.3063 C191.373663,125.49874 191.373663,125.739677 191.25752,125.932116 C191.141378,126.124555 190.928202,126.236835 190.703812,126.223754 C190.549319,126.218972 190.403208,126.152387 190.29824,126.038929 C190.193272,125.925471 190.13823,125.774633 190.145455,125.620235 L190.147507,125.616129 Z" id="Path" fill="#1E1103"></path>
                        <path d="M202.199413,125.616129 C202.194437,125.364874 202.342625,125.135801 202.573836,125.037337 C202.805047,124.938872 203.072891,124.990773 203.25059,125.168471 C203.428289,125.34617 203.480189,125.614015 203.381725,125.845226 C203.283261,126.076437 203.054187,126.224625 202.802933,126.219648 C202.472368,126.2131 202.205961,125.946693 202.199413,125.616129 L202.199413,125.616129 Z" id="Path" fill="#1E1103"></path>
                        <path d="M192.056598,130.319062 C191.825162,130.087294 191.825341,129.711819 192.056998,129.480272 C192.288656,129.248725 192.66413,129.248725 192.895788,129.480272 C193.127445,129.711819 193.127624,130.087294 192.896188,130.319062 C192.784906,130.430502 192.633881,130.493122 192.476393,130.493122 C192.318905,130.493122 192.167879,130.430502 192.056598,130.319062 L192.056598,130.319062 Z" id="Path" fill="#1E1103"></path>
                        <path d="M200.622874,121.750733 C200.391437,121.518965 200.391616,121.143491 200.623274,120.911944 C200.854932,120.680397 201.230406,120.680397 201.462063,120.911944 C201.693721,121.143491 201.6939,121.518965 201.462463,121.750733 C201.351452,121.862681 201.200326,121.925651 201.042669,121.925651 C200.885012,121.925651 200.733885,121.862681 200.622874,121.750733 L200.622874,121.750733 Z" id="Path" fill="#1E1103"></path>
                        <rect id="Rectangle" fill="#C1B399" fill-rule="nonzero" x="9.31348974" y="61.6431085" width="253.699707" height="4.65571848"></rect>
                        <path d="M26.0272727,140 C33.972399,140 40.4131965,133.559203 40.4131965,125.614076 C40.4131965,117.66895 33.972399,111.228152 26.0272727,111.228152 C18.0821464,111.228152 11.641349,117.66895 11.641349,125.614076 C11.6683812,133.547978 18.0933705,139.972968 26.0272727,140 Z" id="Path" fill="#381202"></path>
                        <path d="M26.0272727,135.997068 C30.2271742,135.997898 34.0139493,133.468467 35.6215656,129.588423 C37.2291818,125.708379 36.3409876,121.241972 33.3712088,118.272193 C30.40143,115.302414 25.9350226,114.41422 22.0549784,116.021836 C18.1749343,117.629452 15.645504,121.416228 15.6463341,125.616129 C15.6721851,131.338621 20.3047807,135.971217 26.0272727,135.997068 L26.0272727,135.997068 Z" id="Path" fill="#1E1103"></path>
                        <path d="M26.0272727,133.576833 C30.4235806,133.575699 33.9866794,130.011069 33.9859238,125.614761 C33.9851679,121.218453 30.4208439,117.655048 26.0245359,117.655426 C21.6282278,117.655803 18.0645161,121.219821 18.0645161,125.616129 C18.0891904,130.002443 21.6389057,133.552159 26.0252199,133.576833 L26.0272727,133.576833 Z" id="Path" fill="#C1B399"></path>
                        <path d="M26.0272727,121.145161 C24.2187485,121.144331 22.5878415,122.233121 21.8951738,123.903741 C21.2025061,125.574361 21.5845163,127.497741 22.8630425,128.776854 C24.1415687,130.055968 26.0647726,130.438861 27.7357108,129.746961 C29.4066489,129.05506 30.4961877,127.424653 30.4961877,125.616129 C30.4961877,123.147683 28.4957183,121.146295 26.0272727,121.145161 Z" id="Path" fill="#1E1103"></path>
                        <path d="M26.0272727,123.846628 C26.6734572,123.824609 27.2802065,124.15678 27.6098227,124.71301 C27.939439,125.269241 27.939439,125.960965 27.6098227,126.517195 C27.2802065,127.073426 26.6734572,127.405596 26.0272727,127.383578 C25.074013,127.351095 24.318032,126.568916 24.318032,125.615103 C24.318032,124.66129 25.074013,123.87911 26.0272727,123.846628 L26.0272727,123.846628 Z" id="Path" fill="#C1B399"></path>
                        <path d="M26.0272727,119.006158 C26.1838786,118.99489 26.3382773,119.048178 26.454596,119.15364 C26.5709148,119.259102 26.6390273,119.407558 26.6431085,119.564516 C26.6364012,119.899813 26.3626369,120.168102 26.0272727,120.168035 C25.8727795,120.163254 25.7266685,120.096669 25.6217006,119.983211 C25.5167326,119.869753 25.4616902,119.718914 25.468915,119.564516 C25.4630795,119.414718 25.5200302,119.269281 25.6260341,119.163277 C25.7320379,119.057274 25.8774742,119.000323 26.0272727,119.006158 L26.0272727,119.006158 Z" id="Path" fill="#1E1103"></path>
                        <path d="M26.0272727,131.06217 C26.2702181,131.017251 26.5164909,131.121871 26.6528245,131.327913 C26.7891582,131.533955 26.7891582,131.801529 26.6528245,132.007571 C26.5164909,132.213613 26.2702181,132.318233 26.0272727,132.273314 C25.7352875,132.219328 25.5234032,131.964676 25.5234032,131.667742 C25.5234032,131.370808 25.7352875,131.116156 26.0272727,131.06217 Z" id="Path" fill="#1E1103"></path>
                        <path d="M21.3715543,120.909091 C21.6026444,120.678802 21.9765997,120.679235 22.2071561,120.910058 C22.4377125,121.140881 22.4377125,121.514837 22.2071561,121.74566 C21.9765997,121.976484 21.6026444,121.976917 21.3715543,121.746628 C21.2592156,121.636244 21.1959374,121.485354 21.1959374,121.327859 C21.1959374,121.170365 21.2592156,121.019474 21.3715543,120.909091 L21.3715543,120.909091 Z" id="Path" fill="#1E1103"></path>
                        <path d="M29.8926686,129.479472 C30.1244367,129.248035 30.4999107,129.248215 30.7314579,129.479872 C30.9630051,129.71153 30.9630051,130.087004 30.7314579,130.318662 C30.4999107,130.550319 30.1244367,130.550498 29.8926686,130.319062 C29.7807212,130.20805 29.7177506,130.056924 29.7177506,129.899267 C29.7177506,129.74161 29.7807212,129.590483 29.8926686,129.479472 Z" id="Path" fill="#1E1103"></path>
                        <path d="M19.4173021,125.616129 C19.4126914,125.454882 19.4748639,125.298886 19.5891238,125.185015 C19.7033837,125.071143 19.8595904,125.009503 20.0208211,125.014663 C20.3102735,125.070864 20.519275,125.32435 20.519275,125.619208 C20.519275,125.914066 20.3102735,126.167552 20.0208211,126.223754 C19.859223,126.228943 19.7026821,126.167026 19.5883561,126.0527 C19.47403,125.938374 19.412113,125.781833 19.4173021,125.620235 L19.4173021,125.616129 Z" id="Path" fill="#1E1103"></path>
                        <path d="M31.4753666,125.616129 C31.4703782,125.365059 31.618335,125.136107 31.8492901,125.037512 C32.0802452,124.938916 32.3479326,124.990429 32.5258025,125.167695 C32.7036725,125.344962 32.7560932,125.612473 32.6582827,125.843762 C32.5604722,126.07505 32.3320244,126.223784 32.0809384,126.219648 C31.7495728,126.21419 31.4819498,125.947474 31.4753666,125.616129 L31.4753666,125.616129 Z" id="Path" fill="#1E1103"></path>
                        <path d="M21.3715543,130.319062 C21.2014589,130.149554 21.150326,129.894223 21.2420301,129.672287 C21.3337343,129.450351 21.5501865,129.305587 21.7903226,129.305587 C22.0304587,129.305587 22.2469109,129.450351 22.338615,129.672287 C22.4303192,129.894223 22.3791863,130.149554 22.2090909,130.319062 C21.9775775,130.549775 21.6030676,130.549775 21.3715543,130.319062 Z" id="Path" fill="#1E1103"></path>
                        <path d="M29.8926686,121.750733 C29.6623795,121.519643 29.6628123,121.145688 29.8936358,120.915131 C30.1244592,120.684575 30.4984147,120.684575 30.7292381,120.915131 C30.9600616,121.145688 30.9604944,121.519643 30.7302053,121.750733 C30.6198218,121.863072 30.4689314,121.92635 30.311437,121.92635 C30.1539425,121.92635 30.0030521,121.863072 29.8926686,121.750733 L29.8926686,121.750733 Z" id="Path" fill="#1E1103"></path>
                        <path d="M261.849267,106.572434 L26.0272727,106.572434 C25.3885994,106.582338 24.8732468,107.09769 24.8633431,107.736364 L24.8633431,107.736364 C24.8732468,108.375037 25.3885994,108.89039 26.0272727,108.900293 L261.849267,108.900293 C262.1588,108.90306 262.45646,108.78132 262.675342,108.562438 C262.894223,108.343557 263.015963,108.045897 263.013243,107.736364 L263.013243,107.736364 C263.015963,107.426831 262.894223,107.12917 262.675342,106.910289 C262.45646,106.691407 262.1588,106.569668 261.849267,106.572434 L261.849267,106.572434 Z" id="Path" fill="#FF4C3E"></path>
                        <path d="M40.4604106,125.616129 L40.4604106,130.132258 C40.4576442,130.441791 40.5793837,130.739451 40.7982653,130.958333 C41.017147,131.177215 41.3148071,131.298954 41.6243402,131.296234 L41.6243402,131.296234 C42.2630135,131.286284 42.7783661,130.770931 42.7882698,130.132258 L42.7882698,125.616129 C42.7783661,124.977456 42.2630135,124.462103 41.6243402,124.452153 L41.6243402,124.452153 C41.3148071,124.449433 41.017147,124.571173 40.7982653,124.790054 C40.5793837,125.008936 40.4576442,125.306596 40.4604106,125.616129 L40.4604106,125.616129 Z" id="Path" fill="#1E1103"></path>
                        <path d="M211.192669,125.616129 L211.192669,130.132258 C211.189902,130.441791 211.311642,130.739451 211.530523,130.958333 C211.749405,131.177215 212.047065,131.298954 212.356598,131.296234 L212.356598,131.296234 C212.995272,131.286284 213.510624,130.770931 213.520528,130.132258 L213.520528,125.616129 C213.510624,124.977456 212.995272,124.462103 212.356598,124.452153 L212.356598,124.452153 C212.047065,124.449433 211.749405,124.571173 211.530523,124.790054 C211.311642,125.008936 211.189902,125.306596 211.192669,125.616129 L211.192669,125.616129 Z" id="Path" fill="#1E1103"></path>
                        <rect id="Rectangle" fill="#840F09" fill-rule="nonzero" x="42.7882698" y="125.616129" width="137.255425" height="4.51612903"></rect>
                        <path d="M175.669208,123.28827 L73.3316716,123.28827 C72.6929982,123.298173 72.1776456,123.813526 72.1677419,124.452199 L72.1677419,124.452199 C72.1776456,125.090873 72.6929982,125.606225 73.3316716,125.616129 L175.669208,125.616129 C175.978556,125.618904 176.276012,125.497101 176.49457,125.278157 C176.713128,125.059213 176.834406,124.761542 176.831152,124.452199 L176.831152,124.452199 C176.834406,124.142857 176.713128,123.845186 176.49457,123.626242 C176.276012,123.407298 175.978556,123.285495 175.669208,123.28827 Z" id="Path" fill="#FF4C3E"></path>
                        <path d="M2.32991202,101.818182 C1.04986174,101.838047 0.0176110678,102.872116 0,104.152199 L0,109.078886 C0.00451076542,110.363454 1.04533973,111.403366 2.32991202,111.406745 L2.32991202,101.818182 Z" id="Path" fill="#C1B399"></path>
                        <rect id="Rectangle" fill="#E0D3B8" fill-rule="nonzero" x="260.685337" y="61.6431085" width="4.65366569" height="4.65571848"></rect>
                        <rect id="Rectangle" fill="#E0D3B8" fill-rule="nonzero" x="6.98357771" y="61.6431085" width="2.32991202" height="4.65571848"></rect>
                        <path d="M63.5994135,112.531672 L59.9680352,112.531672 C58.2272676,112.550587 56.8213499,113.95833 56.8046921,115.69912 L56.8046921,116.908211 C56.8213499,118.649002 58.2272676,120.056744 59.9680352,120.07566 L63.5994135,120.07566 C65.3413261,120.057872 66.7490748,118.650124 66.7668622,116.908211 L66.7668622,115.69912 C66.7490748,113.957208 65.3413261,112.549459 63.5994135,112.531672 L63.5994135,112.531672 Z" id="Path" fill="#FF4C3E"></path>
                        <path d="M63.5994135,114.861584 C64.0490283,114.892216 64.4072701,115.249582 64.4390259,115.69912 L64.4390259,116.908211 C64.4406582,117.131387 64.3527334,117.345903 64.1949195,117.503717 C64.0371057,117.661531 63.8225898,117.749456 63.5994135,117.747824 L59.9680352,117.747824 C59.5114597,117.731841 59.1453402,117.364824 59.1304985,116.908211 L59.1304985,115.69912 C59.1453994,115.242876 59.5117911,114.876484 59.9680352,114.861584 L63.5994135,114.861584 Z" id="Path" fill="#381202"></path>
                        <path d="M263.98827,38.0381232 L8.47595308,38.0381232 C7.84201139,38.0644994 7.33505401,38.5741391 7.31202346,39.2082111 L7.31202346,39.2082111 C7.32195512,39.8465359 7.83761182,40.3612831 8.47595308,40.370088 L263.98827,40.370088 C264.297613,40.3734091 264.595283,40.252131 264.814227,40.0335731 C265.033171,39.8150153 265.154974,39.5175593 265.152246,39.2082111 L265.152246,39.2082111 C265.143394,38.5687363 264.627728,38.0521609 263.98827,38.0422287 L263.98827,38.0381232 Z" id="Path" fill="#FF4C3E"></path>
                        <path d="M14.5747801,66.3460411 C15.851675,66.3251672 16.8817655,65.2950768 16.9026393,64.0181818 C16.8981286,62.7347467 15.8582186,61.6957538 14.5747801,61.6923754 C13.9555501,61.6857332 13.3596869,61.9285058 12.921414,62.3660064 C12.4831411,62.803507 12.239318,63.3989411 12.244868,64.0181818 C12.2493788,65.3027506 13.2902078,66.3426626 14.5747801,66.3460411 Z" id="Path" fill="#81806E"></path>
                        <path d="M14.5747801,77.5686217 C15.199159,77.542406 15.6918497,77.0285947 15.6918497,76.4036657 C15.6918497,75.7787366 15.199159,75.2649253 14.5747801,75.2387097 C13.0587971,75.2364487 11.8304135,74.0080651 11.8281525,72.4920821 L11.8281525,67.8835777 C11.8304135,66.3675947 13.0587971,65.1392111 14.5747801,65.1369501 C15.1737525,65.0805663 15.6314866,64.5777201 15.6314866,63.9760997 C15.6314866,63.3744793 15.1737525,62.8716331 14.5747801,62.8152493 C11.773427,62.820896 9.50388724,65.0904358 9.49824047,67.8917889 L9.49824047,72.5002933 C9.50951793,75.2979721 11.7770866,77.5618731 14.5747801,77.5686217 Z" id="Path" fill="#1E1103"></path>
                        <path d="M16.3894428,83.71261 L18.8117302,83.71261 L18.8117302,69.3266862 L16.3894428,69.3266862 C15.1591608,69.3312093 14.1642229,70.3298269 14.1642229,71.5601173 L14.1642229,81.4791789 C14.1642229,82.7094693 15.1591608,83.7080868 16.3894428,83.71261 L16.3894428,83.71261 Z" id="Path" fill="#D81C0E"></path>
                        <rect id="Rectangle" fill="#C1B399" fill-rule="nonzero" x="16.3894428" y="69.3266862" width="2.42228739" height="14.3859238"></rect>
                        <path d="M216.872727,42.6979472 L55.6407625,42.6979472 C55.0017389,42.7078212 54.48578,43.2228716 54.4747337,43.8618768 L54.4747337,43.8618768 C54.4720051,44.1717694 54.5940248,44.4697475 54.8133537,44.6886903 C55.0326826,44.907633 55.3308753,45.0291275 55.6407625,45.0258065 L216.872727,45.0258065 C217.501831,45.0112241 218.000909,44.4910454 217.989637,43.8618768 L217.989637,43.8618768 C217.984745,43.2391582 217.494718,42.7284131 216.872727,42.6979472 L216.872727,42.6979472 Z" id="Path" fill="#FF4C3E"></path>
                        <rect id="Rectangle" fill="#FF4C3E" fill-rule="nonzero" x="215.663636" y="43.6730205" width="2.32785924" height="17.413783"></rect>
                        <rect id="Rectangle" fill="#FF4C3E" fill-rule="nonzero" x="54.4747801" y="43.6730205" width="2.32785924" height="17.413783"></rect>
                        <rect id="Rectangle" fill="#FF4C3E" fill-rule="nonzero" x="94.7956012" y="43.6730205" width="2.32785924" height="17.413783"></rect>
                        <rect id="Rectangle" fill="#FF4C3E" fill-rule="nonzero" x="135.067155" y="43.6730205" width="2.32991202" height="17.413783"></rect>
                        <rect id="Rectangle" fill="#FF4C3E" fill-rule="nonzero" x="175.387977" y="43.6730205" width="2.32785924" height="17.413783"></rect>
                        <path d="M6.97947214,104.291789 C5.70292711,104.312693 4.67344324,105.343085 4.65366569,106.619648 L4.65366569,106.619648 C4.67344324,107.896211 5.70292711,108.926604 6.97947214,108.947507 L6.97947214,104.291789 Z" id="Path" fill="#C1B399"></path>
                        <path d="M50.9829912,42.6979472 L8.80029326,42.6979472 C8.1616199,42.7078509 7.64626733,43.2232035 7.6363175,43.8618768 L7.6363175,43.8618768 C7.63359731,44.1714099 7.75533674,44.46907 7.97421842,44.6879517 C8.19310011,44.9068333 8.49076017,45.0285728 8.80029326,45.0258065 L50.9829912,45.0258065 C51.2925243,45.0285728 51.5901843,44.9068333 51.809066,44.6879517 C52.0279477,44.46907 52.1496871,44.1714099 52.146967,43.8618768 L52.146967,43.8618768 C52.1370171,43.2232035 51.6216646,42.7078509 50.9829912,42.6979472 L50.9829912,42.6979472 Z" id="Path" fill="#FF4C3E"></path>
                        <path d="M212.496188,8.66070381 L180.883284,8.66070381 C179.142505,8.67849094 177.735676,10.0853207 177.717889,11.8260997 L177.717889,27.5073314 C177.719019,29.2553951 179.135222,30.6725161 180.883284,30.6748775 L212.496188,30.6748775 C213.338261,30.6814065 214.14777,30.3498224 214.743224,29.7543681 C215.338679,29.1589137 215.670263,28.3494049 215.663734,27.5073314 L215.663734,11.8260997 C215.661372,10.0780371 214.244251,8.66183451 212.496188,8.66070381 L212.496188,8.66070381 Z" id="Path" fill="#FF4C3E"></path>
                        <path d="M212.496188,10.9865077 C212.953635,11.0004623 213.320892,11.3686197 213.333735,11.8260997 L213.333735,27.5073314 C213.334823,27.7297949 213.246936,27.9434645 213.089628,28.1007719 C212.932321,28.2580793 212.718651,28.3459666 212.496188,28.3448782 L180.883284,28.3448782 C180.660634,28.3459628 180.446756,28.2581402 180.289124,28.1008932 C180.131491,27.9436463 180.043145,27.7299842 180.043692,27.5073314 L180.043692,11.8260997 C180.043148,11.6032595 180.131429,11.3893888 180.289001,11.2318165 C180.446574,11.0742443 180.660444,10.9859634 180.883284,10.9865077 L212.496188,10.9865077 Z" id="Path" fill="#30D1CD" opacity="0.68"></path>
                        <path d="M212.496188,10.9865077 L180.883284,10.9865077 C180.660444,10.9859634 180.446574,11.0742443 180.289001,11.2318165 C180.131429,11.3893888 180.043148,11.6032595 180.043692,11.8260997 L180.043692,15.6442815 L213.333724,15.6442815 L213.333724,11.8260997 C213.320892,11.3686197 212.953635,11.0004623 212.496188,10.9865077 L212.496188,10.9865077 Z" id="Path" fill="#30D1CD" opacity="0.3"></path>
                        <path d="M172.228739,8.66070381 L140.562463,8.66070381 C138.821684,8.67849094 137.414855,10.0853207 137.397067,11.8260997 L137.397067,27.5073314 C137.398198,29.2553951 138.814401,30.6725161 140.562463,30.6747801 L172.228739,30.6747801 C173.974396,30.6691274 175.386855,29.252997 175.387977,27.5073314 L175.387977,11.8260997 C175.370251,10.0876883 173.967113,8.68181469 172.228739,8.66070381 L172.228739,8.66070381 Z" id="Path" fill="#FF4C3E"></path>
                        <path d="M172.228739,10.9865103 C172.686186,11.0004623 173.053443,11.3686197 173.066286,11.8260997 L173.066286,27.5073314 C173.067374,27.7297949 172.979487,27.9434645 172.82218,28.1007719 C172.664872,28.2580793 172.451203,28.3459666 172.228739,28.3448782 L140.562463,28.3448782 C140.105785,28.3309712 139.738824,27.96401 139.724927,27.5073314 L139.724927,11.8260997 C139.738768,11.3690543 140.105453,11.0014703 140.562463,10.9865103 L172.228739,10.9865103 Z" id="Path" fill="#30D1CD" opacity="0.68"></path>
                        <path d="M172.228739,10.9865103 L140.562463,10.9865103 C140.105453,11.0014703 139.738768,11.3690543 139.724927,11.8260997 L139.724927,15.6442815 L173.060117,15.6442815 L173.060117,11.8260997 C173.04746,11.3709133 172.683779,11.0036403 172.228739,10.9865103 Z" id="Path" fill="#30D1CD" opacity="0.3"></path>
                        <path d="M131.903812,8.66070381 L100.290909,8.66070381 C98.5433131,8.66296278 97.1268523,10.0785056 97.123363,11.8260997 L97.123363,27.5073314 C97.1168339,28.3494049 97.448418,29.1589137 98.0438724,29.7543681 C98.6393267,30.3498224 99.4488355,30.6814065 100.290909,30.6749128 L131.903812,30.6749128 C132.746409,30.6825211 133.556777,30.3513618 134.152801,29.7557239 C134.748825,29.160086 135.080509,28.3499329 135.073428,27.5073314 L135.073428,11.8260997 C135.072183,10.0791697 133.6569,8.66296778 131.909971,8.66070381 L131.903812,8.66070381 Z" id="Path" fill="#FF4C3E"></path>
                        <path d="M131.903812,10.9865077 C132.360822,11.0014703 132.727508,11.3690543 132.741352,11.8260997 L132.741352,27.5073314 C132.741896,27.7296271 132.653831,27.9429757 132.496644,28.100163 C132.339457,28.2573503 132.126108,28.3454149 131.903812,28.3448782 L100.290909,28.3448782 C100.068446,28.3459666 99.854776,28.2580793 99.6974686,28.1007719 C99.5401612,27.9434645 99.4522738,27.7297949 99.4533623,27.5073314 L99.4533623,11.8260997 C99.4522776,11.6034489 99.5401003,11.3895712 99.6973472,11.2319388 C99.8545942,11.0743064 100.068256,10.9859605 100.290909,10.9865077 L131.903812,10.9865077 Z" id="Path" fill="#30D1CD" opacity="0.68"></path>
                        <path d="M131.903812,10.9865077 L100.290909,10.9865077 C100.068256,10.9859605 99.8545942,11.0743064 99.6973472,11.2319388 C99.5401003,11.3895712 99.4522776,11.6034489 99.4533623,11.8260997 L99.4533623,15.6442815 L132.741349,15.6442815 L132.741349,11.8260997 C132.727508,11.3690543 132.360822,11.0014703 131.903812,10.9865077 L131.903812,10.9865077 Z" id="Path" fill="#30D1CD" opacity="0.3"></path>
                        <path d="M91.5829912,8.66070074 L59.970088,8.66070074 C58.2301107,8.67959985 56.8245121,10.0861105 56.8067449,11.8260997 L56.8067449,27.5073314 C56.8067449,29.2550629 58.2223579,30.6725147 59.970088,30.6749502 L91.5829912,30.6749502 C92.429863,30.6835343 93.2452365,30.3540839 93.8483212,29.759477 C94.4514059,29.1648702 94.7923659,28.3542422 94.7956012,27.5073314 L94.7956012,11.8260997 C94.7719975,10.0693492 93.3398986,8.65829713 91.5829912,8.66070074 L91.5829912,8.66070074 Z" id="Path" fill="#FF4C3E"></path>
                        <path d="M91.5829912,10.9865077 C92.0493062,10.9987294 92.4311303,11.3610636 92.4677419,11.8260997 L92.4677419,27.5073314 C92.4467442,27.9793315 92.0554328,28.3497608 91.5829912,28.3449159 L59.970088,28.3449159 C59.7477923,28.3454149 59.5344436,28.2573503 59.3772564,28.100163 C59.2200691,27.9429757 59.1320045,27.7296271 59.1325412,27.5073314 L59.1325412,11.8260997 C59.1314565,11.6034489 59.2192791,11.3895712 59.3765261,11.2319388 C59.5337731,11.0743064 59.7474352,10.9859605 59.970088,10.9865077 L91.5829912,10.9865077 Z" id="Path" fill="#30D1CD" opacity="0.68"></path>
                        <path d="M91.5829912,10.9865077 L59.970088,10.9865077 C59.7474352,10.9859605 59.5337731,11.0743064 59.3765261,11.2319388 C59.2192791,11.3895712 59.1314565,11.6034489 59.1325412,11.8260997 L59.1325412,15.6442815 L92.4697947,15.6442815 L92.4697947,11.8260997 C92.4331831,11.3610636 92.051359,10.9987294 91.585044,10.9865077 L91.5829912,10.9865077 Z" id="Path" fill="#30D1CD" opacity="0.3"></path>
                        <path d="M30.4038123,8.66070381 C22.2090909,8.66070381 16.483871,13.3143695 16.483871,21.7431085 L16.483871,27.5073314 C16.4848905,28.357468 16.826295,29.1717952 17.4318521,29.768481 C18.0374092,30.3651669 18.8566857,30.6945172 19.7067449,30.6829912 L51.3196481,30.6829912 C53.0669067,30.6750729 54.478193,29.2546046 54.4747862,27.5073314 L54.4747862,11.8260997 C54.4570991,10.0892636 53.0564176,8.68402553 51.3196481,8.66070381 L30.4038123,8.66070381 Z" id="Path" fill="#FF4C3E"></path>
                        <path d="M30.4038123,10.9865103 L51.3196481,10.9865103 C51.7770543,10.9943725 52.1430781,11.3686318 52.1407734,11.8260997 L52.1407734,27.5073314 C52.1413093,27.7296271 52.0532447,27.9429757 51.8960574,28.100163 C51.7388701,28.2573503 51.5255215,28.3454149 51.3032258,28.344868 L19.7067449,28.344868 C19.2295002,28.3576 18.830657,27.9843706 18.8117302,27.5073314 L18.8117302,21.7431085 C18.8117302,14.8991202 23.1882698,10.9865103 30.4038123,10.9865103 Z" id="Path" fill="#30D1CD" opacity="0.68"></path>
                        <path d="M242.062463,8.6607007 C250.257185,8.6607007 255.982519,13.3143695 255.982519,21.7431085 L255.982519,27.5073314 C255.989584,28.3492149 255.658461,29.1587334 255.063331,29.7542495 C254.4682,30.3497657 253.658897,30.6814139 252.817009,30.6749501 L221.204106,30.6749501 C220.357044,30.6835328 219.54146,30.3541469 218.93805,29.7595993 C218.33464,29.1650517 217.993223,28.3544301 217.989443,27.5073314 L217.989443,11.8260997 C218.01416,10.0690196 219.446853,8.65828285 221.204106,8.6607007 L242.062463,8.6607007 Z" id="Path" fill="#FF4C3E"></path>
                        <path d="M242.062463,10.9864625 L221.204106,10.9864625 C220.730531,10.9816183 220.338301,11.3529657 220.317302,11.8260997 L220.317302,27.5073314 C220.338323,27.9801364 220.730872,28.3508769 221.204106,28.3449401 L252.817009,28.3449401 C253.039305,28.3454149 253.252653,28.2573503 253.40984,28.100163 C253.567028,27.9429757 253.655092,27.7296271 253.654548,27.5073314 L253.654548,21.7431085 C253.654548,14.8991202 249.32522,10.9864625 242.062463,10.9864625 Z" id="Path" fill="#30D1CD" opacity="0.68"></path>
                        <path d="M242.062463,10.9865103 L221.204106,10.9865103 C220.730531,10.9816183 220.338301,11.3529657 220.317302,11.8260997 L220.317302,15.6442815 L252.119062,15.6442815 C250.257185,12.6636364 246.763343,10.9865103 242.060411,10.9865103 L242.062463,10.9865103 Z" id="Path" fill="#30D1CD" opacity="0.3"></path>
                        <rect id="Rectangle" fill="#C1B399" fill-rule="nonzero" x="59.1304985" y="17.9721408" width="33.3372434" height="2.32785924"></rect>
                        <rect id="Rectangle" fill="#C1B399" fill-rule="nonzero" x="99.4513196" y="17.9721408" width="33.2900293" height="2.32785924"></rect>
                        <rect id="Rectangle" fill="#C1B399" fill-rule="nonzero" x="139.724927" y="17.9721408" width="33.3351906" height="2.32785924"></rect>
                        <path d="M51.3196481,10.9865103 L30.4038123,10.9865103 C25.7029326,10.9865103 22.256305,12.6636364 20.3923754,15.6442815 L52.1407734,15.6442815 L52.1407734,11.8260997 C52.1430781,11.3686318 51.7770543,10.9943725 51.3196481,10.9865103 L51.3196481,10.9865103 Z" id="Path" fill="#30D1CD" opacity="0.3"></path>
                        <path d="M260.685337,125.616129 L224.927859,125.616129 L224.927859,70.9565982 C224.938,68.3901944 227.017166,66.312862 229.583578,66.3049853 L265.341056,66.3049853 C262.77225,66.3128805 260.6921,68.3939477 260.685337,70.9627566 L260.685337,125.616129 Z" id="Path" fill="#05264B"></path>
                        <path d="M265.341056,66.3049853 L229.583578,66.3049853 C227.014772,66.3128805 224.934622,68.3939477 224.927859,70.9627566 L260.685337,70.9627566 C260.6921,68.3939477 262.77225,66.3128805 265.341056,66.3049853 Z" id="Path" fill="#1E1103"></path>
                        <rect id="Rectangle" fill="#D81C0E" fill-rule="nonzero" x="224.927859" y="123.28827" width="35.757478" height="2.32785924"></rect>
                        <path d="M224.927859,106.572434 C226.436917,106.553617 227.65567,105.334864 227.674487,103.825806 L227.674487,97.3020528 C227.672226,95.7860698 226.443842,94.5576862 224.927859,94.5554252 L224.927859,92.2337243 C227.725682,92.2393574 229.993316,94.5042387 230.002346,97.3020528 L230.002346,103.819648 C229.996699,106.619867 227.728079,108.888488 224.927859,108.894135 L224.927859,106.572434 Z" id="Path" fill="#C1B399"></path>
                        <rect id="Rectangle" fill="#C8B89F" fill-rule="nonzero" x="243.969501" y="115.233138" width="16.7158358" height="5.72727273"></rect>
                        <rect id="Rectangle" fill="#E0D3B8" fill-rule="nonzero" x="224.927859" y="120.958358" width="35.757478" height="2.32785924"></rect>
                        <rect id="Rectangle" fill="#C1B399" fill-rule="nonzero" x="241.643695" y="66.298827" width="2.32785924" height="56.98739"></rect>
                        <rect id="Rectangle" fill="#C8B89F" fill-rule="nonzero" x="243.969501" y="112.905279" width="16.7158358" height="2.32785924"></rect>
                        <rect id="Rectangle" fill="#AE9981" fill-rule="nonzero" x="243.969501" y="107.178006" width="16.7158358" height="5.72727273"></rect>
                        <rect id="Rectangle" fill="#AE9981" fill-rule="nonzero" x="243.969501" y="104.850147" width="16.7158358" height="2.32785924"></rect>
                        <rect id="Rectangle" fill="#876D58" fill-rule="nonzero" x="243.969501" y="99.0777126" width="16.7158358" height="5.77243402"></rect>
                        <rect id="Rectangle" fill="#876D58" fill-rule="nonzero" x="243.969501" y="96.7478006" width="16.7158358" height="2.32785924"></rect>
                        <rect id="Rectangle" fill="#785C48" fill-rule="nonzero" x="243.969501" y="91.0225806" width="16.7158358" height="5.72727273"></rect>
                        <rect id="Rectangle" fill="#785C48" fill-rule="nonzero" x="243.969501" y="88.6947214" width="16.7158358" height="2.32785924"></rect>
                        <rect id="Rectangle" fill="#6A4B38" fill-rule="nonzero" x="243.969501" y="82.9674487" width="16.7158358" height="5.72727273"></rect>
                        <rect id="Rectangle" fill="#6A4B38" fill-rule="nonzero" x="243.969501" y="80.6395894" width="16.7158358" height="2.32785924"></rect>
                        <path d="M225.765396,46.4175928 C225.308386,46.4325554 224.9417,46.8001394 224.927849,47.2571848 L224.927849,56.1498534 C224.926764,56.3725042 225.014587,56.5863819 225.171834,56.7440143 C225.329081,56.9016466 225.542743,56.9899926 225.765396,56.9894454 L252.817009,56.9894454 C253.039662,56.9899926 253.253324,56.9016466 253.410571,56.7440143 C253.567818,56.5863819 253.65564,56.3725042 253.654556,56.1498534 L253.654556,47.2571848 C253.65564,47.0345339 253.567818,46.8206563 253.410571,46.6630239 C253.253324,46.5053915 253.039662,46.4170456 252.817009,46.4175928 L225.765396,46.4175928 Z" id="Path" fill="#30D1CD" opacity="0.83"></path>
                        <polygon id="Path" fill="#52301E" points="260.685337 82.9674487 243.969501 82.9674487 243.969501 85.2953079 258.357478 85.2953079 258.357478 88.6947214 260.685337 88.6947214 260.685337 82.9674487"></polygon>
                        <rect id="Rectangle" fill="#52301E" fill-rule="nonzero" x="243.969501" y="74.8651026" width="16.7158358" height="5.72727273"></rect>
                        <rect id="Rectangle" fill="#52301E" fill-rule="nonzero" x="243.969501" y="72.5372434" width="16.7158358" height="2.32785924"></rect>
                        <polygon id="Path" fill="#381202" points="260.685337 74.8651026 243.969501 74.8651026 243.969501 77.1847507 258.357478 77.1847507 258.357478 80.5923754 260.685337 80.5923754 260.685337 74.8651026"></polygon>
                        <polygon id="Path" fill="#6A4B38" points="260.685337 91.0225806 243.969501 91.0225806 243.969501 93.3504399 258.357478 93.3504399 258.357478 96.7478006 260.685337 96.7478006 260.685337 91.0225806"></polygon>
                        <polygon id="Path" fill="#785C48" points="260.685337 99.0777126 243.969501 99.0777126 243.969501 101.407625 258.357478 101.407625 258.357478 104.852199 260.685337 104.852199 260.685337 99.0777126"></polygon>
                        <polygon id="Path" fill="#876D58" points="260.685337 107.178006 243.969501 107.178006 243.969501 109.505865 258.357478 109.505865 258.357478 112.903226 260.685337 112.903226 260.685337 107.175953"></polygon>
                        <polygon id="Path" fill="#AE9981" points="260.685337 115.231085 243.969501 115.231085 243.969501 117.560997 258.357478 117.560997 258.357478 120.960411 260.685337 120.960411 260.685337 115.231085"></polygon>
                    </g>
                    <text id="LONDON-TRANSPORT" font-family="Avenir-Black, Avenir" font-size="9" font-weight="700" fill="#FFFFFF">
                        <tspan x="94" y="104">LONDON TRANSPORT </tspan>
                    </text>
                </g>
            </g>
        </g>
    </g>
</svg>